<svg version="1.1" id="Layer_1" xmlns="http://www.w3.org/2000/svg" xmlns:xlink="http://www.w3.org/1999/xlink" x="0px" y="0px"
	 width="100%" viewBox="0 0 1024 1024" enable-background="new 0 0 1024 1024" xml:space="preserve">
<path fill="#000000" opacity="1.000000" stroke="none" 
	d="
M514.273987,531.828857 
	C539.530396,604.004028 564.099121,675.995789 587.798584,748.282166 
	C593.245056,764.894653 598.646118,781.518372 604.966919,797.826599 
	C607.977539,805.593994 609.692749,806.326416 616.452698,801.511963 
	C633.563293,789.325562 650.982788,777.689331 669.404419,767.504395 
	C700.729980,750.185486 733.601746,736.659119 767.600464,725.640442 
	C807.901306,712.579224 849.063293,703.260132 890.874573,696.705139 
	C911.568359,693.460876 932.226135,689.947876 953.055786,687.626831 
	C954.583557,687.456604 955.953735,687.025452 957.136780,685.702209 
	C955.743652,680.414429 952.084167,676.367737 949.679565,671.680481 
	C928.584290,630.559326 911.438965,587.730774 894.712769,544.725159 
	C878.355713,502.668945 864.380371,459.709198 847.725525,417.790436 
	C828.974365,370.595459 811.204346,323.014160 791.862854,276.053040 
	C789.138428,269.438049 786.901794,262.622223 784.433472,255.901505 
	C783.735474,254.001022 783.256042,252.097534 784.271973,249.772583 
	C787.576660,249.116501 789.284607,251.558289 790.960999,253.671005 
	C798.888733,263.662628 805.028015,274.757172 809.859131,286.487610 
	C828.122314,330.832489 846.695923,375.061005 864.124817,419.734314 
	C878.100403,455.556122 890.207581,492.102509 903.828125,528.068176 
	C922.233765,576.668884 942.838562,624.378723 963.667236,671.983948 
	C964.729980,674.413025 965.863525,676.896179 968.053833,678.580933 
	C969.337036,679.567871 969.993103,680.934143 970.371948,682.344360 
	C974.178467,696.511719 982.128906,708.622192 989.445007,721.050903 
	C989.606445,721.325073 989.627319,721.682068 989.840332,722.467041 
	C983.810974,729.423035 975.036804,724.158936 968.075378,726.822144 
	C967.325623,728.488647 968.562561,729.381897 969.355713,730.351379 
	C980.042114,743.413757 988.862122,757.753357 997.819336,771.994019 
	C999.317871,774.376282 1000.498901,776.985291 1001.600159,779.585510 
	C1005.627808,789.095459 1002.564758,795.788696 992.635681,798.965698 
	C982.742798,802.131165 972.400146,802.854553 962.184387,804.212830 
	C943.057922,806.755859 923.923157,809.237244 904.785828,811.697815 
	C882.347534,814.582764 859.904175,817.429382 837.460571,820.272583 
	C814.849426,823.137085 792.252563,826.123718 769.617615,828.786560 
	C746.816345,831.468933 723.977112,833.829529 701.152283,836.310486 
	C686.292603,837.925720 671.471069,840.046875 656.957275,839.294800 
	C655.386719,840.790039 656.074097,841.955078 656.185242,843.060791 
	C657.445740,855.604797 650.826172,865.602417 638.683228,869.277954 
	C626.006531,873.115112 612.825256,873.794556 599.781860,875.325195 
	C591.827026,876.258667 583.896790,876.939270 575.916626,875.355713 
	C569.196289,874.022095 563.128357,871.572632 558.615234,866.203918 
	C554.550537,861.368591 549.758301,859.881714 543.519653,861.570557 
	C478.945465,879.050842 413.870544,894.494812 348.651855,909.356812 
	C306.472931,918.968506 264.286194,928.539612 221.841385,936.917603 
	C216.632721,937.945740 211.299271,938.587341 205.996613,938.839539 
	C196.474731,939.292419 188.587357,935.473938 181.745026,928.943176 
	C172.720154,920.329590 167.067307,909.568787 162.241638,898.389099 
	C145.074692,858.617981 130.159027,817.974243 115.656418,777.170837 
	C101.327293,736.855591 86.900391,696.574585 72.431389,656.309143 
	C58.972069,618.853516 44.894512,581.642395 30.680210,544.477722 
	C24.197573,527.528198 16.090481,511.235718 9.891639,494.161652 
	C8.244162,489.623871 6.825540,485.038879 6.402727,480.159546 
	C5.810883,473.329590 7.621281,469.401215 13.664592,466.223541 
	C20.641504,462.554901 28.219204,460.549500 35.821014,458.643341 
	C38.350487,458.009064 41.048805,457.769653 43.560944,456.017120 
	C41.195900,449.992493 38.979485,444.110168 36.578655,438.304077 
	C34.589825,433.494354 34.790226,429.244568 37.787598,424.670227 
	C44.192646,414.895447 52.645164,407.556396 63.041615,402.584351 
	C67.738129,400.338287 68.450882,397.727966 66.817383,393.105286 
	C63.326374,383.226105 59.674026,373.375214 57.400616,363.110229 
	C55.267311,353.477844 58.112946,347.355316 67.179016,343.228516 
	C81.933067,336.512573 97.627144,332.582275 113.172119,328.222046 
	C142.379227,320.029724 172.081635,314.267853 202.197800,310.929901 
	C230.859634,307.753113 259.577026,306.849609 288.428650,309.493805 
	C318.143188,312.217133 347.607300,315.930603 376.262512,324.577209 
	C401.107422,332.074097 424.784180,342.215698 446.442108,356.627258 
	C451.235168,359.816620 454.220581,357.578583 457.357635,354.705627 
	C469.580627,343.511719 483.209137,334.287018 497.222931,325.523193 
	C519.771606,311.421814 543.708740,300.271362 568.380859,290.449127 
	C601.431091,277.291534 635.433899,267.474915 670.203918,260.246155 
	C694.627075,255.168503 719.174194,250.620941 743.997620,248.054276 
	C754.398499,246.978867 764.965271,247.597107 775.414612,246.494110 
	C776.257324,246.405136 777.066833,246.600739 777.656250,247.623703 
	C776.032654,250.329208 773.075684,250.610352 770.446472,251.257843 
	C752.986511,255.557724 735.154053,257.918518 717.513489,261.285797 
	C659.499390,272.359711 602.487793,286.937073 548.161377,310.550568 
	C518.767334,323.326996 490.943176,339.080414 464.396332,357.090210 
	C459.955048,360.103241 458.793152,363.075989 460.542542,368.296600 
	C473.126801,405.851837 486.100494,443.278809 497.826569,481.120026 
	C503.046783,497.966217 508.703644,514.677063 514.273987,531.828857 
M534.696716,788.632263 
	C545.812317,790.766052 556.742920,793.624451 567.683350,796.526428 
	C578.770630,799.467346 587.792847,806.874695 598.426636,810.922913 
	C599.646240,807.893982 598.536682,806.123657 597.814209,804.315796 
	C595.714050,799.060181 593.503479,793.847778 591.459839,788.570618 
	C575.107361,746.344482 559.314575,703.912476 544.660583,661.062561 
	C524.838928,603.101868 504.878265,545.188293 485.233643,487.167694 
	C472.801727,450.449982 460.769531,413.592010 451.372772,375.946838 
	C450.008820,370.482483 446.852020,367.193481 441.974243,364.519135 
	C393.152252,337.751190 340.382355,325.394287 285.333466,321.451813 
	C260.550995,319.676941 235.761154,319.980347 210.974091,322.118805 
	C176.110626,325.126648 141.664612,330.694214 107.565163,338.413177 
	C94.927673,341.273865 82.103828,343.671204 70.213615,349.155945 
	C64.966774,351.576202 64.423737,353.294037 66.494980,358.586426 
	C70.681641,369.284058 74.913361,379.965271 78.960983,390.715576 
	C80.847038,395.724884 82.267464,400.944305 89.095703,401.034760 
	C89.368271,401.038361 89.631088,401.778046 90.006195,402.334625 
	C89.543205,403.011841 89.239159,403.991974 88.614334,404.282715 
	C84.840691,406.038452 85.489433,408.525513 86.835854,411.639984 
	C89.012962,416.675934 90.660744,421.938141 92.748573,427.015778 
	C104.591713,455.818451 115.772331,484.891815 126.215210,514.213013 
	C143.925323,563.939087 162.060776,613.487915 182.491470,662.168518 
	C203.052811,711.160400 225.206055,759.444275 247.415848,807.702942 
	C249.104156,811.371460 250.705658,812.646423 254.945801,811.094849 
	C277.332642,802.903076 300.419373,797.161072 323.704529,792.177979 
	C359.260223,784.569031 395.164062,780.011169 431.566010,779.674927 
	C448.735748,779.516296 465.863831,780.197327 482.970428,781.650574 
	C500.046600,783.101196 517.058472,784.990112 534.696716,788.632263 
M184.962494,867.633423 
	C189.976028,878.953552 195.788788,889.774475 204.196899,899.025574 
	C207.347046,902.491516 210.694595,904.099915 215.676453,902.909668 
	C236.376968,897.964111 257.151642,893.343750 277.962738,888.858948 
	C309.339569,882.097229 340.510132,874.375244 371.755371,867.006531 
	C418.717316,855.931335 465.333405,843.404480 512.567688,833.468506 
	C516.354797,832.671814 520.065491,831.512024 524.512573,830.335571 
	C520.088928,827.369507 516.220642,828.815369 512.524902,828.977478 
	C501.229034,829.473083 489.823914,828.408020 478.664215,830.960449 
	C443.954041,838.899353 409.275818,846.978394 374.552338,854.858154 
	C347.949463,860.895142 321.351471,867.010010 294.125763,869.692932 
	C291.734711,869.928589 289.296783,870.336548 286.212799,867.122253 
	C316.217682,857.156067 345.986572,850.513245 375.564789,843.259766 
	C405.361206,835.952637 435.285400,829.166626 465.153625,822.152283 
	C435.613403,821.016357 406.377350,824.296143 377.077942,826.330627 
	C347.748230,828.367065 318.764557,833.270325 289.686340,837.791748 
	C290.935333,833.974304 293.941101,833.730896 296.495728,832.958862 
	C310.369324,828.765869 324.556091,825.881836 338.752502,823.045288 
	C375.058441,815.791260 411.641083,810.892578 448.730286,810.996521 
	C463.377747,811.037598 477.990082,813.074463 492.603119,813.445251 
	C519.114990,814.118042 545.453552,816.222595 571.703674,819.764099 
	C574.552734,820.148560 577.705933,820.290649 579.412048,823.214478 
	C578.530579,825.490967 576.659607,825.066467 575.100830,825.376282 
	C568.328674,826.722046 561.469360,826.311035 554.661377,826.139954 
	C543.916748,825.869995 534.496216,828.966003 526.175049,836.155396 
	C533.000427,835.763916 539.413696,834.011658 545.949890,833.129944 
	C551.634705,832.363037 557.491272,830.000610 563.087952,833.007996 
	C566.718506,834.958923 570.024841,834.611877 573.622314,833.332397 
	C581.683167,830.465332 585.576477,823.880127 589.171387,816.959595 
	C587.049133,814.639771 584.482727,814.272339 582.171692,813.441467 
	C568.029175,808.357544 553.310242,805.648254 538.613159,802.788513 
	C507.019836,796.641113 475.175842,792.877930 442.980499,792.374329 
	C401.883911,791.731445 361.239929,796.097107 320.850555,803.424194 
	C300.040558,807.199280 279.448822,811.842773 259.140137,817.735474 
	C253.690140,819.316895 253.405273,820.051941 256.138580,824.941101 
	C258.739990,829.594421 261.488647,834.166504 264.032379,838.850403 
	C264.820740,840.302063 266.440704,841.829956 264.757599,843.793030 
	C262.026581,844.037720 260.501343,842.148499 258.881470,840.531128 
	C254.728485,836.384583 251.460098,831.538147 248.246063,826.672913 
	C246.299927,823.726929 244.033356,822.754517 240.634506,824.200073 
	C237.733002,825.434021 234.696899,826.394592 231.654633,827.239563 
	C229.574478,827.817261 227.411224,829.511780 224.899765,827.264893 
	C226.781021,823.048157 230.983124,821.874695 234.461807,819.940002 
	C241.508347,816.020935 241.664368,816.044861 237.505081,809.327026 
	C209.424561,763.972778 188.202271,715.247925 167.631775,666.250305 
	C154.229080,634.325867 141.898087,601.957947 130.230942,569.341675 
	C118.231194,535.795593 105.863976,502.381073 93.698463,468.894135 
	C87.160370,450.897308 80.724068,432.863525 74.208641,414.858429 
	C71.891312,408.454590 71.393166,408.231506 65.488304,411.943573 
	C61.123379,414.687561 56.853374,417.613312 52.741558,420.723145 
	C41.974865,428.866180 41.587219,430.199432 46.704922,442.747772 
	C48.670460,447.567200 49.833668,452.989807 55.635635,455.338593 
	C57.851295,456.235565 57.486389,458.619843 56.504715,460.592896 
	C55.211746,463.191620 52.750065,464.263519 50.273575,465.291199 
	C46.587830,466.820740 42.818474,468.169861 39.215694,469.872894 
	C34.866344,471.928741 33.112526,475.612457 34.355564,480.210846 
	C36.885071,489.568207 40.751488,498.397675 45.740704,506.718262 
	C46.045036,507.225739 46.520504,507.835388 47.366619,507.389008 
	C48.038181,505.526642 47.053455,503.834747 46.764614,502.059723 
	C45.458042,494.030487 43.471912,486.086060 43.681641,477.863495 
	C43.733406,475.834045 43.715767,473.510864 46.020924,472.836212 
	C48.292999,472.171204 48.979523,474.523102 49.988667,475.934937 
	C50.855785,477.148041 51.505341,478.518585 52.231411,479.830353 
	C59.491428,492.947174 66.769836,506.053894 73.999199,519.187622 
	C84.840439,538.883118 96.364090,558.238220 105.319786,578.903320 
	C116.773849,605.333435 126.289024,632.571045 138.316116,658.767151 
	C141.354431,665.384827 144.595505,671.909424 147.743393,678.476746 
	C147.259811,674.491028 145.843765,670.950195 144.559448,667.362244 
	C130.982910,629.433411 118.525719,591.091125 103.676521,553.635132 
	C93.737061,528.563538 82.635269,503.954285 72.198997,479.077148 
	C69.047234,471.564178 66.110840,463.928253 65.312447,455.690613 
	C65.142891,453.941132 65.185799,452.181488 66.998138,451.392548 
	C69.064095,450.493256 70.009026,452.329620 70.920563,453.621216 
	C72.262032,455.521881 73.413223,457.562073 74.576141,459.582733 
	C85.076164,477.827362 92.845634,497.372742 101.170074,516.614136 
	C118.432594,556.515381 132.929977,597.494995 147.318115,638.502869 
	C158.394852,670.072937 169.828934,701.514221 179.954025,733.417603 
	C189.421158,763.247742 198.972549,793.071716 212.217377,821.530640 
	C218.190262,834.364563 224.192490,847.185669 230.030823,860.080688 
	C230.903687,862.008606 232.613907,864.146301 230.653870,866.770447 
	C225.725204,865.936951 223.186462,862.033447 220.592041,858.545471 
	C211.606735,846.465393 204.535172,833.216675 198.081055,819.678467 
	C183.964554,790.067566 171.946259,759.511841 157.498077,730.031372 
	C141.446976,697.280396 125.991776,664.220215 112.909592,630.143433 
	C103.419212,605.422668 94.537048,580.465088 82.187508,556.957092 
	C77.550095,548.129456 73.521545,538.954712 67.614166,530.799500 
	C69.084648,534.356262 69.783852,538.127563 71.101204,541.676697 
	C83.671959,575.544312 94.875031,609.881042 106.606125,644.038879 
	C121.666527,687.890808 143.588318,728.867737 162.159180,771.251160 
	C175.915710,802.647034 192.224503,832.925232 207.424362,863.687500 
	C211.581879,872.101685 216.349472,880.082825 223.784317,886.136597 
	C224.782761,886.949524 225.618423,888.099426 226.196808,889.259216 
	C227.088501,891.047363 226.846649,892.828979 225.316238,894.281006 
	C223.795105,895.724365 222.267288,895.158691 220.753220,894.261414 
	C218.148224,892.717529 215.943604,890.716980 213.915817,888.472778 
	C207.738739,881.636292 202.749878,873.932068 197.919876,866.156311 
	C185.605728,846.331726 174.452316,825.859619 164.356262,804.811768 
	C162.253906,800.428833 159.868347,796.181824 157.613312,791.872131 
	C166.025070,817.191833 172.872345,842.981262 184.962494,867.633423 
M703.089600,770.470703 
	C706.421082,769.412048 709.754395,768.359131 713.083740,767.293945 
	C748.790894,755.869507 785.026917,746.563538 821.997253,740.236206 
	C825.818176,739.582275 829.781250,738.837585 833.675232,741.731628 
	C797.377502,755.151123 759.626770,763.754333 723.079590,776.128662 
	C686.518250,788.507812 649.414673,799.426086 613.708984,815.885437 
	C618.168457,820.005493 621.955505,826.090576 628.296875,825.421204 
	C638.137207,824.382385 647.779358,821.454956 657.493225,819.273438 
	C657.843140,819.194885 658.062622,818.535645 658.538940,817.875366 
	C652.802368,811.051880 644.149048,813.238098 636.969055,811.563110 
	C637.377747,808.658875 639.267700,808.417664 640.711060,807.792542 
	C652.031250,802.890259 663.567322,798.581604 675.517822,795.455139 
	C716.091003,784.840515 757.169067,776.518127 798.351685,768.725403 
	C820.408875,764.551575 842.506653,760.314941 865.122986,760.660461 
	C867.290222,760.693542 869.801819,759.825439 872.545837,763.178589 
	C806.496460,780.854431 739.793823,792.841614 674.587952,811.157043 
	C676.856140,811.607544 679.102478,811.767883 681.320251,811.583435 
	C714.154907,808.853027 746.627991,803.235901 779.296204,799.165771 
	C805.355164,795.919067 831.268066,791.513916 857.269714,787.790283 
	C892.985229,782.675659 928.405640,775.833435 963.946289,769.700378 
	C975.801208,767.654663 976.348389,765.709595 969.979370,755.545166 
	C965.650635,748.636902 961.198853,741.753357 958.409607,734.022827 
	C955.941101,727.181335 957.717896,724.115662 964.498413,722.165039 
	C968.382202,721.047668 972.780518,721.436584 976.672607,718.257141 
	C972.651794,711.783386 968.462219,705.586914 964.867249,699.062866 
	C962.343689,694.483093 959.235901,693.423340 954.253113,694.505920 
	C936.703796,698.318848 919.052673,701.660461 901.483215,705.384277 
	C859.476868,714.287598 817.637695,723.843018 776.789734,737.303711 
	C745.423462,747.639832 714.846924,759.858948 685.428101,774.902527 
	C684.009277,775.627991 682.228271,776.010803 681.090271,778.135376 
	C688.516052,775.540405 695.427063,773.125366 703.089600,770.470703 
M228.464386,913.418762 
	C225.000549,913.649963 221.530838,913.817627 218.075226,914.137695 
	C216.192093,914.312073 213.574600,913.990845 213.603104,916.823059 
	C213.628387,919.334778 215.390442,921.582214 217.893967,921.475891 
	C224.292450,921.204224 230.158188,919.115723 235.506042,915.126770 
	C233.325317,912.926575 231.231979,913.585388 228.464386,913.418762 
M985.367981,776.656616 
	C984.729858,774.322937 983.466492,771.702759 981.094910,771.905518 
	C977.822937,772.185181 975.442688,774.630859 973.862000,778.091492 
	C978.032349,779.367615 981.821045,781.344116 985.367981,776.656616 
z"/>
<path fill="#000000" opacity="1.000000" stroke="none" 
	d="
M656.847046,409.884369 
	C652.123535,414.778168 647.012207,417.856659 640.216064,416.819427 
	C639.894165,416.770325 639.432556,416.699982 639.240723,416.870209 
	C630.296631,424.808075 617.237671,420.770782 607.797607,427.877747 
	C602.956848,431.522034 596.660889,432.505737 590.583008,430.407440 
	C587.043640,429.185516 585.194336,430.247559 583.384338,433.340485 
	C578.364685,441.918182 571.171936,447.734467 561.147217,449.594452 
	C551.406250,451.401703 545.778564,447.245605 544.655151,437.381317 
	C542.891846,421.898163 542.902588,406.481995 546.813538,391.285889 
	C548.830383,383.449219 551.906677,376.097351 558.507629,370.845001 
	C564.057068,366.429321 568.497009,366.627686 573.524841,371.669952 
	C584.503967,382.680634 588.850830,396.340363 589.058533,411.546326 
	C589.110352,415.338257 588.998840,418.938354 593.460999,420.565186 
	C598.307251,422.332092 602.968933,422.186310 607.336853,419.395233 
	C609.716064,417.874939 608.599548,415.589233 608.152771,413.493286 
	C606.571472,406.075378 608.982300,401.056702 614.839905,399.435150 
	C616.652283,398.933411 618.540527,398.487457 620.017761,399.997864 
	C621.544006,401.558472 619.846375,402.606140 619.171570,403.858490 
	C618.506531,405.092712 622.554321,414.967468 623.972534,415.660492 
	C627.144836,417.210693 629.282104,415.552460 631.398804,413.189941 
	C630.647888,411.769562 629.944580,410.469879 629.268799,409.156006 
	C624.960266,400.779022 628.169556,392.164978 636.865784,388.749695 
	C644.514404,385.745819 649.822388,389.996887 648.797180,398.271729 
	C648.349915,401.881927 646.894958,405.211517 645.458984,409.153870 
	C649.869446,408.414642 651.859863,405.421600 654.175171,402.982819 
	C657.153503,399.845734 659.784851,396.354370 662.938599,393.415771 
	C665.976013,390.585632 668.232483,391.261963 669.770142,395.149353 
	C670.557312,397.139191 670.944336,399.302582 671.372314,401.415894 
	C672.195007,405.478760 674.699829,406.946320 678.274963,405.144501 
	C687.817200,400.335175 695.367310,393.088440 701.875610,384.723267 
	C703.200745,383.019958 702.644226,380.854492 702.645142,378.887543 
	C702.647827,373.231262 705.776917,369.518127 710.293152,366.858276 
	C713.206421,365.142426 716.511292,364.816406 719.033264,367.533813 
	C721.571045,370.268250 721.617249,373.458099 719.621338,376.734711 
	C718.692505,378.259430 716.904663,379.267548 716.747070,381.498627 
	C719.581970,383.829285 722.362732,382.500183 724.976868,381.127930 
	C728.841370,379.099274 731.963501,376.044189 735.241516,373.213593 
	C736.807800,371.861053 738.215149,369.840271 740.850342,371.259064 
	C740.937622,371.756927 741.265320,372.397369 741.070312,372.693176 
	C735.382080,381.321381 728.571777,388.711304 718.397217,392.018860 
	C715.641113,392.914795 712.606079,392.559265 710.179504,390.964172 
	C707.020996,388.888000 705.134827,390.093842 703.017639,392.536560 
	C698.083069,398.229706 692.517944,403.230011 685.871460,406.910583 
	C684.560791,407.636383 683.291687,408.444824 681.948242,409.102478 
	C672.492737,413.731110 668.532166,412.731445 662.462158,403.905884 
	C660.635559,405.855469 658.865540,407.744659 656.847046,409.884369 
M569.686218,380.989594 
	C570.302490,377.383423 567.432922,376.456390 565.091309,375.632416 
	C562.429199,374.695618 560.620117,376.541382 559.592041,378.794067 
	C558.354675,381.505493 557.187927,384.291931 556.399414,387.158356 
	C552.251587,402.236755 551.638123,417.653534 552.244568,433.173981 
	C552.396240,437.055206 552.362183,441.343597 556.417114,443.159088 
	C560.228333,444.865479 563.864380,442.703857 567.158325,440.667847 
	C568.273621,439.978485 569.352905,439.087555 570.156616,438.060242 
	C576.901611,429.439484 578.961060,422.027924 572.340454,412.660675 
	C567.926941,406.416077 563.510620,400.127472 562.226196,392.279419 
	C561.162598,385.780426 562.875671,382.979828 569.686218,380.989594 
M636.042847,395.783600 
	C634.127502,399.208038 633.774780,402.631714 636.236450,405.939941 
	C636.754333,406.635834 637.765869,406.794952 638.453308,406.162689 
	C641.076965,403.749481 641.914917,400.570709 641.596008,397.189758 
	C641.243835,393.455566 639.483704,392.466919 636.042847,395.783600 
M576.619690,402.421539 
	C576.170654,398.279938 574.983948,394.346924 573.046448,390.674072 
	C572.320129,389.297180 571.562012,387.149323 569.549133,387.976471 
	C567.397400,388.860657 567.958313,391.119751 568.615540,392.766541 
	C570.086243,396.451599 572.121094,399.858887 574.648621,402.935699 
	C575.139771,403.533569 575.877197,404.217407 576.619690,402.421539 
z"/>
<path fill="#000000" opacity="1.000000" stroke="none" 
	d="
M886.619812,247.598450 
	C889.537964,239.344086 891.085327,231.205444 891.702820,222.875412 
	C891.776428,221.883331 891.852783,220.871063 892.108826,219.916687 
	C892.895752,216.983078 893.642029,213.856430 897.528687,213.742630 
	C901.380432,213.629868 902.639771,216.543716 903.292419,219.543304 
	C905.091797,227.814148 906.654785,236.136169 908.343506,244.431381 
	C909.757935,251.379120 912.886292,257.600616 916.495117,263.628662 
	C920.222717,269.855072 926.018555,273.227356 932.608704,275.548950 
	C935.693481,276.635620 938.861877,277.965393 938.950378,281.725525 
	C939.046875,285.826324 935.607239,287.274109 932.396423,288.234711 
	C918.765259,292.312805 912.709106,302.667084 909.488586,315.442139 
	C907.570740,323.049744 906.897278,330.832336 906.266846,338.623749 
	C906.106567,340.604462 905.682373,342.568634 905.303833,344.525787 
	C904.697083,347.662933 902.784546,349.836792 899.615417,349.889618 
	C896.452820,349.942413 894.988586,347.416138 894.582275,344.603912 
	C893.385864,336.322693 890.455811,328.526550 888.273865,320.514984 
	C883.491028,302.953552 872.111877,293.607941 854.364746,291.339722 
	C852.072266,291.046753 849.818970,290.359772 847.585510,289.722351 
	C846.110779,289.301422 844.722961,288.533356 844.521973,286.800171 
	C844.307739,284.953033 845.757996,284.158691 847.110229,283.539917 
	C849.981750,282.225861 852.913635,281.042999 855.827148,279.821655 
	C870.633301,273.614960 880.492432,262.648987 886.619812,247.598450 
M909.770630,287.320801 
	C916.353882,279.590942 915.351379,281.225006 909.948120,274.333221 
	C905.696167,268.909943 902.699463,262.830841 899.687073,256.722260 
	C898.779541,254.881943 898.463684,252.683899 896.322327,250.737473 
	C891.224670,266.170410 880.432068,276.057770 866.676025,283.969299 
	C883.046387,287.252106 891.560303,298.149261 896.808899,312.641144 
	C899.866760,303.397186 903.168640,294.917694 909.770630,287.320801 
z"/>
<path fill="#000000" opacity="1.000000" stroke="none" 
	d="
M958.165161,394.879730 
	C960.219482,396.386963 962.187805,397.221466 964.240234,397.975616 
	C970.329712,400.213043 971.018311,403.519104 966.570007,408.404266 
	C964.664429,410.497040 962.831055,412.655426 960.951904,414.772491 
	C956.281738,420.033783 953.666931,426.251129 952.416443,433.101898 
	C952.237305,434.083466 952.226379,435.106995 951.952759,436.057861 
	C951.279724,438.396179 950.224915,440.602600 947.418579,440.698547 
	C944.572266,440.795868 943.346497,438.712860 942.771423,436.295624 
	C941.605164,431.393677 940.043823,426.653534 936.973755,422.594360 
	C932.589844,416.798096 926.604736,413.881805 919.424561,413.369751 
	C917.580872,413.238312 915.771240,413.134033 914.107422,412.224670 
	C910.265015,410.124634 909.456360,406.745941 912.974915,404.384583 
	C924.308472,396.778442 928.653320,385.475250 931.060303,372.839844 
	C931.665100,369.665161 932.509338,366.007385 936.893860,365.780579 
	C941.038696,365.566132 942.591736,368.722015 943.983582,371.791473 
	C947.696838,379.979950 951.020447,388.388794 958.165161,394.879730 
M935.690674,406.644287 
	C938.064758,407.865509 940.406372,409.148590 942.253540,411.125671 
	C944.300110,413.316284 946.391418,414.809692 948.728333,411.563446 
	C950.607178,408.953430 953.695129,406.330139 949.607666,403.135376 
	C944.773254,399.356873 941.448181,394.434509 938.542297,389.144165 
	C938.027466,388.206940 937.657227,386.867340 935.665405,387.174194 
	C932.840271,392.235229 930.421631,397.856689 925.524353,402.418121 
	C929.213379,403.928925 932.120178,405.119385 935.690674,406.644287 
z"/>
<path fill="#000000" opacity="1.000000" stroke="none" 
	d="
M600.322266,373.928314 
	C593.354675,374.673859 591.120605,373.240753 590.694824,368.139282 
	C590.205200,362.273041 595.014954,355.203339 599.744080,354.853912 
	C602.069397,354.682129 602.753723,355.858063 602.153564,357.943817 
	C602.023010,358.397583 601.590759,358.758484 601.328796,359.181519 
	C600.189514,361.021057 597.137756,362.789703 599.377319,365.044189 
	C601.523743,367.204987 604.122437,365.092529 606.069946,363.649139 
	C610.348389,360.478210 614.388916,356.987274 618.652039,353.794525 
	C623.058899,350.494141 627.954224,348.605865 633.605225,349.625793 
	C638.826416,350.568146 643.394653,349.039307 647.824036,346.316650 
	C655.270691,341.739166 663.015198,338.185822 672.174622,338.464996 
	C675.547974,338.567810 679.060669,337.315338 682.352539,336.211823 
	C689.343750,333.868225 696.194641,331.661011 703.785156,333.625549 
	C708.129761,334.749969 712.322937,332.696472 716.420959,331.372192 
	C721.678101,329.673401 727.037231,328.541351 732.510925,327.960388 
	C735.188660,327.676208 737.833984,327.777130 738.947815,331.711639 
	C729.475830,332.576782 722.314514,337.637878 715.070007,342.661041 
	C711.059448,345.441956 706.424622,346.284454 701.721130,344.484497 
	C697.383423,342.824524 693.314087,343.237793 689.134827,345.007172 
	C683.130310,347.549347 676.946289,349.197662 670.318604,349.526978 
	C663.531555,349.864197 657.451965,352.839294 651.795166,356.476288 
	C646.176819,360.088501 640.263611,361.392242 633.690369,359.824860 
	C628.795105,358.657593 624.583496,360.948639 620.363342,362.934509 
	C613.578918,366.127014 607.818298,371.173584 600.322266,373.928314 
z"/>
<path fill="#000000" opacity="1.000000" stroke="none" 
	d="
M786.363525,626.957703 
	C784.904358,626.411011 783.781921,626.051697 782.758911,625.506165 
	C762.237488,614.562622 746.065857,626.599487 737.598694,640.088623 
	C736.891663,641.214966 736.389343,642.473816 735.646484,643.572815 
	C733.464417,646.800964 731.058105,646.642151 728.924561,643.624878 
	C727.588745,641.735657 726.660583,639.557800 725.552612,637.507812 
	C721.127625,629.320496 713.540894,627.753052 706.185791,633.647278 
	C699.495605,639.008667 696.589783,646.633484 694.041077,654.462646 
	C693.207153,657.024353 693.114929,659.963440 690.659729,662.341675 
	C688.806274,659.239990 690.098083,656.573608 690.633667,653.963562 
	C692.395569,645.377808 695.194946,637.242432 701.525391,630.818298 
	C705.569275,626.714600 710.515442,624.678833 716.320740,624.670837 
	C721.033997,624.664368 724.605774,626.628418 727.364563,630.396851 
	C728.807922,632.368469 729.747009,634.819763 732.234131,636.043518 
	C734.806030,635.136292 735.794739,632.661621 737.317810,630.797058 
	C747.886963,617.858582 761.032410,612.478455 777.576599,616.815613 
	C778.220337,616.984375 778.850769,617.205200 779.495850,617.368347 
	C789.246460,619.835266 789.300171,619.863770 794.235229,610.987549 
	C796.933472,606.134460 799.927795,601.547363 804.544495,598.311646 
	C810.464722,594.162354 814.951172,594.791382 818.944763,600.700928 
	C820.725220,603.335510 822.085999,603.182922 824.601013,601.862427 
	C837.582336,595.046265 851.441345,595.026428 865.489075,597.098450 
	C866.886536,597.304504 868.518555,597.670044 868.872314,599.996033 
	C865.820007,602.726990 861.755249,602.727783 857.916931,603.282715 
	C850.192566,604.399475 842.348267,604.506287 834.679993,606.179016 
	C831.028992,606.975464 827.778870,608.307861 824.757935,610.571960 
	C820.102600,614.060974 817.427002,613.153870 815.307556,607.769043 
	C812.894836,601.639282 810.879089,601.140747 806.053528,605.522522 
	C801.625183,609.543579 799.100525,614.815308 796.580688,620.082458 
	C794.593384,624.236450 791.940186,627.433105 786.363525,626.957703 
z"/>
<path fill="#000000" opacity="1.000000" stroke="none" 
	d="
M734.879028,410.030823 
	C680.357605,427.760925 624.286865,438.370239 569.656494,456.697479 
	C570.155029,452.015503 573.287109,451.830933 575.473145,450.931366 
	C593.823181,443.379913 612.902344,438.048645 632.034058,432.977966 
	C674.955627,421.602081 717.741333,409.771088 760.074890,396.345276 
	C762.326172,395.631287 764.590271,394.064758 767.286621,395.509094 
	C767.661682,398.779785 764.953003,399.280762 763.021301,400.156403 
	C754.059387,404.219025 744.590393,406.872345 734.879028,410.030823 
z"/>
<path fill="#000000" opacity="1.000000" stroke="none" 
	d="
M733.449890,447.088959 
	C734.473450,445.715881 736.033569,444.193604 736.816956,445.037994 
	C739.948242,448.413025 742.705078,445.731018 745.671875,445.110840 
	C747.907593,444.643433 750.103455,445.219727 751.162415,447.498932 
	C752.265076,449.872101 750.603821,451.210327 748.822876,452.305298 
	C746.700867,453.609833 744.458252,454.732300 742.411865,456.142456 
	C739.402039,458.216400 739.736023,460.450439 742.493225,462.516174 
	C746.862915,465.790039 751.279907,464.395935 755.712341,462.619446 
	C757.918823,461.735046 759.868347,459.972412 762.468994,460.142365 
	C762.580200,460.843872 762.785095,461.261719 762.655884,461.449371 
	C759.435547,466.124115 747.467773,470.296600 741.462463,468.873474 
	C733.350037,466.951019 728.924255,462.089386 727.484680,453.951324 
	C726.991699,451.164459 726.791138,449.186951 730.587158,449.844421 
	C732.455444,450.168091 732.438110,448.279083 733.449890,447.088959 
z"/>
<path fill="#000000" opacity="1.000000" stroke="none" 
	d="
M712.705200,525.983032 
	C714.409973,529.228516 713.344666,531.241394 710.508667,532.214966 
	C708.091736,533.044739 705.599487,532.647705 704.763000,529.853088 
	C703.187500,524.589355 701.429443,519.497192 695.804016,515.421082 
	C702.840393,513.018372 707.115479,508.735229 711.613037,504.649567 
	C713.675903,502.775635 716.602661,502.150452 717.645752,506.289276 
	C717.987244,507.644684 718.693848,509.062103 720.098999,509.173248 
	C723.768616,509.463593 724.281189,512.529358 725.528809,514.919556 
	C726.950623,517.643494 725.549133,518.640442 722.954712,518.488770 
	C721.990967,518.432373 721.039429,517.974792 720.105103,517.637268 
	C714.692932,515.682129 712.393250,517.293823 712.323242,523.149048 
	C712.313416,523.974182 712.481567,524.801453 712.705200,525.983032 
z"/>
<path fill="#000000" opacity="1.000000" stroke="none" 
	d="
M759.955078,574.977905 
	C759.622498,577.846130 758.430725,579.455444 755.730774,579.238220 
	C753.132690,579.029175 751.389587,577.573181 750.812378,575.036194 
	C750.409180,573.263916 750.173645,571.420654 750.141296,569.604126 
	C750.082458,566.302612 748.828369,563.926941 745.769348,562.426758 
	C744.138550,561.626953 742.444641,560.422119 742.976196,558.226074 
	C743.499817,556.062317 745.448242,555.738037 747.340698,555.702148 
	C750.471497,555.642761 752.651001,554.433655 753.883057,551.351196 
	C754.612183,549.526794 754.803772,546.260620 757.621338,546.948120 
	C760.589539,547.672363 758.107727,550.731262 759.003601,552.989441 
	C761.151794,554.412842 763.894165,553.450134 766.419495,553.821350 
	C768.937073,554.191467 771.781555,553.336487 774.016418,555.939575 
	C772.935486,559.165649 769.906494,559.515198 767.342712,560.172424 
	C757.454285,562.707458 757.436035,562.639221 759.495117,572.621399 
	C759.629272,573.271667 759.787048,573.917175 759.955078,574.977905 
z"/>
<path fill="#000000" opacity="1.000000" stroke="none" 
	d="
M642.676147,534.603760 
	C646.220337,529.604919 647.089783,529.488037 651.836060,533.132324 
	C657.804626,529.957336 663.823303,526.286255 671.403809,530.924377 
	C667.204407,536.395203 660.143677,535.403320 655.869995,539.781067 
	C657.278015,543.993530 660.682983,544.661011 664.478027,544.611450 
	C668.036133,544.564941 670.433655,541.108215 674.068970,541.077393 
	C674.401978,546.177429 669.832886,549.926331 663.045715,550.345520 
	C652.782959,550.979248 643.286133,543.829590 642.676147,534.603760 
z"/>
<path fill="#000000" opacity="1.000000" stroke="none" 
	d="
M611.201355,543.642029 
	C614.403748,545.479980 617.296265,547.102905 620.144714,548.799744 
	C621.794983,549.782837 624.052917,550.390564 623.727112,552.986877 
	C623.411987,555.497681 621.896667,557.253052 619.591248,558.182373 
	C614.906006,560.071167 609.982544,560.581055 604.968140,560.491699 
	C591.940491,560.259460 591.466431,559.548096 596.860596,548.174805 
	C600.910156,539.636536 602.750305,539.017090 611.201355,543.642029 
M608.952087,549.538513 
	C602.735901,546.611694 601.207336,547.403381 600.218262,554.062073 
	C605.349243,555.585632 609.906799,555.071594 612.996033,552.608765 
	C612.340393,551.090454 610.815857,550.657593 608.952087,549.538513 
z"/>
<path fill="#000000" opacity="1.000000" stroke="none" 
	d="
M612.380737,629.062256 
	C605.749146,628.183655 602.668884,622.367615 597.491882,619.815735 
	C595.911499,619.036682 596.000916,616.582886 597.529846,615.511902 
	C600.733154,613.268066 601.921692,609.854370 603.646240,606.667358 
	C605.632935,602.996033 607.610107,602.885620 609.652710,606.266541 
	C610.864380,608.272034 612.285339,609.444946 614.620728,609.898926 
	C616.303772,610.226196 618.578308,610.479370 618.862793,612.709290 
	C619.133057,614.828064 616.897095,615.042175 615.587463,615.915894 
	C614.923218,616.358948 614.285034,616.841064 613.660583,617.287354 
	C614.015930,621.417725 621.263977,621.960205 618.538208,627.144531 
	C617.412109,629.286499 615.034424,629.407410 612.380737,629.062256 
z"/>
<path fill="#000000" opacity="1.000000" stroke="none" 
	d="
M651.497803,594.482544 
	C650.974487,592.670471 650.489929,591.295044 649.392029,590.156982 
	C648.105103,588.822937 647.621460,587.244690 649.175415,585.774414 
	C650.752319,584.282410 652.693848,584.313538 654.129944,585.720032 
	C655.989258,587.541077 657.476562,589.742004 659.206055,591.880798 
	C661.095337,590.875916 661.751465,587.515442 664.793518,588.912231 
	C667.205872,590.019958 667.151123,592.211853 667.372009,594.408508 
	C667.818848,598.853821 670.908875,598.260681 673.628052,597.119324 
	C676.549927,595.892761 677.966736,593.190491 678.915833,590.205811 
	C679.441833,588.551636 679.999695,586.199768 682.526855,587.234680 
	C684.554138,588.064880 684.462646,590.140808 684.033630,592.023987 
	C682.239380,599.898804 675.553528,605.189453 667.551880,604.260132 
	C661.039307,603.503784 655.951660,599.627197 651.497803,594.482544 
z"/>
<path fill="#000000" opacity="1.000000" stroke="none" 
	d="
M728.273071,578.241272 
	C730.884766,576.265015 733.102722,571.862122 736.215454,575.054382 
	C739.324890,578.243103 735.479126,581.123901 733.281799,583.349365 
	C726.930664,589.781494 714.523254,592.406738 707.339233,589.125305 
	C702.651367,586.984070 699.883240,580.997131 701.351562,576.171753 
	C701.727051,574.937927 703.203796,573.588013 703.727722,574.225159 
	C707.059875,578.277100 712.026245,571.418701 714.955811,576.069275 
	C715.667114,577.198486 714.559082,578.231445 713.793823,579.119812 
	C712.836487,580.231201 711.299805,581.349243 712.304749,582.953125 
	C713.395020,584.693237 715.296387,584.783875 717.228577,584.328735 
	C721.358093,583.355957 725.164124,581.818237 728.273071,578.241272 
z"/>
<path fill="#000000" opacity="1.000000" stroke="none" 
	d="
M649.322754,487.160339 
	C650.629944,487.478485 651.611145,487.639984 652.583801,487.841980 
	C654.631592,488.267303 657.411865,488.066528 657.490784,490.965698 
	C657.564880,493.684967 654.826721,494.104156 652.870422,494.734009 
	C644.536011,497.417236 634.282471,490.488647 633.652161,481.855682 
	C633.615906,481.359131 633.622681,480.858948 633.574280,480.363861 
	C633.350708,478.077087 631.263550,475.396088 634.600525,473.800903 
	C637.586731,472.373413 639.049866,474.279755 640.419495,476.680786 
	C641.327087,478.271973 643.070984,477.604340 644.503845,477.197388 
	C646.468811,476.639282 648.440857,476.505371 650.390503,477.140137 
	C651.839355,477.611755 653.211304,478.270721 653.342896,480.096436 
	C653.461182,481.737091 652.067139,482.196106 651.132019,483.100189 
	C650.065247,484.131561 645.760925,483.624176 649.322754,487.160339 
z"/>
<path fill="#000000" opacity="1.000000" stroke="none" 
	d="
M833.782898,204.198730 
	C830.081665,199.863205 827.330688,195.352600 825.033020,190.539459 
	C824.082825,188.549072 823.603333,186.506805 823.562256,184.313354 
	C823.519714,182.042084 823.720459,179.857788 826.245361,179.018738 
	C828.663208,178.215240 830.383972,179.558014 831.787964,181.353409 
	C836.972778,187.983704 840.107788,195.630966 842.720520,203.530487 
	C843.257751,205.154572 843.656921,206.874161 841.932983,208.024139 
	C840.334778,209.090240 838.738098,208.576462 837.354187,207.441772 
	C836.203430,206.498260 835.125244,205.466217 833.782898,204.198730 
z"/>
<path fill="#000000" opacity="1.000000" stroke="none" 
	d="
M781.152344,494.970764 
	C783.274719,497.355957 785.649048,496.704498 787.905151,496.337067 
	C790.006897,495.994720 792.072998,495.280579 794.543396,496.421295 
	C794.364197,500.021149 788.404663,501.224945 790.947205,505.496948 
	C790.165466,505.843353 789.677612,506.275421 789.285706,506.201141 
	C782.412720,504.898773 775.959656,505.841858 769.634094,508.968781 
	C767.451294,510.047760 764.338501,509.821991 763.426758,506.714142 
	C762.503418,503.566803 765.573914,503.045929 767.505615,502.054626 
	C769.679138,500.939178 772.268127,500.670654 773.966797,499.228516 
	C775.219849,496.267700 769.572327,493.964935 773.507446,491.557831 
	C776.862610,489.505432 778.940491,492.405457 781.152344,494.970764 
z"/>
<path fill="#000000" opacity="1.000000" stroke="none" 
	d="
M614.572388,501.457520 
	C606.221558,509.251129 598.118042,507.753082 593.833191,497.849213 
	C592.670166,495.160980 591.471313,492.824127 588.341248,491.957703 
	C586.898010,491.558167 585.619080,490.466705 586.032104,488.626953 
	C586.455078,486.742279 588.087463,486.725128 589.591553,486.650696 
	C595.481934,486.359253 599.181702,489.510590 601.856079,494.376434 
	C603.863098,498.028076 606.424377,499.476929 610.267822,496.505157 
	C611.936523,495.214905 613.707825,492.323578 616.129944,494.626526 
	C618.597900,496.973145 615.982361,499.105469 614.572388,501.457520 
z"/>
<path fill="#000000" opacity="1.000000" stroke="none" 
	d="
M691.667969,473.972778 
	C692.553772,470.167786 695.610718,468.765778 698.000610,466.797760 
	C699.123596,465.873016 700.552246,465.860077 701.577209,467.089325 
	C702.502686,468.199341 701.920349,469.374603 701.158386,470.262787 
	C697.727295,474.262024 694.164490,478.040894 691.572571,482.811768 
	C689.536865,486.558777 683.026550,486.406036 678.442505,483.368408 
	C674.035400,480.447998 671.477295,475.822937 668.164734,471.905365 
	C666.912476,470.424377 667.417603,468.706055 669.053589,467.598938 
	C671.128357,466.194916 673.269836,466.277649 674.843445,468.256134 
	C676.491211,470.327820 677.622192,472.814056 679.292542,474.863586 
	C682.703430,479.048737 689.109863,478.701721 691.667969,473.972778 
z"/>
<path fill="#000000" opacity="1.000000" stroke="none" 
	d="
M803.996765,539.978088 
	C805.351379,537.796021 807.335571,536.789185 808.487366,538.850586 
	C810.048950,541.645264 812.368896,542.646179 815.005432,543.705322 
	C817.941467,544.884705 817.777100,546.569031 815.448364,548.443542 
	C813.862122,549.720337 810.546021,549.699829 810.914734,552.354126 
	C811.320618,555.275757 814.367615,555.455933 816.832703,555.886597 
	C817.831787,556.061279 818.716370,556.505615 819.097351,557.976379 
	C816.422546,561.703674 812.411804,560.748779 808.911499,560.019104 
	C803.398315,558.869873 800.486389,554.493408 798.221985,549.728027 
	C797.344543,547.881348 798.089050,546.505798 799.918579,545.741577 
	C802.341431,544.729614 803.206848,542.624023 803.996765,539.978088 
z"/>
<path fill="#000000" opacity="1.000000" stroke="none" 
	d="
M656.455627,664.380005 
	C658.345581,667.179749 657.294373,668.335388 654.610840,668.495483 
	C652.535095,668.619263 650.705322,667.683655 648.959351,666.733093 
	C646.156311,665.206909 643.435120,663.667725 640.023987,664.623840 
	C638.895752,664.940186 637.632263,664.759521 636.954163,663.560730 
	C636.243408,662.304260 636.970642,661.302368 637.818298,660.466309 
	C639.073120,659.228638 639.431824,657.733643 639.764343,656.036438 
	C640.773926,650.882446 642.878479,650.296875 646.815125,653.857300 
	C654.352112,650.555176 656.244202,650.745239 659.873474,655.207886 
	C658.777283,658.657288 654.374817,657.984802 652.725891,660.740417 
	C653.075195,662.815796 655.230835,662.869507 656.455627,664.380005 
z"/>
<path fill="#000000" opacity="1.000000" stroke="none" 
	d="
M979.989258,358.225647 
	C978.222900,358.296661 976.878113,358.119568 975.803650,357.272614 
	C974.911133,356.569092 974.040833,355.740143 973.432556,354.792267 
	C971.854187,352.332611 972.580261,350.374054 975.078491,349.043884 
	C979.415039,346.734924 987.200134,348.116486 988.613831,351.499634 
	C989.995544,354.806335 987.532776,355.976532 985.189636,356.943665 
	C983.676697,357.568085 982.001221,357.798523 979.989258,358.225647 
z"/>
<path fill="#000000" opacity="1.000000" stroke="none" 
	d="
M724.952209,658.755676 
	C724.776978,655.292236 725.963501,652.981201 729.261536,653.095581 
	C731.985901,653.190063 734.436829,654.570984 735.116821,657.538818 
	C735.731506,660.221619 734.184692,662.015991 731.801147,662.859131 
	C728.302368,664.096741 726.122986,662.516724 724.952209,658.755676 
z"/>
<path fill="#000000" opacity="1.000000" stroke="none" 
	d="
M782.316406,636.146362 
	C787.910034,636.490540 790.146057,638.800110 788.492310,642.041748 
	C787.607788,643.775513 786.125732,644.890686 784.162537,645.024658 
	C782.289001,645.152588 780.986755,644.069031 780.289490,642.412292 
	C779.273193,639.997437 779.585815,637.851074 782.316406,636.146362 
z"/>
<path fill="#000000" opacity="1.000000" stroke="none" 
	d="
M874.369385,613.906494 
	C875.814331,616.713501 875.494568,618.801147 872.763916,619.905823 
	C870.533569,620.808167 868.482483,620.282715 867.121826,618.198730 
	C866.030334,616.527039 865.879578,614.720642 867.494568,613.256104 
	C869.757690,611.203674 871.997253,611.710205 874.369385,613.906494 
z"/>
<path fill="#000000" opacity="1.000000" stroke="none" 
	d="
M687.026367,671.199097 
	C688.059570,668.141602 689.790161,666.591370 692.735657,667.584290 
	C694.972961,668.338623 695.518127,670.307617 695.124268,672.428284 
	C694.690186,674.765381 693.256592,676.412598 690.768494,676.351868 
	C687.812195,676.279785 687.066589,674.093689 687.026367,671.199097 
z"/>
<path fill="#000000" opacity="1.000000" stroke="none" 
	d="
M839.983032,623.709167 
	C839.249634,624.813354 838.735474,625.792908 837.932251,626.194519 
	C835.475464,627.423340 833.389221,626.627991 831.946045,624.407349 
	C830.846313,622.715332 830.677246,620.798645 832.550659,619.578918 
	C834.914185,618.040100 837.325623,618.291687 839.149536,620.594116 
	C839.710144,621.301758 839.777100,622.400513 839.983032,623.709167 
z"/>
<path fill="#000000" opacity="1.000000" stroke="none" 
	d="
M236.926178,400.999146 
	C231.270081,391.515900 229.678726,391.439545 223.512329,400.074738 
	C220.318512,404.547302 217.286575,409.145111 213.915802,413.479736 
	C206.280258,423.298615 195.553802,423.412659 187.081604,414.109406 
	C184.336624,411.095123 183.240265,406.706940 179.181259,404.504578 
	C175.533829,407.677185 174.035049,411.962860 172.269348,416.018768 
	C170.409973,420.289825 168.934753,424.726624 167.159973,429.036804 
	C166.480865,430.686127 165.640106,432.946167 163.387604,432.255524 
	C160.802521,431.462830 161.503983,428.914124 162.041092,427.114105 
	C163.277237,422.971497 164.605194,418.820068 166.351562,414.873901 
	C169.383087,408.023743 172.596069,401.241730 176.037155,394.588440 
	C179.452881,387.984192 183.991806,387.874207 187.900070,394.084259 
	C190.292877,397.886322 192.306549,401.960236 194.987167,405.540131 
	C198.948578,410.830414 203.057693,411.010773 207.391251,406.044342 
	C210.440521,402.549713 212.959457,398.575134 215.556686,394.708405 
	C217.795395,391.375427 220.163025,388.161072 223.060394,385.385162 
	C229.750824,378.975372 236.783569,379.841370 241.825836,387.692780 
	C243.620972,390.488007 244.966843,393.560669 247.369019,395.970245 
	C251.658432,400.272827 255.607132,400.887695 260.875763,397.932068 
	C265.191498,395.511047 268.376831,391.888306 271.322235,388.030426 
	C273.955109,384.581879 276.581940,381.118225 280.009705,378.413452 
	C286.044403,373.651703 292.944611,374.747681 297.274200,381.070496 
	C298.121368,382.307678 298.898712,383.593018 299.756165,384.822723 
	C303.474976,390.156189 306.720459,390.888153 312.500977,387.676086 
	C314.247375,386.705688 315.899780,385.559418 317.674835,384.648895 
	C320.035522,383.437958 322.547150,382.831116 324.401794,385.380890 
	C326.088013,387.699127 324.959869,389.836975 323.279877,391.669037 
	C311.985565,403.985809 296.225342,402.522797 289.293701,390.735840 
	C287.118805,387.037537 284.983765,387.165710 282.461243,390.232971 
	C280.135223,393.061279 277.823914,395.902496 275.450104,398.690338 
	C273.725494,400.715668 272.044067,402.806396 270.112061,404.621765 
	C259.221191,414.854706 245.886185,413.481506 236.926178,400.999146 
z"/>
<path fill="#000000" opacity="1.000000" stroke="none" 
	d="
M342.170685,462.334686 
	C291.962097,470.526459 242.351929,479.892120 191.529724,483.437653 
	C192.030762,479.999329 194.306061,480.092560 196.049973,479.575958 
	C213.795120,474.319427 232.155273,472.097290 250.263916,468.635254 
	C282.245728,462.520905 314.273224,456.637726 346.499817,451.967682 
	C361.947540,449.729095 377.404816,447.351685 393.041443,446.689117 
	C394.536041,446.625732 396.047302,446.620605 397.533112,446.767639 
	C399.520294,446.964355 401.105713,447.905670 401.314331,450.068146 
	C401.520691,452.207062 399.846436,452.979553 398.183411,453.298706 
	C392.638458,454.363098 387.076904,455.353668 381.500671,456.240051 
	C368.541931,458.299866 355.570892,460.282288 342.170685,462.334686 
z"/>
<path fill="#000000" opacity="1.000000" stroke="none" 
	d="
M248.178207,662.292480 
	C246.358292,662.108643 244.720413,662.795959 243.639771,661.136108 
	C244.210495,658.440186 246.702484,658.360718 248.576920,657.641724 
	C267.008911,650.572021 286.351837,647.176147 305.663940,643.715332 
	C316.947601,641.693298 328.264160,639.824402 339.610291,638.195923 
	C344.001343,637.565674 348.704773,636.390808 352.939209,639.627136 
	C351.528809,642.346985 349.019318,642.501892 346.911621,643.172791 
	C332.611511,647.724182 317.865753,650.265442 303.123077,652.854553 
	C284.959503,656.044434 266.903564,659.852600 248.178207,662.292480 
z"/>
<path fill="#000000" opacity="1.000000" stroke="none" 
	d="
M444.599548,624.860046 
	C428.432434,628.268494 412.815155,632.277893 396.878296,634.724121 
	C390.975372,635.630127 385.074249,636.618286 379.135986,637.195312 
	C375.933533,637.506531 372.534241,637.410156 370.020447,634.596375 
	C379.977234,625.754578 449.110626,614.521057 458.141907,620.622925 
	C454.031189,623.534180 449.222229,623.309814 444.599548,624.860046 
z"/>
<path fill="#000000" opacity="1.000000" stroke="none" 
	d="
M427.708344,692.604553 
	C433.445740,691.272827 438.691315,689.545288 444.258881,689.710266 
	C446.476990,689.776001 448.908997,690.026428 449.429962,692.635254 
	C449.974121,695.360107 447.622498,696.366638 445.604858,697.111206 
	C434.621002,701.164307 423.208710,703.286011 411.579773,704.263428 
	C406.285187,704.708313 400.967773,704.898743 395.657532,705.131897 
	C393.518951,705.225830 391.366150,705.144104 388.704041,702.700867 
	C401.458893,697.059875 414.669922,695.891296 427.708344,692.604553 
z"/>
<path fill="#000000" opacity="1.000000" stroke="none" 
	d="
M328.858826,718.031494 
	C314.471100,724.604797 299.931641,728.003235 284.407593,725.397583 
	C282.980194,725.157959 281.337921,725.451965 280.510712,723.719482 
	C281.003784,722.163330 282.396423,721.907776 283.652191,721.833130 
	C296.763824,721.053833 309.037598,716.800781 321.394409,712.865845 
	C324.240723,711.959534 327.105652,711.004578 330.183929,711.471252 
	C331.850800,711.723999 333.772308,711.906677 334.165222,713.853699 
	C334.615448,716.084534 332.400360,716.318726 331.035645,717.098083 
	C330.461975,717.425659 329.814789,717.624451 328.858826,718.031494 
z"/>
<path fill="#000000" opacity="1.000000" stroke="none" 
	d="
M333.586548,528.317078 
	C339.089294,527.656860 344.169922,526.946594 348.832489,529.721191 
	C348.447144,532.203796 346.746735,532.177490 345.376312,532.496948 
	C332.111389,535.589233 318.974640,539.321777 305.405762,540.926086 
	C302.242889,541.300110 297.146149,542.767334 296.471802,539.324097 
	C295.628723,535.019043 301.169891,535.796631 303.993744,535.046997 
	C313.622650,532.490356 323.215454,529.679016 333.586548,528.317078 
z"/>
<path fill="#000000" opacity="1.000000" stroke="none" 
	d="
M396.029724,516.906128 
	C398.361725,516.774231 401.024109,514.713501 401.958466,517.792542 
	C402.730072,520.335266 400.160736,521.462769 398.289917,522.428284 
	C392.153320,525.595581 385.569122,527.096375 378.683228,526.907104 
	C376.821655,526.856018 374.635620,526.715942 372.868195,523.669006 
	C380.008057,519.612427 388.352448,519.848816 396.029724,516.906128 
z"/>
<path fill="#000000" opacity="1.000000" stroke="none" 
	d="
M253.491913,549.125488 
	C249.729752,547.402527 251.129120,545.569214 253.219376,544.347778 
	C259.249023,540.824524 265.960907,539.669678 272.841980,539.381226 
	C273.836884,539.339539 274.868988,539.721252 275.231110,540.837524 
	C275.578247,541.907715 275.090912,542.768616 274.310394,543.495850 
	C272.673676,545.020996 270.647858,545.744873 268.547394,546.325806 
	C263.736725,547.656250 258.903229,548.866821 253.491913,549.125488 
z"/>
<path fill="#000000" opacity="1.000000" stroke="none" 
	d="
M212.959351,551.739136 
	C219.288101,548.579346 225.620850,546.829590 232.341522,546.688171 
	C234.104187,546.651184 236.360809,546.347534 236.796829,548.741211 
	C237.167877,550.778320 235.216797,551.522888 233.716629,552.081909 
	C227.454910,554.415283 220.976227,555.653015 214.268753,555.339905 
	C211.818771,555.225586 210.733337,554.246460 212.959351,551.739136 
z"/>
<path fill="#000000" opacity="1.000000" stroke="none" 
	d="
M341.607605,382.531738 
	C344.423218,381.492004 345.549103,383.455078 346.612488,384.993286 
	C349.106049,388.600128 351.983215,390.757782 356.614838,389.069946 
	C357.919189,388.594635 359.338287,388.819458 359.918915,390.375153 
	C360.534271,392.023773 359.781128,393.395477 358.393158,394.162537 
	C354.177917,396.492157 349.654419,396.698517 345.684235,394.094757 
	C341.801575,391.548431 339.137299,387.932770 341.607605,382.531738 
z"/>
<path fill="#000000" opacity="1.000000" stroke="none" 
	d="
M483.678345,687.777100 
	C485.662598,687.619385 487.726227,687.114258 487.949310,689.475708 
	C488.164948,691.758301 486.502686,693.041626 484.424713,693.654236 
	C482.474854,694.229065 480.425323,693.872192 479.711700,692.008789 
	C478.523773,688.906799 481.581512,688.802002 483.678345,687.777100 
z"/>
<path fill="#000000" opacity="1.000000" stroke="none" 
	d="
M424.316895,516.986572 
	C428.138031,516.643555 428.558319,518.246582 426.565399,520.554016 
	C424.999725,522.366821 423.014954,524.019287 420.219086,522.400330 
	C419.907104,519.418518 422.188110,518.451172 424.316895,516.986572 
z"/>
</svg>