<svg version="1.1" id="Layer_1" xmlns="http://www.w3.org/2000/svg" xmlns:xlink="http://www.w3.org/1999/xlink" x="0px" y="0px"
	 width="100%" viewBox="0 0 1024 1024" enable-background="new 0 0 1024 1024" xml:space="preserve">
<path fill="none" opacity="1.000000" stroke="#000000" stroke-linecap="round" stroke-linejoin="round" stroke-width="15.000000"
	d="
M51.500000,872.000000 
	C52.996845,881.112305 52.917706,890.308289 53.013950,899.499878 
	C53.116978,909.339539 53.727764,919.183716 54.285572,928.983765 
	C54.672123,935.775024 55.618866,942.686951 56.327736,949.517883 
	C57.640148,962.164795 61.465405,962.138611 70.513847,962.814697 
	C75.836578,963.212402 78.515175,964.486389 80.755020,969.894348 
	C85.551498,981.475220 93.887306,990.604431 104.493202,997.510437 
	C108.642525,1000.212158 113.339973,1000.437012 118.000198,1000.460938 
	C136.499710,1000.555969 155.025589,1001.109192 173.492996,1000.333252 
	C192.996979,999.513855 212.508896,999.585693 231.994629,998.856445 
	C256.516907,997.938721 281.021362,998.587341 305.495300,999.190430 
	C349.167786,1000.266357 392.833679,999.995239 436.499634,999.869995 
	C454.659332,999.817932 472.847504,999.514038 490.994446,998.848267 
	C512.994263,998.041016 535.004822,997.818115 556.999695,996.991150 
	C584.658752,995.951294 612.336731,995.564575 639.998108,996.096985 
	C679.168030,996.850830 718.333923,996.411011 757.500000,996.411011 
	C778.666687,996.411072 799.840088,995.692261 820.998230,994.949341 
	C845.160828,994.100952 869.316467,993.228088 893.500427,993.453857 
	C895.924072,993.476501 898.213501,994.462585 900.497864,994.408875 
	C911.382874,994.153198 914.776672,988.186951 915.464783,978.997375 
	C916.561096,964.356384 917.125305,949.693115 917.027771,934.999817 
	C916.854065,908.822815 918.848938,882.689575 918.636536,856.498901 
	C918.564941,847.672546 918.617126,838.828796 918.676697,830.001221 
	C918.745483,819.791382 918.913574,809.628723 917.488159,799.501648 
	C916.933472,795.560486 918.877441,793.981079 922.472290,792.907288 
	C928.553040,791.091064 934.842957,790.655701 941.021973,789.632812 
	C947.850220,788.502502 949.975891,786.926331 950.494385,779.999573 
	C951.367371,768.335815 952.434814,756.692566 953.140076,745.008484 
	C954.246643,726.677856 955.001404,708.333374 955.978760,689.998840 
	C956.096252,687.795166 956.265320,685.523315 955.000000,683.500000 
"/>
<path fill="none" opacity="1.000000" stroke="#000000" stroke-linecap="round" stroke-linejoin="round" stroke-width="11.000000"
	d="
M863.500000,440.500000 
	C861.985535,428.365692 861.479126,416.219452 862.430725,403.994598 
	C862.843323,398.693390 862.455139,393.332886 862.508728,388.000092 
	C862.649536,373.999817 863.412415,359.976624 862.848267,346.006134 
	C862.195190,329.833160 862.855164,313.620209 861.829163,297.510895 
	C859.632019,263.015717 860.534912,228.502686 859.880615,194.002258 
	C859.302063,163.500366 859.208069,133.001160 858.852356,102.501724 
	C858.718262,91.003830 858.475708,79.496391 858.583801,68.000786 
	C858.671631,58.663582 859.586670,49.336880 859.968201,39.998703 
	C860.205933,34.181797 859.114502,33.338348 853.502502,32.962395 
	C842.843140,32.248314 832.123840,32.467487 821.497192,32.390614 
	C806.867249,32.284771 792.103210,32.063503 777.519958,33.245865 
	C763.657837,34.369747 749.829041,33.797295 735.994263,34.358486 
	C705.015564,35.615089 674.006165,36.107841 643.005554,36.762718 
	C628.173828,37.076035 613.282715,36.523075 598.513916,37.678230 
	C582.987732,38.892635 567.442383,37.402321 552.016418,38.696041 
	C538.147461,39.859180 524.332581,39.132404 510.499329,39.472492 
	C484.837616,40.103382 459.170532,40.391434 433.501678,40.659882 
	C420.837036,40.792324 408.166321,40.800049 395.499817,40.988571 
	C370.500397,41.360657 345.491669,41.383293 320.503448,42.117397 
	C307.661896,42.494648 294.833282,42.358292 281.999786,42.477928 
	C256.167145,42.718746 230.315125,42.287140 204.504898,43.147186 
	C176.335938,44.085827 148.174316,44.342476 120.000542,44.567493 
	C105.830788,44.680668 91.666306,45.490417 77.500580,46.015614 
	C76.162903,46.065205 74.833336,46.333336 73.500000,46.500004 
"/>
<path fill="none" opacity="1.000000" stroke="#000000" stroke-linecap="round" stroke-linejoin="round" stroke-width="10.000000"
	d="
M863.500061,796.000000 
	C863.333374,799.333313 862.900574,802.678345 863.046265,805.997986 
	C863.669617,820.194458 862.761902,834.386169 861.793823,848.485840 
	C860.031494,874.155029 860.030457,899.816895 860.001709,925.500000 
	C859.991150,934.901794 857.738464,937.231140 847.999084,937.462097 
	C844.838135,937.537048 841.665283,937.003296 838.500244,937.030273 
	C828.666260,937.114075 818.803467,936.904663 809.006042,937.586792 
	C786.690674,939.140320 764.352295,939.881958 742.001221,940.541077 
	C726.661560,940.993347 711.333374,941.834778 696.000000,942.499634 
	C669.172791,943.662964 642.347961,944.814575 615.505920,945.682922 
	C592.837952,946.416321 570.171936,947.612061 547.501587,948.538269 
	C531.168274,949.205627 514.833252,949.906128 498.506775,950.648621 
	C472.842957,951.815918 447.172852,952.657959 421.506073,953.655945 
	C403.172363,954.368835 384.857758,955.396484 366.500336,955.543274 
	C351.332001,955.664490 336.167267,956.199097 320.999786,956.489441 
	C309.500824,956.709534 297.986633,957.249146 286.503845,956.880554 
	C275.497253,956.527161 264.496643,956.395508 253.500763,956.553162 
	C230.998215,956.875916 208.499954,957.497925 186.000015,958.000854 
	C173.001572,958.291443 160.010574,958.668152 147.001862,958.760742 
	C128.002502,958.895874 108.952896,959.584351 89.998001,961.480042 
	C86.366798,961.843140 82.360458,960.480591 79.500000,964.000000 
"/>
<path fill="none" opacity="1.000000" stroke="#000000" stroke-linecap="round" stroke-linejoin="round" stroke-width="7.000000"
	d="
M888.500000,797.000000 
	C888.500000,816.833313 888.475159,836.666748 888.506165,856.500000 
	C888.547363,882.844055 886.686890,909.143921 886.780762,935.500793 
	C886.805420,942.429199 887.385864,949.536560 885.631592,956.533020 
	C884.590576,960.685120 882.052795,962.313477 878.490417,962.945862 
	C874.364929,963.678101 870.165466,964.422974 866.000244,964.410828 
	C857.639771,964.386414 849.316833,965.572998 841.002319,965.392456 
	C822.142395,964.983093 803.339478,966.408325 784.502808,966.687988 
	C767.008057,966.947632 749.497559,967.536438 732.005859,968.164001 
	C720.168518,968.588684 708.282715,968.244995 696.516296,969.200500 
	C684.152527,970.204590 671.821472,969.418457 659.502380,970.046448 
	C636.513489,971.218262 613.500183,971.420044 590.505676,972.173035 
	C566.838867,972.947998 543.164368,973.688599 519.506287,974.654114 
	C495.835632,975.620117 472.171356,975.688416 448.502502,976.133240 
	C437.173828,976.346130 425.843231,977.249817 414.500824,976.966492 
	C399.997406,976.604248 385.465454,975.115662 371.007050,975.680237 
	C338.833374,976.936584 306.662628,975.956726 274.501160,976.561523 
	C241.168671,977.188416 207.846405,978.087646 174.500107,978.117249 
	C155.666199,978.133972 136.815613,979.039124 118.010315,980.171387 
	C112.024017,980.531738 105.978165,980.676453 99.992279,981.439453 
	C97.785240,981.720764 95.966820,982.360352 94.500000,984.000000 
"/>
<path fill="none" opacity="1.000000" stroke="#000000" stroke-linecap="round" stroke-linejoin="round" stroke-width="5.000000"
	d="
M698.000000,784.000000 
	C711.572815,782.027893 724.901428,779.951721 737.629517,773.766479 
	C751.375977,767.086121 760.469299,757.113342 766.560120,743.526917 
	C771.436279,732.650024 774.649170,721.209290 773.775879,709.516724 
	C771.943787,684.985962 765.306824,662.522827 741.523560,649.457092 
	C734.261292,645.467407 726.412842,643.477905 718.503113,641.487671 
	C690.887329,634.539307 659.922058,652.328247 648.190308,674.600220 
	C644.182312,682.209290 641.851746,690.746399 640.346924,699.473633 
	C638.539368,709.956665 640.304260,719.953979 642.566589,729.984985 
	C643.398438,733.673157 643.393433,736.950684 641.000000,740.000000 
"/>
<path fill="none" opacity="1.000000" stroke="#000000" stroke-linecap="round" stroke-linejoin="round" stroke-width="8.000000"
	d="
M860.500000,60.500000 
	C862.166687,60.666664 863.831299,60.951931 865.500305,60.980400 
	C875.015503,61.142681 878.944153,64.316048 880.468445,73.505234 
	C881.304321,78.544083 881.626709,83.668442 883.485229,88.505676 
	C884.372192,90.814102 882.470398,92.761330 882.483887,95.000099 
	C882.582581,111.338654 881.861023,127.712845 883.618774,143.987167 
	C884.249390,149.825806 884.335083,155.697342 884.762390,161.517441 
	C886.435730,184.308105 886.537842,207.163589 885.032654,230.002151 
	C884.649109,235.821182 884.820007,241.675781 884.474365,247.498474 
	C882.664856,277.985016 883.770691,308.499542 883.537537,339.000275 
	C883.463684,348.665100 884.353943,358.359253 883.874573,367.993774 
	C883.203003,381.493744 884.333008,395.048370 882.532288,408.504333 
	C882.447571,409.137329 882.833374,409.833313 883.000000,410.500000 
"/>
<path fill="none" opacity="1.000000" stroke="#000000" stroke-linecap="round" stroke-linejoin="round" stroke-width="19.000000"
	d="
M896.000000,529.500000 
	C891.243286,527.850220 890.783081,523.436157 889.484192,519.505188 
	C884.546143,504.560760 880.622559,489.390839 881.563843,473.503784 
	C882.741577,453.625763 885.508850,433.945099 893.625732,415.555511 
	C897.070435,407.751190 902.121704,400.687347 907.546509,394.037933 
	C909.791504,391.286224 911.148315,388.148102 912.395264,384.959045 
	C912.746765,384.060272 913.403870,382.716431 912.513123,381.490448 
	C910.059021,378.112671 910.954285,374.183899 911.065491,370.501984 
	C911.377808,360.162964 912.341248,349.836548 912.437927,339.499420 
	C912.767029,304.334290 913.054810,269.165833 912.921936,234.000290 
	C912.833801,210.665405 912.200012,187.326797 911.438538,164.001999 
	C910.796326,144.330154 910.805847,124.641029 909.168335,104.985977 
	C908.405273,95.827751 903.397644,90.823128 893.492554,89.558189 
	C890.540710,89.181213 887.500000,89.500000 884.500000,89.500000 
"/>
<path fill="none" opacity="1.000000" stroke="#000000" stroke-linecap="round" stroke-linejoin="round" stroke-width="8.000000"
	d="
M700.500000,790.000000 
	C704.399048,794.078430 709.485779,792.695679 713.992249,792.386841 
	C742.534973,790.430908 766.034607,779.077332 781.966187,754.478088 
	C788.625793,744.195129 791.112732,732.504089 791.957153,720.497009 
	C794.080505,690.306335 783.254578,664.659180 763.434448,642.558777 
	C751.301086,629.029358 735.050232,623.801270 717.493835,622.588928 
	C699.854797,621.370728 683.195801,625.411926 668.028259,634.546936 
	C646.315247,647.624207 633.258240,666.798767 630.133667,692.016541 
	C628.382812,706.147583 627.544983,720.979248 634.326721,733.827515 
	C640.817017,746.123718 646.454529,759.451599 657.969849,768.538208 
	C659.554260,769.788513 661.236816,771.003540 661.639343,773.477295 
	C661.876526,774.934753 663.263184,776.477905 664.539001,777.448730 
	C671.940918,783.081299 680.102173,786.991089 689.496033,788.035706 
	C692.345276,788.352600 694.681946,787.214050 696.970215,785.946289 
	C698.085388,785.328430 698.103760,784.078064 697.250000,783.000000 
"/>
<path fill="none" opacity="1.000000" stroke="#000000" stroke-linecap="round" stroke-linejoin="round" stroke-width="11.000000"
	d="
M522.000000,788.000000 
	C513.827637,782.675415 506.506256,776.127197 497.532806,771.929871 
	C486.030365,766.549683 474.106384,763.131531 461.519653,761.360291 
	C452.785187,760.130981 444.159271,761.292236 435.502350,760.942017 
	C424.039642,760.478394 414.122253,765.356384 404.037506,769.589355 
	C400.613495,771.026611 398.000244,773.746826 400.547241,777.971558 
	C401.458221,779.482605 400.964203,780.984619 400.415009,781.951721 
	C393.489471,794.147949 385.913605,805.866150 374.489532,814.486084 
	C373.904449,814.927551 373.107513,815.539673 372.508789,815.444641 
	C361.291351,813.665894 352.271576,820.323792 342.575287,823.715271 
	C316.652893,832.781921 290.477295,841.181030 264.999451,851.498657 
	C262.503754,852.509277 260.014771,853.539246 257.495300,854.487488 
	C255.518814,855.231445 253.498459,855.185974 251.500244,854.499329 
	C233.800751,848.417175 215.406219,844.847717 197.485840,839.547852 
	C182.054047,834.983948 166.556351,830.616577 150.982529,826.567200 
	C138.036499,823.201050 125.279823,819.073669 112.022697,816.863831 
	C109.065239,816.370911 105.482445,814.740479 104.618050,811.468811 
	C102.421394,803.154785 98.015839,794.850098 102.587616,786.045471 
	C103.360710,784.556580 102.653854,783.585205 102.437508,782.512634 
	C100.274216,771.787231 107.670097,762.500000 118.500000,762.500000 
	C121.833336,762.500000 125.167694,762.552795 128.499771,762.487915 
	C133.807495,762.384705 138.737137,763.176514 143.559402,765.894592 
	C150.906723,770.036072 159.554337,770.162537 167.559128,772.276062 
	C190.850464,778.425659 214.279999,784.143738 238.005234,788.471313 
	C243.636551,789.498413 249.369019,789.982300 254.986511,791.069702 
	C258.314423,791.713867 261.198273,790.360229 263.959137,789.384399 
	C288.862335,780.582031 313.666656,771.500000 338.500000,762.500000 
"/>
<path fill="none" opacity="1.000000" stroke="#000000" stroke-linecap="round" stroke-linejoin="round" stroke-width="7.000000"
	d="
M402.000000,740.000000 
	C402.774078,732.286194 405.159515,725.486938 412.537689,721.597229 
	C410.612000,716.629272 407.709869,715.311951 401.994354,716.214233 
	C394.391449,717.414368 387.660217,721.086548 380.534607,723.598206 
	C363.427673,729.628113 346.629791,736.547546 329.464722,742.396484 
	C311.045776,748.672852 293.111176,756.263123 274.532074,762.102051 
	C268.364380,764.040466 262.172119,766.079102 256.431549,769.380981 
	C252.342621,771.732849 247.490845,770.951172 243.008011,769.963623 
	C228.831879,766.840759 214.606857,763.927856 200.437347,760.782227 
	C188.281479,758.083801 176.155823,755.215271 163.983826,752.574585 
	C161.596191,752.056580 159.000000,752.500000 156.500000,752.500000 
"/>
<path fill="none" opacity="1.000000" stroke="#000000" stroke-linecap="round" stroke-linejoin="round" stroke-width="6.000000"
	d="
M372.500000,816.000000 
	C373.360077,822.311584 369.266327,826.411987 366.046082,831.032104 
	C356.583374,844.608643 347.326599,858.328735 338.010529,872.007141 
	C337.081055,873.371887 336.388153,874.794556 335.909363,876.474182 
	C334.042145,883.024170 334.993347,884.598572 341.496582,883.965027 
	C352.481415,882.894836 363.435730,881.332397 374.499542,881.526672 
	C395.676880,881.898376 416.829102,882.777283 437.488861,888.043701 
	C446.023407,890.219238 454.323669,893.200684 462.505951,896.485168 
	C464.757721,897.389099 466.744537,898.955261 467.378601,901.036987 
	C468.678162,905.303345 472.264648,906.610840 475.502930,908.494995 
	C476.985779,909.357727 479.268463,909.805237 479.861145,911.065308 
	C481.944733,915.494934 485.377930,914.771118 488.452789,913.394531 
	C492.924438,911.392517 496.808563,909.918640 502.097046,911.714172 
	C506.281372,913.134827 511.348541,912.244873 515.997253,911.956238 
	C533.386169,910.876465 550.688293,911.776672 568.008240,913.413086 
	C576.794556,914.243286 585.672424,914.059753 594.498352,914.531250 
	C602.672852,914.967896 610.826111,915.838806 619.002869,916.181152 
	C623.438599,916.366882 625.289001,920.603333 629.000000,921.750000 
"/>
<path fill="none" opacity="1.000000" stroke="#000000" stroke-linecap="round" stroke-linejoin="round" stroke-width="10.000000"
	d="
M884.500000,629.000000 
	C880.075745,634.890930 873.347290,633.741150 867.497314,633.838928 
	C851.302917,634.109680 835.145020,634.794067 818.998291,635.977051 
	C816.998535,636.123535 814.954956,636.206970 813.073120,635.465088 
	C803.992615,640.812195 805.914917,649.573792 806.682739,657.482239 
	C807.265808,663.488037 808.485657,669.507446 807.886902,675.488708 
	C806.963074,684.718018 814.936646,687.597839 821.988342,685.950195 
	C827.640076,684.629639 833.380554,684.567078 838.989441,685.109375 
	C857.000549,686.850708 875.004578,685.451111 892.999451,685.374390 
	C909.002014,685.306152 925.047241,684.687256 940.976562,683.241760 
	C947.280029,682.669739 953.847534,683.637268 960.034180,681.082825 
	C963.238281,679.759827 964.790161,677.984009 964.519592,674.498474 
	C963.795471,665.169617 963.196350,655.831055 962.481995,646.501404 
	C962.264404,643.659241 962.096985,640.770813 961.443054,638.013550 
	C960.223694,632.872681 958.284424,631.459106 953.000183,631.515137 
	C941.999634,631.631714 930.996521,632.070251 920.001343,631.907776 
	C913.776550,631.815796 907.682007,630.453064 901.428589,632.810547 
	C898.613464,633.871887 895.056274,633.166138 891.977417,631.542847 
	C886.151855,628.471497 885.363098,626.844177 886.460999,620.493225 
	C887.677307,613.457092 887.141968,606.435120 885.482727,599.504150 
	C885.276001,598.640442 885.077087,597.505676 884.463440,597.049255 
	C875.664429,590.504517 875.823914,580.129333 873.658997,570.962463 
	C871.503723,561.836487 869.474609,552.734314 866.060364,543.976501 
	C865.661316,542.952881 864.712463,541.981995 865.453125,540.476929 
	C869.447754,532.359070 867.110535,524.054138 865.335327,516.036438 
	C863.973755,509.886658 863.057495,503.237274 858.000000,498.500000 
	C857.087097,488.131897 850.786377,480.286957 845.477783,472.014282 
	C834.449951,454.829010 820.052002,441.321716 801.477173,432.548309 
	C799.312012,431.525665 796.866882,430.773621 794.493958,430.570862 
	C786.067078,429.850891 780.214661,437.359741 782.063538,446.987793 
	C785.039490,462.485748 791.065430,476.579620 800.247437,489.677063 
	C805.618286,497.338287 811.113281,504.845001 817.652100,511.347015 
	C823.782959,517.443237 829.327026,524.687012 838.466675,527.124878 
	C840.199097,527.586975 841.471863,529.700012 843.004944,530.994141 
	C849.286316,536.296692 855.536865,541.678528 864.500000,541.500000 
"/>
<path fill="none" opacity="1.000000" stroke="#000000" stroke-linecap="round" stroke-linejoin="round" stroke-width="8.000000"
	d="
M323.500000,657.500000 
	C316.692932,656.999817 310.696808,659.965088 304.506897,662.020813 
	C290.001648,666.838196 275.413086,671.384644 260.960510,676.385864 
	C229.576248,687.246094 198.075256,697.762756 166.977371,709.439697 
	C164.560272,710.347290 162.326355,711.749878 161.149445,713.595337 
	C158.983185,716.991943 156.528336,717.504761 152.979187,716.579834 
	C151.426773,716.175354 149.568008,715.846680 148.000000,717.000000 
"/>
<path fill="none" opacity="1.000000" stroke="#000000" stroke-linecap="round" stroke-linejoin="round" stroke-width="10.000000"
	d="
M614.500000,735.500000 
	C594.976196,735.470764 575.472961,736.041565 555.999634,737.495361 
	C555.502441,737.532532 554.999817,737.491699 554.500000,737.501160 
	C537.000000,737.833069 519.500854,738.224182 501.999756,738.483337 
	C485.500916,738.727722 469.000000,738.833313 452.500000,739.000000 
"/>
<path fill="none" opacity="1.000000" stroke="#000000" stroke-linecap="round" stroke-linejoin="round" stroke-width="8.000000"
	d="
M393.500000,678.000000 
	C391.163696,680.704163 388.488678,682.871216 385.005615,684.017090 
	C358.845184,692.624207 333.298126,702.905029 307.506622,712.517700 
	C287.929443,719.814331 267.989105,726.176270 249.015228,735.032654 
	C247.068466,735.941345 245.180038,735.465820 243.524414,734.925232 
	C230.957138,730.821411 217.804901,729.465149 204.993988,726.526184 
	C195.691422,724.392090 186.398834,722.057068 176.975800,720.663696 
	C171.189529,719.808105 165.436768,719.565186 160.500000,716.000000 
"/>
<path fill="none" opacity="1.000000" stroke="#000000" stroke-linecap="round" stroke-linejoin="round" stroke-width="10.000000"
	d="
M818.500000,687.500000 
	C819.834473,703.846924 823.664185,719.807739 826.156921,735.975830 
	C828.526855,751.347412 831.598755,766.665955 836.543274,781.485535 
	C838.580627,787.591919 842.772400,791.614685 849.502747,791.944397 
	C854.068237,792.168030 858.422974,792.867493 862.510071,794.980530 
	C863.104065,795.287720 863.944153,795.644775 864.483337,795.453003 
	C872.239441,792.694458 879.891846,794.185547 887.482544,796.070190 
	C889.382324,796.541809 890.380066,795.004883 891.998840,794.959412 
	C900.383972,794.724121 908.854309,792.872742 917.000000,796.500000 
"/>
<path fill="none" opacity="1.000000" stroke="#000000" stroke-linecap="round" stroke-linejoin="round" stroke-width="9.000000"
	d="
M913.000000,594.000000 
	C917.561768,592.579346 921.808105,590.252563 927.028015,591.369141 
	C930.820923,592.180481 934.519043,589.718628 937.387512,587.829224 
	C953.379456,577.295105 967.727661,565.134949 975.086060,546.534058 
	C977.538208,540.335266 978.937744,534.075317 978.967834,527.499878 
	C979.003723,519.655640 973.875549,515.702454 967.080933,519.159058 
	C958.950867,523.295044 950.343872,527.593872 947.632996,537.536255 
	C947.136902,539.355652 945.751282,539.816650 944.896179,540.919495 
	C933.515869,555.597778 926.223389,572.175171 921.500000,590.000000 
"/>
<path fill="none" opacity="1.000000" stroke="#000000" stroke-linecap="round" stroke-linejoin="round" stroke-width="11.000000"
	d="
M911.000000,630.000000 
	C911.787048,623.850098 911.568604,617.675903 911.533691,611.499817 
	C911.513000,607.834045 911.502625,604.175598 911.877075,600.487549 
	C912.235413,596.958435 912.695312,593.432190 910.170288,589.878967 
	C907.586975,586.243713 908.833862,581.291138 908.672913,576.993530 
	C908.386292,569.338684 910.081116,561.719788 910.150269,554.001343 
	C910.173828,551.376526 910.592957,548.648376 910.445312,546.003052 
	C909.998718,537.999023 912.919189,531.680054 918.963318,526.457581 
	C925.208191,521.061707 931.685913,515.879089 936.556152,509.039978 
	C938.013062,506.994080 939.497925,505.093414 938.951233,502.510315 
	C938.567505,500.697449 939.859009,499.746857 940.531799,498.517395 
	C944.652283,490.988342 949.227051,483.739197 948.676270,474.489502 
	C948.521606,471.891602 950.878540,469.242584 951.431458,466.486267 
	C953.353760,456.903870 952.975891,447.233673 952.675476,437.494598 
	C952.398315,428.511505 951.783142,419.659485 949.447083,411.014313 
	C947.254333,402.899628 944.172485,395.009155 940.354004,387.574982 
	C936.667725,380.398315 932.572449,379.141510 924.540955,381.162750 
	C920.823730,382.098236 917.229919,382.463989 913.500000,382.500000 
"/>
<path fill="none" opacity="1.000000" stroke="#000000" stroke-linecap="round" stroke-linejoin="round" stroke-width="5.000000"
	d="
M129.500000,784.000000 
	C147.243423,787.753845 164.527512,793.236023 181.986145,798.050232 
	C198.051407,802.480286 213.991745,807.362000 230.005325,811.981506 
	C234.470322,813.269531 239.000000,814.333313 243.500000,815.500000 
"/>
<path fill="none" opacity="1.000000" stroke="#000000" stroke-linecap="round" stroke-linejoin="round" stroke-width="8.000000"
	d="
M625.500000,819.500000 
	C631.466736,818.696716 635.740906,822.879028 640.411499,825.179688 
	C665.292114,837.435059 689.986938,850.084839 713.986328,864.023621 
	C718.581726,866.692627 723.085999,869.540283 727.479797,872.529663 
	C734.058655,877.005615 735.007080,881.267334 730.389099,887.416748 
	C728.810913,889.518433 728.862244,892.000549 727.500000,894.000000 
"/>
<path fill="none" opacity="1.000000" stroke="#000000" stroke-linecap="round" stroke-linejoin="round" stroke-width="10.000000"
	d="
M629.500000,774.000000 
	C626.020020,775.132935 622.658752,773.432922 619.553284,772.755676 
	C606.958069,770.008850 594.213013,768.447815 581.521118,769.711914 
	C566.180481,771.239685 550.646301,772.663757 536.447388,779.896729 
	C532.799622,781.754883 529.604614,784.382507 525.560547,785.687622 
	C523.489197,786.356079 522.031738,788.791260 521.435852,791.485840 
	C517.843628,807.729797 510.675446,822.778076 505.396881,838.465332 
	C499.513489,855.950012 492.293030,872.997131 486.773560,890.585815 
	C484.651001,897.349854 482.437225,903.860474 479.000000,910.000000 
"/>
<path fill="none" opacity="1.000000" stroke="#000000" stroke-linecap="round" stroke-linejoin="round" stroke-width="7.000000"
	d="
M595.500000,891.500000 
	C589.500000,890.833374 583.430847,890.538391 577.511719,889.436890 
	C548.937561,884.119202 521.063477,885.884338 493.991608,896.979492 
	C491.459900,898.017151 488.812927,898.779968 486.000000,898.500000 
"/>
<path fill="none" opacity="1.000000" stroke="#000000" stroke-linecap="round" stroke-linejoin="round" stroke-width="13.000000"
	d="
M469.000000,905.000000 
	C460.557617,908.104797 452.006042,905.672913 443.500458,905.480347 
	C442.497192,905.457581 441.200043,904.676086 440.546356,905.075806 
	C433.923798,909.125305 426.454651,907.618652 419.495270,907.750793 
	C408.646912,907.956665 397.849060,909.049683 386.999939,909.030579 
	C373.288940,909.006409 359.663086,910.608948 345.995972,911.433350 
	C342.604675,911.637939 338.871582,912.475769 335.999969,909.500061 
	C334.963165,908.425659 333.652435,909.266174 332.500000,909.000000 
"/>
<path fill="none" opacity="1.000000" stroke="#000000" stroke-linecap="round" stroke-linejoin="round" stroke-width="6.000000"
	d="
M440.000000,905.000000 
	C438.163025,899.465698 433.583130,897.444397 428.491791,896.546448 
	C409.643890,893.222534 390.620300,891.603943 371.506866,892.628052 
	C362.492371,893.111084 353.194794,891.753113 344.500000,895.500000 
"/>
<path fill="none" opacity="1.000000" stroke="#000000" stroke-linecap="round" stroke-linejoin="round" stroke-width="8.000000"
	d="
M843.500000,582.000000 
	C844.004272,578.773254 843.078796,575.880554 840.970032,573.526855 
	C836.644470,568.698853 832.849426,563.286987 827.472412,559.539612 
	C817.198669,552.379578 807.438110,544.252197 794.510010,541.944031 
	C789.508972,541.051025 784.457825,540.513672 779.515076,541.122253 
	C772.475220,541.988831 770.062561,547.735779 773.010254,555.496094 
	C779.323792,572.117859 791.273376,583.440674 807.022705,590.952332 
	C815.886841,595.180115 825.234619,597.997864 834.989014,599.568237 
	C841.605896,600.633423 847.739380,600.004150 853.500000,596.500000 
"/>
<path fill="none" opacity="1.000000" stroke="#000000" stroke-linecap="round" stroke-linejoin="round" stroke-width="6.000000"
	d="
M580.500000,897.000000 
	C566.298645,896.516785 552.111694,896.685608 538.003662,898.528137 
	C526.424866,900.040405 514.874512,901.769897 503.495361,904.480530 
	C501.211853,905.024414 499.090759,905.666443 498.000000,908.000000 
"/>
<path fill="none" opacity="1.000000" stroke="#000000" stroke-linecap="round" stroke-linejoin="round" stroke-width="11.000000"
	d="
M94.500000,873.000000 
	C94.500000,871.000000 94.582542,868.995789 94.480293,867.001038 
	C94.333595,864.139221 94.376450,861.442993 97.496811,859.993164 
	C100.609131,858.546936 103.736191,857.749878 106.999306,859.501282 
	C113.584076,863.035339 116.783035,868.792419 117.459442,876.003784 
	C117.921028,880.924805 114.839249,885.209412 110.000000,887.000000 
	C105.689049,888.595093 99.614883,886.947021 96.994659,883.504089 
	C95.716629,881.824707 95.869514,879.870178 96.037926,878.003418 
	C96.347809,874.568604 95.370102,872.619751 91.503395,872.430542 
	C87.987350,872.258484 84.510895,871.399963 80.998100,871.017456 
	C66.326309,869.419861 51.893856,870.522034 37.458351,873.817566 
	C30.874168,875.320618 24.531273,877.038147 18.498682,879.997314 
	C12.246186,883.064392 11.440931,887.580017 17.551973,892.434570 
	C24.491112,897.946777 32.832733,900.340454 41.505878,901.454224 
	C44.970154,901.899109 48.500000,901.833374 52.000000,902.000061 
"/>
<path fill="none" opacity="1.000000" stroke="#000000" stroke-linecap="round" stroke-linejoin="round" stroke-width="5.000000"
	d="
M356.500000,783.000000 
	C345.005920,785.415527 334.373932,790.283447 323.477600,794.441284 
	C310.673798,799.326965 297.914978,804.402771 284.508392,807.535950 
	C282.780334,807.939819 281.166656,808.833313 279.500000,809.500000 
"/>
<path fill="none" opacity="1.000000" stroke="#000000" stroke-linecap="round" stroke-linejoin="round" stroke-width="6.000000"
	d="
M456.500000,861.000000 
	C441.522858,854.947876 425.943817,853.651794 409.997986,854.975586 
	C402.505920,855.597595 395.368439,853.936218 388.500000,851.000000 
"/>
<path fill="none" opacity="1.000000" stroke="#000000" stroke-linecap="round" stroke-linejoin="round" stroke-width="8.000000"
	d="
M651.500000,875.500000 
	C654.285156,875.518005 656.146057,876.292542 658.232056,878.807556 
	C660.953857,882.089233 664.934753,884.451355 668.933716,886.622131 
	C681.105042,893.229248 693.708313,898.668579 707.014099,902.450317 
	C709.414917,903.132690 712.121277,903.798828 714.470886,903.348145 
	C717.788818,902.711731 717.951111,898.917480 719.589111,896.383301 
	C714.081299,891.876770 707.514465,889.573975 701.039062,886.905273 
	C689.732178,882.245422 678.920715,876.277405 667.418030,872.233215 
	C658.533875,869.109497 651.721802,862.693054 643.055420,859.356079 
	C635.785583,856.556763 628.878235,852.720825 622.029785,848.945923 
	C612.712341,843.810425 604.580933,836.764587 595.026367,831.947754 
	C591.364685,830.101746 587.872437,827.845215 584.530334,825.457520 
	C579.702942,822.008606 579.473022,820.701599 582.008240,815.504028 
	C583.968750,811.484802 586.732605,807.866333 588.000000,803.500000 
"/>
<path fill="none" opacity="1.000000" stroke="#000000" stroke-linecap="round" stroke-linejoin="round" stroke-width="10.000000"
	d="
M62.000000,52.500000 
	C59.391743,62.690193 59.550232,73.088898 59.451511,83.499542 
	C59.306091,98.834656 58.757526,114.165703 58.562801,129.500793 
	C58.522991,132.635818 57.068890,133.076508 54.499454,133.030502 
	C46.203621,132.881927 37.967342,133.001999 29.970842,135.920105 
	C26.050280,137.350784 22.629097,139.350922 19.452684,141.626862 
	C19.900419,145.159744 21.248405,147.519653 23.940420,149.577927 
	C33.015533,156.516632 42.917068,160.922852 54.500000,161.000000 
"/>
<path fill="none" opacity="1.000000" stroke="#000000" stroke-linecap="round" stroke-linejoin="round" stroke-width="8.000000"
	d="
M911.500000,489.000000 
	C906.526978,491.560974 907.886841,497.091187 906.303345,501.119232 
	C904.877625,504.746033 903.617065,508.651459 902.494202,512.498291 
	C902.199097,513.509460 901.320801,514.665955 901.582275,515.473389 
	C903.433960,521.192200 899.700256,524.965576 896.876404,528.911560 
	C896.192688,529.867065 895.818420,530.710205 896.054749,531.483276 
	C898.419373,539.217773 893.978760,546.154236 893.635803,553.506348 
	C893.376770,559.058594 892.503479,564.500305 892.006165,570.000549 
	C891.478943,575.831421 890.992554,581.666077 890.502502,587.500183 
	C890.163269,591.538452 887.165588,594.025696 885.000000,597.000000 
"/>
<path fill="none" opacity="1.000000" stroke="#000000" stroke-linecap="round" stroke-linejoin="round" stroke-width="8.000000"
	d="
M111.500000,118.000000 
	C105.629539,122.830223 99.434898,120.031502 93.521477,118.421127 
	C81.675186,115.195099 69.721458,114.637657 57.497318,114.813812 
	C45.630795,114.984802 34.372608,116.932610 23.503119,121.507408 
	C21.647722,122.288315 19.669817,122.925858 18.027754,124.040878 
	C10.099668,129.424286 10.693736,136.009857 19.500000,141.500000 
"/>
<path fill="none" opacity="1.000000" stroke="#000000" stroke-linecap="round" stroke-linejoin="round" stroke-width="8.000000"
	d="
M48.500000,432.500000 
	C35.093124,433.342316 21.877502,435.066284 10.016777,442.028595 
	C2.724967,446.308868 2.931849,449.955383 8.908572,456.089081 
	C19.341885,466.796295 32.541748,469.438019 46.500000,470.500000 
"/>
<path fill="none" opacity="1.000000" stroke="#000000" stroke-linecap="round" stroke-linejoin="round" stroke-width="4.000000"
	d="
M422.500000,808.000000 
	C426.500000,808.666687 430.536224,810.054260 434.492737,809.855530 
	C443.785675,809.388733 452.431213,812.772644 461.478790,813.705566 
	C465.463226,814.116455 469.440338,814.997375 473.500000,814.993042 
	C476.213318,814.990112 478.923920,814.942078 481.500000,816.000000 
"/>
<path fill="none" opacity="1.000000" stroke="#000000" stroke-linecap="round" stroke-linejoin="round" stroke-width="9.000000"
	d="
M118.500000,364.250000 
	C103.665764,355.833405 87.997734,349.223206 70.982071,347.700287 
	C52.164368,346.016022 33.235069,346.110077 15.502298,354.504852 
	C13.818491,355.301971 12.028646,355.971619 10.525142,357.035522 
	C5.433891,360.638153 5.155361,364.854614 9.493204,369.506348 
	C11.340991,371.487823 13.644490,372.772766 16.000000,374.000000 
"/>
<path fill="none" opacity="1.000000" stroke="#000000" stroke-linecap="round" stroke-linejoin="round" stroke-width="8.000000"
	d="
M107.500000,283.000000 
	C113.488297,285.287109 119.794746,287.060974 123.020554,293.489685 
	C124.443176,296.324829 123.686501,300.525482 120.986649,302.481567 
	C114.709557,307.029449 109.369370,306.893585 104.011757,303.481537 
	C100.104790,300.993347 98.351974,294.073364 101.626358,290.619812 
	C107.983383,283.914886 106.912933,276.331665 105.750000,268.500000 
"/>
<path fill="none" opacity="1.000000" stroke="#000000" stroke-linecap="round" stroke-linejoin="round" stroke-width="9.000000"
	d="
M121.000000,538.500000 
	C117.519966,532.393372 111.121506,530.315796 105.801842,526.571228 
	C97.440933,520.685852 88.428001,520.859924 79.483322,519.620361 
	C69.539185,518.242249 59.484383,518.896362 49.500000,520.000000 
"/>
<path fill="none" opacity="1.000000" stroke="#000000" stroke-linecap="round" stroke-linejoin="round" stroke-width="4.000000"
	d="
M599.500000,875.500000 
	C597.333313,875.166687 595.154419,874.481506 593.001953,874.556580 
	C578.189087,875.073364 563.643433,872.432922 549.010498,870.899841 
	C547.100708,870.699768 545.333313,870.399780 543.500000,871.000000 
"/>
<path fill="none" opacity="1.000000" stroke="#000000" stroke-linecap="round" stroke-linejoin="round" stroke-width="8.000000"
	d="
M337.500000,659.000000 
	C353.333344,663.333313 369.306396,667.227234 384.937134,672.197693 
	C392.045593,674.458008 399.220001,678.189819 401.388031,686.529114 
	C402.181824,689.582458 405.429535,690.569092 406.000000,693.500000 
"/>
<path fill="none" opacity="1.000000" stroke="#000000" stroke-linecap="round" stroke-linejoin="round" stroke-width="8.000000"
	d="
M97.500000,617.000000 
	C90.878242,611.573853 82.719742,611.817566 74.996735,611.658386 
	C63.510532,611.421753 51.986488,610.155457 40.483704,612.417114 
	C30.953732,614.290833 21.401812,616.266907 12.564558,620.147034 
	C1.062567,625.197144 3.487798,630.003540 10.500000,635.000000 
"/>
<path fill="none" opacity="1.000000" stroke="#000000" stroke-linecap="round" stroke-linejoin="round" stroke-width="6.000000"
	d="
M707.500000,649.500000 
	C707.722351,661.666687 707.277527,673.844910 707.139893,685.995911 
	C707.048340,694.076050 709.450439,702.437988 705.715637,710.598694 
	C704.238708,713.825989 708.773560,715.058838 711.062317,715.810181 
	C713.863342,716.729919 716.582153,715.325073 717.492798,711.998047 
	C718.582092,708.017761 716.638977,705.169250 712.502869,704.482849 
	C711.151428,704.258545 709.833313,703.833313 708.500000,703.500000 
"/>
<path fill="none" opacity="1.000000" stroke="#000000" stroke-linecap="round" stroke-linejoin="round" stroke-width="9.000000"
	d="
M102.500000,279.000000 
	C93.396965,272.350128 82.773125,271.119110 71.998856,270.520630 
	C66.838852,270.234009 61.546227,269.403290 56.530712,270.194641 
	C50.363262,271.167786 44.207237,272.209442 38.010231,273.073395 
	C30.242750,274.156311 22.412409,275.463318 15.521789,279.536865 
	C5.284356,285.588989 7.146078,291.329712 14.952013,295.971466 
	C25.400454,290.862000 36.360886,288.823029 47.990765,288.296173 
	C62.043575,287.659485 75.809509,288.163635 89.527184,291.384216 
	C92.844337,292.163025 96.500000,291.500000 100.000000,291.500000 
"/>
<path fill="none" opacity="1.000000" stroke="#000000" stroke-linecap="round" stroke-linejoin="round" stroke-width="10.000000"
	d="
M10.000013,720.500000 
	C9.500013,720.000000 8.970734,719.525757 8.504573,718.995972 
	C3.883686,713.744751 4.327501,710.891357 10.506460,707.010315 
	C19.373814,701.440613 29.476931,699.613342 39.493629,697.470215 
	C48.459934,695.551819 57.492279,696.385681 66.499062,696.551208 
	C73.557144,696.680908 80.532280,697.871094 87.504456,698.971802 
	C91.646805,699.625732 95.837158,699.970642 99.998398,700.512268 
	C102.077591,700.782959 103.654015,699.968384 105.000000,698.500000 
"/>
<path fill="none" opacity="1.000000" stroke="#000000" stroke-linecap="round" stroke-linejoin="round" stroke-width="10.000000"
	d="
M101.500000,712.500000 
	C96.825653,715.138672 91.767052,714.145203 87.018585,713.384033 
	C75.515511,711.540283 63.967667,712.334717 52.507835,712.728271 
	C42.930077,713.057068 33.366951,714.941223 23.961384,717.349182 
	C20.457193,718.246277 17.115414,719.384583 14.649573,721.661926 
	C13.114826,723.079285 12.412032,723.145020 11.000000,722.250000 
"/>
<path fill="none" opacity="1.000000" stroke="#000000" stroke-linecap="round" stroke-linejoin="round" stroke-width="8.000000"
	d="
M101.000000,803.000000 
	C87.833336,802.833313 74.662163,802.380737 61.501385,802.587891 
	C50.405968,802.762512 39.351841,803.795349 28.478380,806.410095 
	C25.112236,807.219604 22.262798,808.422302 20.000000,811.000000 
"/>
<path fill="none" opacity="1.000000" stroke="#000000" stroke-linecap="round" stroke-linejoin="round" stroke-width="8.000000"
	d="
M48.000000,787.500000 
	C37.533169,788.779358 27.242720,790.899414 17.541931,795.096924 
	C14.546429,796.393066 11.111371,798.368286 11.588429,802.489746 
	C12.037456,806.368958 14.524848,808.732117 17.813574,811.244080 
	C22.806479,815.057739 27.841566,817.475098 33.969677,818.657227 
	C38.660732,819.561951 43.281361,819.985107 48.000000,820.000000 
"/>
<path fill="none" opacity="1.000000" stroke="#000000" stroke-linecap="round" stroke-linejoin="round" stroke-width="11.000000"
	d="
M101.000000,788.000000 
	C83.730270,784.359192 66.364586,785.708313 48.438713,786.666077 
	C48.613708,792.350586 50.057812,797.644043 49.500000,803.000000 
"/>
<path fill="none" opacity="1.000000" stroke="#000000" stroke-linecap="round" stroke-linejoin="round" stroke-width="10.000000"
	d="
M102.000000,365.000000 
	C91.425209,367.022644 80.984177,364.498474 70.507927,363.868256 
	C63.601501,363.452759 56.821636,363.853760 50.000000,364.500000 
"/>
<path fill="none" opacity="1.000000" stroke="#000000" stroke-linecap="round" stroke-linejoin="round" stroke-width="13.000000"
	d="
M49.000000,804.000000 
	C49.727798,809.166687 49.152142,814.334778 49.163250,819.499634 
	C49.178989,826.819580 50.030003,834.144409 50.056328,841.499817 
	C50.070049,845.334229 51.099663,849.189270 50.900970,852.994812 
	C50.583733,859.070862 52.424347,864.957886 52.000000,871.000000 
"/>
<path fill="none" opacity="1.000000" stroke="#000000" stroke-linecap="round" stroke-linejoin="round" stroke-width="10.000000"
	d="
M106.000000,643.500000 
	C110.022820,642.711426 114.384689,642.970459 117.517540,639.515930 
	C118.844055,638.053101 119.665619,636.544861 120.079613,634.516235 
	C121.453468,627.784180 117.258629,617.632263 111.500000,614.500000 
	C108.058197,612.627930 101.063339,613.434998 98.499977,616.000000 
	C96.197426,618.304016 95.626770,625.206604 97.509880,628.494324 
	C98.229439,629.750671 98.375755,631.083618 98.542610,632.494934 
	C99.102623,637.231995 100.731674,641.382874 105.500000,643.500000 
"/>
<path fill="none" opacity="1.000000" stroke="#000000" stroke-linecap="round" stroke-linejoin="round" stroke-width="13.000000"
	d="
M48.000000,714.000000 
	C48.638779,721.185425 49.529343,728.460876 47.354137,735.454651 
	C46.499779,738.201538 48.056992,740.140686 48.023670,742.500305 
	C47.948368,747.832581 48.136913,753.170959 47.969810,758.499023 
	C47.675468,767.884094 48.071651,777.216370 49.500000,786.500000 
"/>
<path fill="none" opacity="1.000000" stroke="#000000" stroke-linecap="round" stroke-linejoin="round" stroke-width="12.000000"
	d="
M48.500000,450.500000 
	C49.426147,456.899628 49.317574,463.304230 47.389065,469.465271 
	C46.603859,471.973785 48.557392,473.405426 48.530510,475.500397 
	C48.447117,481.999329 49.071625,488.564728 48.344975,494.982452 
	C47.562473,501.893433 48.527489,508.669830 48.594051,515.499084 
	C48.657444,522.003357 49.500000,528.500000 50.000000,535.000000 
"/>
<path fill="none" opacity="1.000000" stroke="#000000" stroke-linecap="round" stroke-linejoin="round" stroke-width="10.000000"
	d="
M14.500000,459.500000 
	C18.557264,453.413361 25.486198,453.319244 31.523619,451.582092 
	C37.180595,449.954437 43.094643,449.536438 49.528206,450.207825 
	C49.408806,443.833344 49.827377,438.166656 48.651527,431.418335 
	C57.157047,431.861938 65.284546,431.085907 73.506149,431.940857 
	C82.089302,432.833435 90.508347,434.613464 99.000000,436.000000 
"/>
<path fill="none" opacity="1.000000" stroke="#000000" stroke-linecap="round" stroke-linejoin="round" stroke-width="9.000000"
	d="
M103.000000,216.000000 
	C91.657860,217.518021 80.792297,213.195450 69.498077,213.308929 
	C63.310444,213.371094 57.115547,213.887436 51.006062,213.743240 
	C42.949360,213.553070 35.441174,214.952744 28.014551,217.541748 
	C25.350540,218.470428 22.853455,219.877960 20.319828,221.048615 
	C13.761286,216.482346 12.104370,212.806931 13.954288,207.982468 
	C15.268584,204.554901 17.975620,202.870239 21.008299,201.518616 
	C30.549782,197.266190 40.475594,195.138824 50.976730,194.230881 
	C59.886841,193.460510 68.666946,194.439682 77.502907,194.069458 
	C84.130646,193.791748 90.538902,195.813156 96.977676,197.110779 
	C99.365799,197.592072 101.500000,199.333328 103.750000,200.500000 
"/>
<path fill="none" opacity="1.000000" stroke="#000000" stroke-linecap="round" stroke-linejoin="round" stroke-width="9.000000"
	d="
M50.000000,449.000000 
	C64.088089,448.353485 77.993660,450.775696 91.992058,451.630127 
	C93.628044,451.730011 95.343681,451.729889 97.000000,452.000000 
"/>
<path fill="none" opacity="1.000000" stroke="#000000" stroke-linecap="round" stroke-linejoin="round" stroke-width="11.000000"
	d="
M51.500000,626.000000 
	C55.000000,627.152954 58.504169,625.847839 61.999195,626.016663 
	C71.334900,626.467590 80.683800,626.809875 89.986641,627.648193 
	C92.035065,627.832764 93.694160,627.469116 95.500000,627.000000 
"/>
<path fill="none" opacity="1.000000" stroke="#000000" stroke-linecap="round" stroke-linejoin="round" stroke-width="4.000000"
	d="
M305.500000,818.000000 
	C290.789520,822.389587 276.476593,827.932129 262.000000,833.000000 
"/>
<path fill="none" opacity="1.000000" stroke="#000000" stroke-linecap="round" stroke-linejoin="round" stroke-width="10.000000"
	d="
M59.000000,131.500000 
	C72.143852,131.753296 85.146049,133.214294 98.007805,135.963501 
	C99.282875,136.236069 100.666664,136.000000 102.000000,136.000000 
"/>
<path fill="none" opacity="1.000000" stroke="#000000" stroke-linecap="round" stroke-linejoin="round" stroke-width="13.000000"
	d="
M50.000000,612.000000 
	C50.365665,617.578674 53.243622,623.268433 48.709404,628.675598 
	C48.175255,629.312622 48.994438,632.493591 48.987133,634.499939 
	C48.933723,649.172546 47.320278,663.808105 47.984127,678.500732 
	C48.247494,684.329651 48.333332,690.166687 48.500000,696.000000 
"/>
<path fill="none" opacity="1.000000" stroke="#000000" stroke-linecap="round" stroke-linejoin="round" stroke-width="9.000000"
	d="
M48.500000,520.500000 
	C38.099789,520.498962 28.257767,523.114929 18.463301,526.390259 
	C13.606123,528.014465 11.580661,531.881409 9.000000,535.500000 
"/>
<path fill="none" opacity="1.000000" stroke="#000000" stroke-linecap="round" stroke-linejoin="round" stroke-width="5.000000"
	d="
M378.000000,789.500000 
	C367.570679,792.636719 358.223907,798.537415 347.541656,801.169128 
	C343.850494,802.078613 340.149750,802.240295 336.500000,803.000000 
"/>
<path fill="none" opacity="1.000000" stroke="#000000" stroke-linecap="round" stroke-linejoin="round" stroke-width="7.000000"
	d="
M927.999939,410.500000 
	C925.499939,419.166656 923.091431,427.861176 920.465027,436.489380 
	C918.931152,441.528076 919.332764,447.222046 915.500000,451.500000 
"/>
<path fill="none" opacity="1.000000" stroke="#000000" stroke-linecap="round" stroke-linejoin="round" stroke-width="8.000000"
	d="
M107.000000,359.500000 
	C101.565689,366.621063 101.169823,369.688934 105.000000,375.000000 
	C108.216171,379.459686 116.470093,380.889923 121.028496,378.045685 
	C124.185524,376.075836 124.774391,374.149261 122.597878,370.933746 
	C121.389755,369.148895 120.745255,366.965149 119.000000,365.500000 
"/>
<path fill="none" opacity="1.000000" stroke="#000000" stroke-linecap="round" stroke-linejoin="round" stroke-width="7.000000"
	d="
M130.500000,745.500000 
	C121.000000,743.756226 111.497139,745.380066 102.001396,745.569824 
	C98.159607,745.646484 94.333344,746.500061 90.500008,747.000061 
"/>
<path fill="none" opacity="1.000000" stroke="#000000" stroke-linecap="round" stroke-linejoin="round" stroke-width="8.000000"
	d="
M15.000000,296.500000 
	C14.391440,300.035675 15.956611,302.125427 18.946045,304.082428 
	C27.986715,310.000824 37.932869,313.061615 48.500000,314.500000 
"/>
<path fill="none" opacity="1.000000" stroke="#000000" stroke-linecap="round" stroke-linejoin="round" stroke-width="8.000000"
	d="
M11.500000,638.000000 
	C12.139565,642.080872 15.296499,643.877747 18.511604,645.476685 
	C27.480070,649.936707 36.873020,652.882507 47.000000,653.000000 
"/>
<path fill="none" opacity="1.000000" stroke="#000000" stroke-linecap="round" stroke-linejoin="round" stroke-width="6.000000"
	d="
M560.000000,800.000000 
	C564.028442,797.939087 568.199829,798.615845 572.506592,798.899719 
	C584.259949,799.674255 594.421509,805.595825 605.447205,808.688293 
	C610.073792,809.985962 614.727722,811.912659 619.064148,814.387634 
	C621.201843,815.607605 623.444946,816.499207 625.027710,818.943909 
	C622.038879,826.974548 616.216370,833.927185 612.500000,842.000000 
"/>
<path fill="none" opacity="1.000000" stroke="#000000" stroke-linecap="round" stroke-linejoin="round" stroke-width="6.000000"
	d="
M104.499985,527.000000 
	C103.166649,528.666626 101.871178,530.365356 100.492905,531.994019 
	C96.291130,536.959106 96.516609,544.561707 100.999985,548.000000 
	C105.953262,551.798645 114.861717,549.799255 118.622833,544.588684 
	C120.016708,542.657715 118.576141,540.581360 120.000000,539.000000 
"/>
<path fill="none" opacity="1.000000" stroke="#000000" stroke-linecap="round" stroke-linejoin="round" stroke-width="5.000000"
	d="
M938.500000,501.000000 
	C932.103027,501.910889 929.396362,507.953247 924.585815,511.129913 
	C919.761841,514.315491 915.209290,517.923401 909.986023,520.471375 
	C907.622925,521.624146 905.092407,522.219482 902.500000,521.000000 
"/>
<path fill="none" opacity="1.000000" stroke="#000000" stroke-linecap="round" stroke-linejoin="round" stroke-width="10.000000"
	d="
M48.000000,628.500000 
	C36.286129,627.444763 25.152412,629.623840 14.498908,634.497620 
	C11.903751,635.684814 10.043200,638.837402 6.500000,637.500000 
"/>
<path fill="none" opacity="1.000000" stroke="#000000" stroke-linecap="round" stroke-linejoin="round" stroke-width="9.000000"
	d="
M20.000000,221.500000 
	C19.272038,225.990646 21.674776,228.361160 25.488150,230.027130 
	C33.647884,233.591949 42.118114,235.831497 51.000000,236.500000 
"/>
<path fill="none" opacity="1.000000" stroke="#000000" stroke-linecap="round" stroke-linejoin="round" stroke-width="6.000000"
	d="
M948.000000,474.000000 
	C944.380737,473.566681 941.362549,474.787445 938.471924,476.962677 
	C932.348022,481.571106 925.718933,485.261841 918.564270,488.158752 
	C916.132080,489.143524 914.238098,489.262207 912.018860,488.506500 
	C910.296631,482.870422 913.449341,477.850006 914.074829,472.508759 
	C914.742981,466.803253 915.984009,461.163788 917.010620,455.501923 
	C917.290344,453.958649 916.358093,452.675079 915.449890,452.075989 
	C909.271362,448.000702 908.497253,441.025208 906.039734,434.983826 
	C904.652527,431.573547 903.666626,428.000000 902.500000,424.500000 
"/>
<path fill="none" opacity="1.000000" stroke="#000000" stroke-linecap="round" stroke-linejoin="round" stroke-width="9.000000"
	d="
M10.500000,536.000000 
	C12.456443,539.751282 15.642998,542.616821 17.644728,546.423889 
	C19.299297,549.570740 23.267143,550.032654 26.509384,550.967468 
	C33.519741,552.988708 40.775570,553.163391 48.000000,553.500000 
"/>
<path fill="none" opacity="1.000000" stroke="#000000" stroke-linecap="round" stroke-linejoin="round" stroke-width="8.000000"
	d="
M807.500000,452.500000 
	C807.191284,456.636108 809.585632,460.095642 811.184265,463.411163 
	C820.531799,482.798065 831.665710,501.214813 843.000000,519.500000 
"/>
<path fill="none" opacity="1.000000" stroke="#000000" stroke-linecap="round" stroke-linejoin="round" stroke-width="9.000000"
	d="
M49.500000,365.000000 
	C40.681625,364.303711 32.248093,366.022705 23.994783,368.985474 
	C20.684805,370.173706 16.844854,371.630920 16.242268,375.042786 
	C15.557502,378.919952 19.368820,380.750549 22.480978,382.533203 
	C30.408508,387.074127 38.865620,389.656891 48.000000,390.000000 
"/>
<path fill="none" opacity="1.000000" stroke="#000000" stroke-linecap="round" stroke-linejoin="round" stroke-width="6.000000"
	d="
M130.500000,805.500000 
	C136.843735,804.437622 142.611328,807.282654 148.443787,808.727051 
	C156.324905,810.678711 164.348465,812.772766 171.500000,817.000000 
"/>
<path fill="none" opacity="1.000000" stroke="#000000" stroke-linecap="round" stroke-linejoin="round" stroke-width="8.000000"
	d="
M796.000000,553.500000 
	C796.977966,558.521667 802.534851,563.634216 806.334778,566.704529 
	C812.216919,571.457275 819.885254,572.403381 825.606750,577.377197 
	C829.938904,581.143127 835.606750,583.096680 841.477905,582.330811 
	C843.724121,582.037903 844.931091,582.632446 845.962708,584.027588 
	C848.462341,587.408325 852.203552,589.925049 853.099060,594.480530 
	C853.259827,595.298462 853.577759,596.407776 854.946594,597.104919 
	C861.274414,600.327209 865.646545,605.711731 869.479309,611.513672 
	C873.353088,617.377502 878.394531,621.411011 885.500000,622.500000 
"/>
<path fill="none" opacity="1.000000" stroke="#000000" stroke-linecap="round" stroke-linejoin="round" stroke-width="8.000000"
	d="
M13.500000,723.500000 
	C16.920359,731.369446 24.476252,733.213196 31.536020,735.382812 
	C36.147762,736.800110 41.092796,737.214111 46.000000,737.000000 
"/>
<path fill="none" opacity="1.000000" stroke="#000000" stroke-linecap="round" stroke-linejoin="round" stroke-width="10.000000"
	d="
M156.000000,718.000000 
	C152.180618,729.333313 150.436432,740.405884 155.716217,752.127808 
	C157.840805,756.844727 157.730453,762.957642 156.500000,768.500000 
"/>
<path fill="none" opacity="1.000000" stroke="#000000" stroke-linecap="round" stroke-linejoin="round" stroke-width="7.000000"
	d="
M695.500000,782.000000 
	C693.425964,779.446411 690.566650,778.135681 687.489624,777.554871 
	C683.048035,776.716492 678.936890,775.011658 675.037415,772.929871 
	C670.704712,770.616821 666.384338,769.257751 661.500000,770.500000 
"/>
<path fill="none" opacity="1.000000" stroke="#000000" stroke-linecap="round" stroke-linejoin="round" stroke-width="9.000000"
	d="
M49.000000,536.000000 
	C37.505173,535.834534 26.150032,536.519897 15.500000,541.500000 
"/>
<path fill="none" opacity="1.000000" stroke="#000000" stroke-linecap="round" stroke-linejoin="round" stroke-width="14.000000"
	d="
M53.500000,214.500000 
	C52.810207,221.664520 55.241619,229.119370 51.500000,236.000000 
	C54.677681,247.215195 50.901295,258.737183 53.000000,270.000000 
"/>
<path fill="none" opacity="1.000000" stroke="#000000" stroke-linecap="round" stroke-linejoin="round" stroke-width="16.000000"
	d="
M110.000000,113.500000 
	C110.928146,116.004715 112.494621,117.720505 114.939278,119.107063 
	C118.124535,120.913666 120.211746,123.897926 121.548836,127.481781 
	C124.874985,136.397064 119.508751,140.226135 112.472267,142.410675 
	C109.208717,143.423889 102.214905,137.162872 102.015579,133.499146 
	C101.802666,129.585617 101.838547,125.681839 103.500000,122.000000 
"/>
<path fill="none" opacity="1.000000" stroke="#000000" stroke-linecap="round" stroke-linejoin="round" stroke-width="12.000000"
	d="
M57.000000,133.500000 
	C57.568157,142.393799 56.910744,151.206253 55.570454,160.010727 
	C55.124115,162.942780 55.543789,166.000763 55.491585,168.999847 
	C55.349411,177.166946 55.166668,185.333328 55.000000,193.500000 
"/>
<path fill="none" opacity="1.000000" stroke="#000000" stroke-linecap="round" stroke-linejoin="round" stroke-width="13.000000"
	d="
M50.500000,289.000000 
	C50.424061,297.177185 51.352268,305.409576 49.457912,313.490143 
	C48.840660,316.123047 50.166584,318.425873 50.099979,321.002594 
	C49.850277,330.662781 49.947815,340.333740 50.022526,349.999817 
	C50.058609,354.667480 50.333332,359.333344 50.500000,364.000000 
"/>
<path fill="none" opacity="1.000000" stroke="#000000" stroke-linecap="round" stroke-linejoin="round" stroke-width="8.000000"
	d="
M986.000000,741.000000 
	C984.808594,739.278076 982.979309,739.907715 981.505981,740.058289 
	C972.676697,740.960815 963.832153,740.271851 955.000000,740.500000 
"/>
<path fill="none" opacity="1.000000" stroke="#000000" stroke-linecap="round" stroke-linejoin="round" stroke-width="7.000000"
	d="
M891.000000,464.000000 
	C894.166626,470.500000 897.414307,476.962250 900.468445,483.514709 
	C902.193726,487.216125 904.744995,489.921692 908.500000,491.500000 
"/>
<path fill="none" opacity="1.000000" stroke="#000000" stroke-linecap="round" stroke-linejoin="round" stroke-width="10.000000"
	d="
M124.000000,216.000000 
	C123.293602,211.749161 121.907478,207.897675 119.094185,204.423721 
	C117.112701,201.976929 114.842285,200.528183 112.018730,199.450897 
	C109.660278,198.551056 107.634262,199.403473 105.499771,199.999191 
	C102.648560,200.794952 103.764297,203.144073 103.477036,204.996445 
	C102.780640,209.486938 102.090317,214.264648 105.100731,217.916977 
	C110.230362,224.140427 117.261810,223.387878 124.000000,216.500000 
"/>
<path fill="none" opacity="1.000000" stroke="#000000" stroke-linecap="round" stroke-linejoin="round" stroke-width="7.000000"
	d="
M635.500000,871.500000 
	C635.452637,880.112061 633.971375,888.556580 632.445251,896.990112 
	C632.371033,897.400452 631.500000,897.666687 631.000000,898.000000 
"/>
<path fill="none" opacity="1.000000" stroke="#000000" stroke-linecap="round" stroke-linejoin="round" stroke-width="15.000000"
	d="
M105.500000,697.000000 
	C105.839645,697.442322 104.944916,698.739502 105.979652,698.431641 
	C111.016273,696.932922 113.750374,699.501953 116.037193,703.478638 
	C117.798058,706.540649 120.275551,709.168457 120.551582,712.996277 
	C120.745094,715.679932 120.184509,718.087280 117.950783,719.417358 
	C115.558014,720.842224 112.623726,721.263184 110.022507,719.955200 
	C102.830521,716.339050 101.298332,712.964050 102.478058,704.496948 
	C102.637512,703.352478 102.500000,702.166687 102.500000,701.000000 
"/>
<path fill="none" opacity="1.000000" stroke="#000000" stroke-linecap="round" stroke-linejoin="round" stroke-width="8.000000"
	d="
M705.000000,712.000000 
	C696.940247,714.638916 689.843201,719.385437 682.003418,722.508606 
	C680.479675,723.115601 679.000000,723.833374 677.500000,724.500061 
"/>
<path fill="none" opacity="1.000000" stroke="#000000" stroke-linecap="round" stroke-linejoin="round" stroke-width="6.000000"
	d="
M557.500000,798.750000 
	C559.751038,799.273682 560.185120,801.352051 560.970886,803.013794 
	C564.171997,809.783508 569.109863,815.055359 575.025879,819.465271 
	C576.423096,820.506775 578.140930,821.128540 580.000000,820.500000 
"/>
<path fill="none" opacity="1.000000" stroke="#000000" stroke-linecap="round" stroke-linejoin="round" stroke-width="8.000000"
	d="
M815.500000,733.500000 
	C807.403687,731.443542 799.146362,733.330994 791.000000,732.500000 
"/>
<path fill="none" opacity="1.000000" stroke="#000000" stroke-linecap="round" stroke-linejoin="round" stroke-width="7.000000"
	d="
M858.000000,499.000000 
	C853.873352,500.097534 851.825867,502.647064 850.852173,506.966675 
	C849.718445,511.996368 848.638611,517.246643 843.117065,520.217529 
	C841.367981,521.158691 841.000000,524.666687 840.000000,527.000000 
"/>
<path fill="none" opacity="1.000000" stroke="#000000" stroke-linecap="round" stroke-linejoin="round" stroke-width="6.000000"
	d="
M733.500000,884.000000 
	C737.581055,885.525208 741.569885,887.089966 745.066528,889.917725 
	C747.666138,892.020020 747.500000,894.793030 746.800171,896.934692 
	C746.017212,899.330811 743.604858,900.630615 740.484558,900.088806 
	C737.794128,899.621704 735.174377,899.206543 733.012756,897.484009 
	C728.868347,894.181641 724.517212,894.443237 720.000000,896.500000 
"/>
<path fill="none" opacity="1.000000" stroke="#000000" stroke-linecap="round" stroke-linejoin="round" stroke-width="5.000000"
	d="
M940.500000,445.000000 
	C936.333313,447.500000 932.260254,450.177338 927.969238,452.441711 
	C924.764160,454.133087 921.270813,455.255249 917.500000,454.500000 
"/>
<path fill="none" opacity="1.000000" stroke="#000000" stroke-linecap="round" stroke-linejoin="round" stroke-width="8.000000"
	d="
M103.500000,804.500000 
	C105.942245,803.466980 108.520622,803.934082 110.996735,804.062805 
	C116.347961,804.340759 116.954544,801.979980 117.412689,797.989990 
	C118.655586,787.165527 113.051598,784.871948 103.500000,785.500000 
"/>
<path fill="none" opacity="1.000000" stroke="#000000" stroke-linecap="round" stroke-linejoin="round" stroke-width="7.000000"
	d="
M743.500000,520.000000 
	C738.747131,519.258606 734.570679,516.781921 729.995605,515.515808 
	C727.854553,514.923279 725.666687,514.500000 723.500000,514.000000 
"/>
<path fill="none" opacity="1.000000" stroke="#000000" stroke-linecap="round" stroke-linejoin="round" stroke-width="5.000000"
	d="
M822.000000,485.000000 
	C818.421753,486.305725 814.892517,486.889679 810.973816,486.136139 
	C808.155029,485.594086 804.839478,485.234406 802.500000,488.000000 
"/>
<path fill="none" opacity="1.000000" stroke="#000000" stroke-linecap="round" stroke-linejoin="round" stroke-width="13.000000"
	d="
M120.500008,455.000000 
	C118.166672,456.000000 115.882767,457.141754 113.491486,457.975555 
	C102.820244,461.696747 96.567825,456.434387 98.003677,445.000458 
	C98.408028,441.780609 97.113327,437.423401 100.157211,435.793640 
	C102.350113,434.619537 106.009888,436.095825 108.998207,436.512848 
	C119.094017,437.921875 123.143433,443.687622 121.547417,454.007324 
	C121.220154,456.123383 121.500000,458.333344 121.500000,460.500000 
"/>
<path fill="none" opacity="1.000000" stroke="#000000" stroke-linecap="round" stroke-linejoin="round" stroke-width="8.000000"
	d="
M425.500000,742.000000 
	C427.042511,747.909607 425.569244,754.321777 428.500000,760.000000 
"/>
<path fill="none" opacity="1.000000" stroke="#000000" stroke-linecap="round" stroke-linejoin="round" stroke-width="8.000000"
	d="
M739.500000,552.000000 
	C733.500000,552.000000 727.500000,552.000000 721.500000,552.000000 
"/>
<path fill="none" opacity="1.000000" stroke="#000000" stroke-linecap="round" stroke-linejoin="round" stroke-width="8.000000"
	d="
M729.500000,455.000000 
	C732.199158,454.846313 734.199524,456.041504 736.030334,457.971222 
	C739.118225,461.225922 742.338074,464.337128 745.929443,467.091980 
	C747.388489,468.211243 748.493347,469.578674 750.500000,469.500000 
"/>
<path fill="none" opacity="1.000000" stroke="#000000" stroke-linecap="round" stroke-linejoin="round" stroke-width="5.000000"
	d="
M470.500000,840.499939 
	C464.833344,839.833313 459.166656,839.166626 453.500000,838.499939 
"/>
<path fill="none" opacity="1.000000" stroke="#000000" stroke-linecap="round" stroke-linejoin="round" stroke-width="7.000000"
	d="
M1020.500000,536.500061 
	C1014.833313,537.500061 1009.166687,538.500061 1003.500000,539.500061 
"/>
<path fill="none" opacity="1.000000" stroke="#000000" stroke-linecap="round" stroke-linejoin="round" stroke-width="6.000000"
	d="
M964.000000,533.500000 
	C959.592896,538.027771 954.541077,540.680115 948.000000,539.000000 
"/>
<path fill="none" opacity="1.000000" stroke="#000000" stroke-linecap="round" stroke-linejoin="round" stroke-width="3.000000"
	d="
M801.500000,567.000000 
	C799.102051,569.714783 795.505493,569.530334 792.453979,570.322632 
	C790.091736,570.936157 788.180237,572.201965 786.000000,573.000000 
"/>
<path fill="none" opacity="1.000000" stroke="#000000" stroke-linecap="round" stroke-linejoin="round" stroke-width="6.000000"
	d="
M439.500000,835.500000 
	C434.475067,835.540710 429.464630,835.364075 424.500000,834.500000 
"/>
<path fill="none" opacity="1.000000" stroke="#000000" stroke-linecap="round" stroke-linejoin="round" stroke-width="7.000000"
	d="
M830.500000,467.500000 
	C828.555481,469.523804 829.301758,472.282684 829.200134,474.509125 
	C829.003113,478.829590 827.237061,482.030151 824.500000,485.000000 
"/>
<path fill="none" opacity="1.000000" stroke="#000000" stroke-linecap="round" stroke-linejoin="round" stroke-width="3.000000"
	d="
M601.500000,851.500000 
	C598.166687,851.666687 594.833313,851.833313 591.500000,852.000000 
"/>
<path fill="none" opacity="1.000000" stroke="#000000" stroke-linecap="round" stroke-linejoin="round" stroke-width="3.000000"
	d="
M88.500000,736.000000 
	C85.500000,736.000000 82.500000,736.000000 79.500000,736.000000 
"/>
<path fill="none" opacity="1.000000" stroke="#000000" stroke-linecap="round" stroke-linejoin="round" stroke-width="3.000000"
	d="
M548.500000,831.500000 
	C545.952515,832.786743 543.201172,832.442749 540.500000,832.500000 
"/>
<path fill="none" opacity="1.000000" stroke="#000000" stroke-linecap="round" stroke-linejoin="round" stroke-width="4.000000"
	d="
M411.500000,834.000000 
	C408.833344,833.500000 406.166656,833.000000 403.500000,832.500000 
"/>
<path fill="none" opacity="1.000000" stroke="#000000" stroke-linecap="round" stroke-linejoin="round" stroke-width="3.000000"
	d="
M986.000000,742.000000 
	C989.059509,740.821350 992.522339,742.197021 995.500000,740.500000 
"/>
</svg>