<svg version="1.1" id="Layer_1" xmlns="http://www.w3.org/2000/svg" xmlns:xlink="http://www.w3.org/1999/xlink" x="0px" y="0px"
	 width="100%" viewBox="0 0 1024 1024" enable-background="new 0 0 1024 1024" xml:space="preserve">
<path fill="#000000" opacity="1.000000" stroke="none" 
	d="
M540.973633,898.972534 
	C553.449524,906.992554 552.100037,921.465393 546.569885,930.138977 
	C541.771729,937.664490 533.826965,938.288635 526.033386,937.111389 
	C519.447144,936.116577 514.893494,931.639709 513.202087,925.185791 
	C511.248291,917.730652 512.207275,910.605408 517.910645,904.763245 
	C519.978088,902.645569 522.894836,902.253357 525.616272,901.376038 
	C525.616272,899.222717 525.635315,897.249512 525.612976,895.276794 
	C525.518433,886.914001 529.218933,880.937439 536.824768,877.414734 
	C549.542114,871.524475 562.936829,867.387390 575.981812,862.344666 
	C594.610291,855.143311 612.983215,847.192078 632.325989,841.995178 
	C636.069214,840.989502 637.265076,838.721130 636.737244,835.493042 
	C634.533447,822.015625 636.538025,808.559143 636.735474,795.099365 
	C636.803589,790.455750 637.415222,785.813538 637.912781,781.185181 
	C638.200317,778.510681 639.412170,776.197449 642.354065,775.908569 
	C645.790710,775.571167 645.785217,773.350098 645.580566,770.921997 
	C644.655640,759.948303 643.951233,748.980835 646.340271,738.090210 
	C646.758667,736.182617 645.819336,735.236816 644.224792,734.742188 
	C642.479492,734.200806 640.715515,733.626038 638.916504,733.370789 
	C635.036621,732.820496 632.931885,730.713501 632.653076,726.817627 
	C632.363281,722.768433 630.826904,719.946899 626.327148,719.294861 
	C623.716553,718.916504 621.194458,717.930542 618.631042,717.223267 
	C616.012024,716.500732 612.980103,715.652100 612.123291,713.059692 
	C610.642273,708.578796 607.743469,708.817810 603.983154,708.900146 
	C588.181824,709.246033 572.304993,710.714844 556.600891,708.248230 
	C548.646179,706.998840 540.535889,705.492859 534.025330,699.748718 
	C526.903076,693.464722 523.993896,685.822266 525.791809,676.574219 
	C526.427002,673.307251 525.016846,673.183838 522.101990,673.571655 
	C524.103149,676.635620 524.503845,679.363953 520.653076,681.115662 
	C519.251343,681.753235 519.680359,683.104065 520.224060,684.172791 
	C525.129639,693.814880 522.922974,703.651428 521.119751,713.500427 
	C517.547729,733.010498 515.736938,752.670288 515.122925,772.514893 
	C514.607544,789.167664 513.658691,805.799622 514.188477,822.468994 
	C514.288086,825.605469 514.426514,828.400330 516.734192,831.220947 
	C519.765869,834.926697 517.539429,839.635864 516.919006,843.788330 
	C516.212402,848.516907 514.867310,853.203369 513.294250,857.732544 
	C511.996857,861.468384 508.192932,862.614197 504.829559,863.046570 
	C501.131287,863.521973 500.027985,865.262451 499.946045,868.550293 
	C499.883911,871.042358 499.547455,873.526489 499.382446,876.017395 
	C499.159637,879.380798 499.091675,881.996338 503.339020,883.863037 
	C507.893890,885.864807 507.480347,891.525818 508.169403,895.834351 
	C509.780151,905.905823 509.417175,916.098877 509.241394,926.261963 
	C509.150055,931.543091 505.384308,936.177124 506.679443,941.805298 
	C507.003571,943.213867 504.826691,943.897827 503.344482,944.276978 
	C491.505493,947.304626 479.655151,949.032043 467.283875,947.686462 
	C455.691559,946.425720 444.007172,947.615601 432.377808,948.674988 
	C408.741760,950.828064 385.167053,951.085022 361.879395,945.410767 
	C358.432098,944.570740 355.194489,943.351990 352.710327,940.672546 
	C350.374023,938.152771 350.336792,937.936829 352.650116,934.737061 
	C353.001343,934.251282 353.005402,934.008972 352.852692,933.560852 
	C350.746460,927.379028 353.362457,921.509583 354.346161,915.613831 
	C355.250305,910.194946 359.482361,907.284851 364.611298,905.766235 
	C372.312988,903.485718 380.527924,903.786072 388.154755,901.591736 
	C400.478668,898.046021 412.369202,893.245850 421.384613,883.472473 
	C427.076752,877.301880 432.993683,871.801575 441.870605,870.368347 
	C446.024750,869.697693 444.185638,865.072266 445.276764,862.346313 
	C446.098724,860.292725 444.258118,859.700134 442.486694,859.171021 
	C435.296967,857.023804 428.207520,854.590271 421.761688,850.620117 
	C417.058990,847.723572 416.910156,846.367737 421.265350,842.940552 
	C422.710205,841.803589 422.712036,840.465088 422.733643,838.968567 
	C422.803894,834.101501 421.555817,829.417053 420.751953,824.672180 
	C419.977051,820.098022 420.492920,816.047424 424.846863,813.289062 
	C427.543091,811.580872 428.109741,808.965393 427.962250,805.900818 
	C426.865875,783.118896 425.861938,760.332581 424.812469,737.548340 
	C424.745300,736.089844 424.905792,734.528870 423.280182,732.989197 
	C408.060669,751.494080 395.957153,772.095703 380.915314,790.871155 
	C380.181122,791.002808 379.403900,790.320129 378.551331,789.812744 
	C369.974365,784.709595 368.208557,785.089600 363.054596,793.429626 
	C360.691345,797.253845 357.418671,800.779541 360.194916,806.027710 
	C361.181824,807.893433 359.515839,810.153809 358.481934,812.080811 
	C353.807892,820.792236 346.735809,827.349426 339.244080,833.521240 
	C337.683380,834.807007 336.658112,836.061707 336.131927,838.270325 
	C334.591736,844.734680 323.700806,849.027100 316.019165,846.512329 
	C311.186798,844.930237 306.945190,842.263062 303.330078,838.744873 
	C296.355774,831.957397 288.265808,826.029358 285.469574,815.906860 
	C285.164917,814.803955 283.654633,814.036682 282.709595,813.107605 
	C263.038849,793.770630 245.693512,772.911316 237.625381,745.763672 
	C235.860809,739.826172 234.693832,733.824280 233.804962,727.737793 
	C233.565231,726.096375 233.622101,724.468506 234.815826,723.011963 
	C237.659180,719.542603 240.549088,716.100769 243.380692,712.639526 
	C251.244354,703.027283 268.121674,706.004883 273.775116,715.546326 
	C279.492584,725.195862 287.152496,733.361023 296.305725,740.735168 
	C299.365540,737.041504 301.641998,739.074768 303.562866,742.394714 
	C304.618408,744.219055 306.206024,744.736938 308.194580,744.670654 
	C310.358185,744.598572 312.526703,744.673828 314.693085,744.684387 
	C320.915222,744.714844 325.154327,747.500244 326.801880,753.714722 
	C333.097992,749.650330 333.344086,748.830811 330.232178,742.755615 
	C327.327606,737.085205 325.370331,731.186401 324.449890,724.803223 
	C323.887115,720.900574 325.354492,719.307495 328.604919,719.145996 
	C331.901306,718.982239 333.205261,717.325439 334.123932,714.484985 
	C336.803833,706.199341 342.586609,700.684937 350.384033,697.190552 
	C352.123505,696.410950 353.769165,695.701477 354.353607,693.746765 
	C358.890533,678.573425 368.963226,666.634399 377.323914,653.625732 
	C390.560760,633.030090 402.961517,611.897766 415.767517,591.024109 
	C418.029602,587.336975 420.491516,583.768433 422.951752,580.207825 
	C426.839111,574.581787 432.337097,571.326355 438.900574,569.814758 
	C445.624176,568.266235 452.375031,566.834778 459.270996,565.842712 
	C452.179260,566.450012 445.162231,565.574341 438.126648,565.449219 
	C412.315521,564.990479 386.505676,563.165649 360.695374,565.301941 
	C348.763733,566.289368 337.062408,569.187256 325.042938,569.586914 
	C302.066376,570.350952 279.098816,570.975769 256.122131,569.510010 
	C247.150803,568.937805 238.154755,568.763062 229.175644,568.297852 
	C225.940643,568.130249 224.539215,569.018921 224.251953,572.671143 
	C222.179840,599.016846 224.145004,625.252380 226.030457,651.493103 
	C227.764053,675.620056 228.324112,699.817017 227.030075,723.920959 
	C224.950226,762.662415 222.074707,801.372925 222.505981,840.187195 
	C222.718536,859.316895 224.955902,878.412048 224.346130,897.584900 
	C223.927597,910.744873 222.091705,923.757935 219.991745,936.734680 
	C219.478180,939.908203 217.930450,942.873047 219.873962,946.286072 
	C220.901642,948.090820 219.072708,949.576294 217.188736,950.330444 
	C213.981720,951.614258 210.585220,951.694702 207.327499,951.178528 
	C201.765945,950.297424 196.053040,949.736633 190.952301,947.050171 
	C186.987656,944.962158 186.873230,943.206665 190.692154,941.060364 
	C192.597061,939.989563 192.823502,938.618835 192.510849,936.930664 
	C189.935837,923.026428 190.677765,909.042908 191.738770,895.097778 
	C193.902618,866.657288 194.252716,838.175232 193.371490,809.703491 
	C192.587479,784.372742 192.463074,759.049683 193.046036,733.734009 
	C193.617325,708.924500 195.423523,684.117310 194.543533,659.307556 
	C193.593964,632.535889 192.262924,605.771484 190.030380,579.053589 
	C188.578110,561.673401 186.778061,544.165466 191.784607,526.947327 
	C191.909470,526.517944 191.719345,525.996948 191.668793,525.437561 
	C188.695267,523.714966 185.439301,524.743774 182.377319,524.303528 
	C178.100616,523.688782 173.161346,524.473511 170.785797,519.353943 
	C170.717026,519.205688 170.656509,518.937256 170.572128,518.929016 
	C158.492523,517.746094 163.914810,508.564026 163.206802,502.365784 
	C162.962708,500.228912 164.406219,498.056213 163.323608,495.614502 
	C162.443329,493.629089 164.276428,492.539093 165.895218,492.064423 
	C168.118759,491.412384 170.430420,490.991302 172.733322,490.702515 
	C174.411514,490.492065 175.648193,490.053711 175.822479,488.157715 
	C175.837646,487.992554 175.920746,487.827576 175.909409,487.666962 
	C175.618103,483.539337 182.760590,484.855103 181.504883,479.995422 
	C180.596313,476.479187 180.963379,473.327423 184.927704,471.194031 
	C181.706650,469.973572 178.939880,469.041992 176.273773,467.879578 
	C173.976166,466.877777 172.191650,465.194733 173.069016,462.439362 
	C173.921631,459.761810 176.279297,460.038391 178.514175,460.330261 
	C179.808792,460.499298 181.125320,460.500610 182.861893,460.602661 
	C182.858582,457.455902 184.321533,454.626312 183.184540,451.644226 
	C181.676117,447.688019 181.735275,444.415924 186.512695,442.284943 
	C182.566086,442.284943 178.617813,442.213226 174.673279,442.303650 
	C170.069977,442.409210 168.590866,439.154266 167.939758,435.638977 
	C167.234589,431.831818 168.189301,427.895752 171.994675,426.297211 
	C174.969498,425.047577 178.490662,423.484436 181.654129,426.235687 
	C183.516022,424.186401 182.176346,422.462646 181.690659,420.862762 
	C180.389526,416.576660 178.386215,412.423157 180.011475,407.768494 
	C180.115829,407.469666 180.107193,407.098938 180.048767,406.780457 
	C178.690475,399.377563 178.650558,399.151123 186.048950,397.935394 
	C199.778305,395.679443 213.651413,396.752747 227.462097,396.713074 
	C250.118744,396.647980 272.751862,397.692200 295.369720,398.933838 
	C301.173920,399.252441 307.770081,398.561066 309.899078,406.390228 
	C309.555969,406.815277 309.314606,407.283997 308.933441,407.558624 
	C306.697388,409.169739 302.515137,407.560303 301.707703,410.889893 
	C301.082611,413.467529 302.150482,416.448547 302.423492,419.254333 
	C302.545807,420.510864 303.374451,421.853333 302.086731,422.988464 
	C297.436096,421.137207 296.409851,416.733093 298.777222,407.552307 
	C291.568787,407.552307 284.465973,407.142944 277.424561,407.626984 
	C253.750717,409.254395 230.136490,407.775665 206.507050,406.774841 
	C201.515015,406.563416 196.514465,406.489807 191.531143,406.154816 
	C187.346924,405.873596 186.230347,408.072906 186.598969,411.679413 
	C186.767517,413.328583 187.209717,414.958984 187.275497,416.607971 
	C187.633484,425.579773 187.610016,425.805786 196.807114,425.658234 
	C216.985611,425.334564 237.066986,427.803040 257.228119,427.611328 
	C275.380310,427.438751 293.529877,426.987305 311.680603,426.658661 
	C316.431488,426.572601 319.729431,429.220917 320.359833,433.636292 
	C320.652008,435.682648 320.537079,437.433960 317.304016,436.712738 
	C315.948212,431.325897 313.085663,428.527466 309.407349,429.821289 
	C301.807831,432.494263 293.992035,431.935425 286.207214,432.225586 
	C257.416656,433.298645 228.626022,433.555878 199.835022,432.292603 
	C193.521759,432.015625 187.216003,431.569183 180.903152,431.279846 
	C179.205521,431.202057 177.409256,431.316925 177.435913,433.765991 
	C177.458755,435.865570 178.747070,436.665985 180.645187,436.807587 
	C184.626282,437.104553 188.604416,437.609253 192.588776,437.663788 
	C206.242432,437.850586 219.898453,437.856537 233.553085,437.985687 
	C236.877625,438.017090 240.363358,437.902557 243.336487,439.470459 
	C246.071655,440.912903 248.667252,440.711334 251.481949,440.162933 
	C247.555374,439.234680 243.471512,438.804871 239.889404,435.976654 
	C241.843369,433.584747 244.250351,433.919312 246.469635,433.900391 
	C261.456207,433.772583 276.447662,433.879761 291.428284,433.523621 
	C300.199463,433.315125 308.554810,435.409698 317.029663,436.979095 
	C315.635834,441.709869 311.578979,438.232361 308.009491,439.989502 
	C314.297638,441.467224 320.764954,439.536224 325.636475,445.094238 
	C315.931885,447.830719 322.028381,455.886566 319.724854,461.153259 
	C313.923004,460.470337 312.576172,453.973846 316.917297,446.625153 
	C308.818756,446.180939 300.964264,445.604675 293.099304,445.344025 
	C260.132172,444.251526 227.268356,448.296143 194.297485,447.412415 
	C189.451767,447.282532 187.738693,450.441833 188.387970,456.631744 
	C188.843842,460.977936 191.011765,462.358429 195.156403,461.366547 
	C212.580444,457.196686 230.266724,458.991364 247.869049,459.239288 
	C264.323486,459.471008 280.783386,459.830414 297.159088,461.725800 
	C299.633240,462.012146 302.125763,462.208496 304.570831,462.658356 
	C307.055695,463.115540 308.030884,464.258759 304.500854,466.574890 
	C310.919952,466.242157 316.195831,465.534760 321.448364,466.132721 
	C322.775482,464.883392 320.289642,463.654022 321.892029,462.211182 
	C324.851776,461.639984 328.162537,462.122131 329.771790,465.095703 
	C331.158661,467.658325 328.273651,469.071625 325.957642,470.908142 
	C323.932953,471.877350 322.456909,472.452667 320.764587,472.742279 
	C319.509644,471.384094 318.128113,471.181396 316.832825,471.455902 
	C310.248840,472.851105 303.532898,471.943634 296.914154,472.731232 
	C270.194427,475.910767 243.452118,475.952423 216.648254,473.656860 
	C208.707428,472.976776 200.665375,473.463867 192.669647,473.445618 
	C188.485641,473.436066 187.931885,476.822723 187.585083,479.672089 
	C187.132614,483.389618 190.356674,482.656555 192.510803,482.757385 
	C196.336685,482.936493 200.173798,482.861115 204.003418,482.981537 
	C205.692276,483.034637 207.581390,482.768097 209.075363,485.016022 
	C201.034607,485.891663 193.282547,485.116974 185.392288,486.768433 
	C186.792145,488.038116 188.008255,487.584381 189.112640,487.733185 
	C201.741287,489.434326 214.404892,487.207703 227.035080,488.040131 
	C255.132004,489.891998 283.312714,488.940948 311.416779,490.594849 
	C313.384460,490.710663 316.798920,491.863556 316.429474,487.874725 
	C316.148376,484.839813 316.577789,481.097839 311.223724,481.269775 
	C300.071075,481.627838 288.900665,481.450104 277.737579,481.441864 
	C276.378906,481.440857 274.742554,482.311523 273.682739,480.523682 
	C274.695526,478.674194 276.522034,478.975800 278.060822,478.926025 
	C288.379272,478.592316 298.699921,478.220490 309.021729,478.154510 
	C312.575073,478.131775 315.974884,478.809448 317.497498,474.346466 
	C317.962006,472.984955 319.639435,472.955017 321.145935,473.350861 
	C323.357178,478.578461 319.620911,483.595154 321.768921,489.960907 
	C325.413422,483.194366 323.937897,476.650238 325.979279,470.971466 
	C329.188873,471.516754 330.468597,473.155426 329.875305,476.583679 
	C329.284637,479.996918 329.293427,483.513947 328.997314,487.560150 
	C339.683868,488.659698 350.043152,487.284119 360.261536,487.677856 
	C340.469330,455.980347 327.185211,421.491028 311.946808,387.961060 
	C302.921631,368.102539 294.122437,348.141235 285.246796,328.214935 
	C284.435699,326.393982 283.656799,324.533386 283.124237,322.618530 
	C281.682251,317.433838 283.436798,314.730499 288.715790,313.685852 
	C290.181122,313.395874 291.651917,313.102875 293.086609,312.693604 
	C299.421783,310.886322 300.860504,311.249451 303.834869,317.352051 
	C320.978668,352.526215 339.411987,387.079132 354.743896,423.129425 
	C357.608215,429.864441 361.028534,436.365540 364.260895,442.940857 
	C367.344513,449.213593 370.765320,455.333008 372.408478,462.218231 
	C372.949280,464.484283 373.804535,466.039642 376.850861,465.581512 
	C386.783783,464.087799 396.798523,464.893341 406.759888,465.299957 
	C411.398743,465.489319 416.051941,464.473694 420.681641,465.604614 
	C422.130493,465.958527 424.166779,465.696350 424.805237,466.978760 
	C427.298645,471.986938 431.643066,470.572906 435.603577,470.439484 
	C449.100494,469.984711 462.497375,472.198303 476.012482,471.747589 
	C485.816711,471.420685 495.647827,471.807587 505.464569,471.997406 
	C509.003662,472.065826 511.322266,471.274323 510.972656,467.040924 
	C510.263336,458.451691 511.231323,450.109833 515.740295,441.980194 
	C507.296387,439.139557 499.274689,436.485992 491.952576,432.203583 
	C486.490082,429.008728 480.877136,426.057648 475.535522,422.675293 
	C472.881683,420.994873 470.620697,420.441559 467.697083,421.888397 
	C460.985474,425.209869 454.147766,428.275513 447.387695,431.500458 
	C443.218811,433.489227 441.398895,437.598145 438.158325,442.010010 
	C445.125641,437.585144 450.663025,432.618683 459.742920,431.718048 
	C453.629028,440.730927 443.520813,443.968445 438.610626,452.832733 
	C447.334412,447.541412 454.913330,441.098297 464.957489,439.004486 
	C458.335815,447.722351 448.867737,453.362671 441.369507,461.382202 
	C444.380493,463.884644 446.807190,462.752869 449.021973,461.244324 
	C466.293243,449.480438 464.245117,450.980286 481.650909,459.856415 
	C488.164124,463.177887 495.145905,464.444946 502.182678,465.763611 
	C504.808777,466.255707 507.765137,466.183136 509.941620,468.702332 
	C508.118866,471.194794 505.792511,471.172546 503.497223,471.286652 
	C491.193542,471.898315 480.108490,468.164001 470.148346,461.273041 
	C466.823334,458.972626 464.523529,458.895813 461.327423,461.191711 
	C456.978729,464.315613 451.981384,466.210358 446.760468,467.557739 
	C438.452759,469.701721 435.560272,468.799866 430.490631,461.939087 
	C429.701447,460.871063 429.065918,459.689514 428.294861,457.939148 
	C428.312347,456.011169 428.600311,454.679108 428.442871,453.401947 
	C427.446045,445.314484 427.413513,445.318481 418.700806,445.957611 
	C418.093414,449.896179 414.823639,452.458618 412.598755,456.171387 
	C417.906982,457.793091 423.218567,456.049377 428.026367,457.978302 
	C428.944489,462.371094 426.064514,463.424713 422.689056,464.126282 
	C416.458099,465.421356 411.556763,462.067688 407.290955,458.667603 
	C404.166565,456.177338 400.187408,457.567596 397.711121,455.333832 
	C393.555786,451.585419 389.790924,452.018951 385.324463,454.509644 
	C382.416809,456.131042 379.412933,455.560333 377.519135,452.426636 
	C375.597015,449.246094 377.711548,447.111237 379.696350,445.030212 
	C380.382751,444.310608 381.129944,443.595337 381.976166,443.090790 
	C386.425781,440.437927 389.087341,437.524323 387.338867,431.480469 
	C386.078766,427.124695 389.696381,424.131897 393.682587,422.500427 
	C396.040802,421.535217 398.100952,420.534882 399.395844,418.082245 
	C400.781525,415.457611 403.488312,414.641968 406.266479,414.893829 
	C409.822083,415.216187 412.021301,413.917786 414.071564,410.917725 
	C417.581390,405.781830 422.176086,402.003296 429.121979,403.332153 
	C430.994141,403.690277 431.732025,402.185791 432.777405,401.188324 
	C437.959595,396.243988 442.995300,391.134552 449.239532,387.452179 
	C452.545807,385.502380 455.706787,384.518890 458.507599,388.185150 
	C461.278442,391.812225 460.372650,394.773163 457.168091,397.762543 
	C453.415741,401.262939 450.022491,405.148315 446.326813,409.020386 
	C449.557007,411.770935 453.003540,414.593903 456.313110,417.569214 
	C458.067566,419.146484 459.812714,418.676178 461.354767,417.678741 
	C469.174316,412.620880 476.455200,414.241760 483.622772,419.110870 
	C485.544708,420.416504 487.658813,421.448669 489.723541,422.532349 
	C492.599213,424.041656 495.078278,425.830109 498.894379,423.750183 
	C501.732452,422.203308 505.429230,423.696808 508.586914,424.788574 
	C511.414612,425.766296 514.002441,425.956085 516.680420,424.214325 
	C519.658630,422.277252 523.138123,422.541595 526.414368,423.020660 
	C531.599365,423.778870 536.757812,423.849365 541.807373,422.639038 
	C548.323120,421.077332 554.741882,422.649231 561.201294,422.712555 
	C564.013916,422.740143 566.508850,422.827942 566.983276,419.000397 
	C567.260132,416.767487 569.348389,416.048767 571.371582,415.467834 
	C578.613159,413.388733 583.744019,408.373840 586.390137,401.783020 
	C593.110474,385.044312 602.191345,369.456909 609.374451,352.963715 
	C610.704590,349.909607 612.301147,346.919800 613.182373,343.736328 
	C614.085632,340.473572 615.190369,337.001556 609.698059,335.847260 
	C605.456177,334.955780 604.868286,332.127930 607.810181,329.017822 
	C610.055115,326.644501 610.836853,323.818787 611.070557,320.848480 
	C611.699768,312.850739 613.837952,305.768555 622.052185,301.865021 
	C619.282776,296.493713 615.224304,292.653503 612.876465,287.142975 
	C608.748230,289.121185 605.023499,290.843628 601.354187,292.677063 
	C593.423523,296.639740 585.297363,300.188019 576.424561,301.175323 
	C561.945679,302.786469 548.891174,294.734253 541.574951,280.127472 
	C540.978577,278.936676 540.262573,277.759399 539.931641,276.489929 
	C538.401245,270.618439 534.751038,267.085297 529.203064,264.480072 
	C522.020081,261.107025 521.462830,257.482544 526.073547,251.051163 
	C532.008423,242.772781 534.137512,234.064621 529.648132,224.404892 
	C529.020325,223.054047 528.610840,221.590805 528.202759,220.150574 
	C525.535034,210.734573 521.746094,207.455856 512.097900,206.270401 
	C504.452240,205.330994 501.072571,198.769608 504.809296,192.119141 
	C504.890869,191.973938 504.982574,191.834473 505.066681,191.690643 
	C508.758545,185.375595 508.804199,185.323212 503.127747,180.361053 
	C496.510101,174.576141 494.182556,167.198532 495.567535,158.797333 
	C496.820007,151.199951 501.465820,147.924545 509.216949,148.276352 
	C513.666870,148.478317 516.177979,145.692230 514.741699,142.146484 
	C509.100647,128.220352 517.738098,115.197044 533.093872,114.682129 
	C539.419678,114.470016 545.765747,114.489380 552.089600,114.735924 
	C555.626648,114.873817 558.013489,113.556061 560.235291,110.935966 
	C569.593628,99.899879 581.971680,93.462532 595.378174,88.989128 
	C606.916138,85.139221 617.637024,89.893524 628.425964,93.219810 
	C632.776489,94.561096 636.639038,97.312439 641.735779,98.100952 
	C640.969910,95.183167 637.539062,92.876106 641.098328,90.241798 
	C644.405212,87.794334 647.529175,88.277725 650.812256,90.336121 
	C656.790833,94.084503 660.206543,99.626686 662.283020,106.165863 
	C662.826965,107.878891 663.325195,109.606468 663.912842,111.554100 
	C671.454285,110.033142 678.515137,110.103867 684.910400,114.276215 
	C686.704712,115.446899 688.481201,116.791534 689.875488,118.395714 
	C692.177429,121.044296 692.229065,123.434608 687.479614,124.706787 
	C689.978149,126.995323 692.446289,128.790726 694.325134,131.071564 
	C698.538391,136.186142 700.914124,141.932877 698.367737,148.634384 
	C697.555847,150.771103 698.303711,152.418869 699.094727,154.309097 
	C702.877930,163.349045 704.890869,172.695816 703.266174,182.539856 
	C702.567932,186.770432 701.059753,190.621536 697.135803,192.944611 
	C695.074951,194.164642 694.314636,196.156281 693.613831,198.208069 
	C690.654541,206.872330 687.667908,215.528107 684.824402,224.230484 
	C683.953369,226.895935 683.563721,229.548218 684.629089,232.489441 
	C686.445068,237.502914 684.575439,240.267990 679.315979,241.159286 
	C675.686829,241.774307 676.099365,244.639694 676.484558,246.880020 
	C677.165588,250.841476 679.063538,254.360611 681.768677,257.355164 
	C682.499084,257.213898 683.020142,257.215393 683.445862,257.014618 
	C686.965698,255.354507 690.365662,252.288574 694.388855,255.830887 
	C698.328247,259.299469 700.868591,268.140320 699.266663,272.359375 
	C698.789612,273.615662 698.339905,275.047546 696.820618,275.243927 
	C694.852661,275.498199 694.347412,273.754181 693.886780,272.405243 
	C692.505188,268.358704 691.287109,264.256348 689.765503,259.412628 
	C683.470459,265.262482 677.536621,270.721313 671.664490,276.245819 
	C661.472778,285.834137 652.292908,296.467438 641.485962,305.424683 
	C638.017578,308.299408 634.608459,311.290222 630.526733,313.229065 
	C626.905823,314.949036 623.197083,315.553040 620.295959,311.534668 
	C618.887085,312.768280 618.552979,314.343689 618.208130,316.423798 
	C620.833435,316.799377 622.413086,318.531128 623.346436,320.798767 
	C625.166748,320.654663 624.869385,319.085358 625.416321,318.221649 
	C627.490173,314.946625 629.833923,314.680786 632.900085,316.949097 
	C635.921753,319.184509 638.032288,322.136078 640.168213,325.121124 
	C641.204407,326.569031 641.675842,328.515564 643.782837,329.332886 
	C658.064331,311.503113 671.346191,292.573181 692.921326,280.077606 
	C692.213074,284.179840 689.936768,285.297272 688.429688,286.841705 
	C676.301941,299.269958 666.243958,313.446503 654.805725,326.453552 
	C651.940491,329.711731 649.159851,333.029633 645.510132,335.463257 
	C642.821045,337.256287 640.409302,337.314423 637.913452,334.841858 
	C634.852783,331.809784 631.506409,329.066223 627.018738,325.072388 
	C632.143433,360.209473 628.785645,393.149536 616.224487,424.995422 
	C614.241821,422.915619 614.462524,420.601990 614.920410,418.454987 
	C619.822815,395.467285 622.479919,372.202454 623.721924,348.755920 
	C623.730713,348.589508 623.705750,348.411224 623.756836,348.258575 
	C625.866455,341.943878 625.372925,335.985077 620.853943,330.279663 
	C621.311707,335.107147 616.152405,339.198425 620.080811,344.305359 
	C620.622498,345.009521 619.853271,346.857666 619.476990,348.112030 
	C613.238953,368.905579 601.745667,387.156982 591.357849,405.933838 
	C589.831665,408.692535 587.462524,410.969055 584.823120,412.750549 
	C582.306702,414.449036 582.072083,416.086639 583.955505,418.459442 
	C585.814270,420.801239 587.469177,423.326019 589.005432,425.894989 
	C589.992798,427.545959 591.468323,429.680176 589.187744,431.196075 
	C586.841980,432.755371 585.657959,430.488098 584.483704,428.901123 
	C581.942627,425.467041 579.424927,422.015686 576.787842,418.421661 
	C573.148376,421.055023 572.644409,423.545746 575.498840,426.539795 
	C578.002930,429.166443 579.793579,432.005768 577.806458,435.772491 
	C574.911621,435.843781 575.048096,433.507080 574.252930,432.050018 
	C572.259705,428.397675 569.269165,426.651703 565.154236,427.604462 
	C550.128479,431.083466 534.915039,432.024414 519.547485,431.374969 
	C515.180908,431.190399 515.173157,431.373230 512.000183,433.473969 
	C514.479980,435.627350 516.630554,437.910461 520.191772,435.208252 
	C520.941162,434.639587 522.436707,434.922699 523.568176,435.028748 
	C524.548828,435.120605 525.510193,435.487915 526.464172,435.784760 
	C534.912659,438.413391 543.323914,440.309082 552.251526,437.642792 
	C558.399109,435.806732 564.808472,436.696625 571.110474,437.245056 
	C585.538696,438.500763 599.963013,439.796631 614.471924,439.560913 
	C615.788086,439.539520 617.290833,439.410400 618.393311,439.960236 
	C621.992737,441.755493 624.309143,441.087463 625.829163,437.205475 
	C627.065491,434.048035 629.570435,434.062836 631.921143,435.816895 
	C634.323853,437.609650 636.019775,437.273346 637.802429,435.023956 
	C639.303162,433.130188 641.549194,431.119751 643.644287,433.284607 
	C646.165894,435.890137 642.913208,437.194275 641.308716,438.640747 
	C640.340393,439.513702 639.252197,440.253601 638.161499,441.096863 
	C641.681458,445.840393 645.174072,450.451691 648.543884,455.150970 
	C649.459351,456.427643 650.985962,458.114410 649.240112,459.549866 
	C647.161499,461.258881 645.894775,459.078705 644.823242,457.769135 
	C641.448914,453.645111 638.176941,449.434174 634.967896,445.179565 
	C633.430481,443.141235 631.825134,441.472198 629.184753,443.167114 
	C626.229248,445.064331 628.561218,446.888428 629.519897,448.634186 
	C632.486023,454.035522 635.528015,459.395294 638.483337,464.802460 
	C639.201355,466.116211 640.019287,467.827179 638.486389,468.872375 
	C636.573242,470.176819 635.400391,468.403259 634.540039,467.032928 
	C631.173950,461.671234 627.859253,456.275085 624.639893,450.824188 
	C622.180054,446.659363 619.024414,444.848907 613.905029,445.621918 
	C602.733887,447.308655 591.692993,444.740631 580.586670,443.962646 
	C571.168213,443.302917 561.483398,438.430054 552.572632,441.637909 
	C542.142700,445.392670 532.879639,443.304230 523.145020,440.050598 
	C520.202209,450.099762 518.729004,459.600555 517.427917,469.136261 
	C516.994751,472.311249 519.099365,473.146332 521.574097,473.610657 
	C527.460266,474.714996 533.349548,475.802185 539.627136,476.954651 
	C540.016663,477.013000 539.982727,476.992645 539.982727,476.992645 
	C551.474487,487.462433 566.928101,488.574066 580.588440,493.786682 
	C594.380127,499.049469 608.773315,503.319550 623.615906,504.260925 
	C637.532654,505.143585 651.567627,505.751587 665.489258,503.668671 
	C673.437805,502.479431 678.939819,498.415680 682.658997,490.919708 
	C692.877625,470.324219 702.101868,449.276245 711.898376,428.491608 
	C717.435242,416.744110 723.328613,405.158081 729.997559,393.997467 
	C731.025208,392.277710 731.723938,389.888519 735.466553,389.987061 
	C733.672729,402.056000 726.876221,412.154266 723.419006,424.514069 
	C728.833557,418.605438 733.531311,413.479034 738.897522,407.623108 
	C739.619080,412.672058 737.180481,415.364532 735.298584,418.021240 
	C732.511780,421.955566 729.331238,425.706146 725.288025,428.410675 
	C720.898010,431.347229 718.554321,435.527008 716.450867,440.171265 
	C708.341736,458.075134 699.633545,475.670258 688.968384,492.240265 
	C680.668518,505.135345 668.243225,510.887268 653.715637,513.358154 
	C640.662720,515.578186 627.866821,513.887451 614.577515,511.151978 
	C614.056702,511.026276 613.808289,510.860321 613.808289,510.860321 
	C610.363647,509.324341 607.463013,509.493530 605.509460,513.273132 
	C605.070190,514.123047 604.244995,514.857056 603.440918,515.421143 
	C598.314148,519.017822 594.221069,522.798584 598.031189,529.911560 
	C599.030396,531.776917 597.217407,533.738342 595.535645,534.927063 
	C593.229858,536.556946 590.903625,538.254639 588.357544,539.426270 
	C584.005737,541.428894 582.624146,544.720215 583.385742,549.153442 
	C583.993286,552.689941 585.613464,555.966492 585.575073,559.720764 
	C585.551697,561.997559 587.877502,561.768127 589.498230,561.509949 
	C606.077026,558.868713 622.717712,559.792725 639.328369,560.827637 
	C648.801086,561.417786 657.191345,565.997742 665.834351,569.390991 
	C690.821289,579.200928 715.004639,590.736572 738.193298,604.286438 
	C741.229431,606.060608 742.519165,605.163086 743.894775,602.337280 
	C747.867432,594.176697 750.567871,586.062378 749.862610,576.545349 
	C748.138123,553.275208 752.670837,530.510498 757.169983,507.820038 
	C762.235535,482.272888 765.334717,456.520111 763.550476,430.470123 
	C761.974792,407.464661 757.296265,384.980011 749.203918,363.329041 
	C745.045898,352.204437 742.502136,340.677551 739.867493,329.168060 
	C738.634827,323.782867 736.115967,319.300751 732.448181,315.266785 
	C720.940063,302.609924 708.045410,291.131409 699.179810,275.832153 
	C701.420166,272.666016 704.157532,271.527496 707.513489,274.885834 
	C719.761475,287.142609 731.927490,299.428619 741.299194,314.212280 
	C747.449707,323.914673 751.221741,334.540253 754.742676,345.293518 
	C755.990723,349.105255 757.751221,349.577789 761.646545,349.425079 
	C770.908813,349.061920 779.539795,344.335297 789.199524,346.499664 
	C805.384155,350.126007 812.006409,356.726837 814.316833,373.124420 
	C814.734192,376.086304 815.093323,379.060028 815.359192,382.039001 
	C816.233765,391.839844 818.605835,394.643890 828.682861,397.512421 
	C830.761536,398.104095 832.933289,398.403076 834.967834,399.108826 
	C839.798096,400.784332 841.940002,403.741425 842.497131,409.385925 
	C845.617004,440.995178 835.764038,470.866364 830.781616,501.362274 
	C828.263916,516.772583 825.690796,532.192139 822.407227,547.486877 
	C819.223083,562.318359 810.419678,570.468933 795.700439,573.487122 
	C789.178528,574.824402 782.657471,575.373535 776.356201,575.572327 
	C775.763428,595.250488 773.965637,614.209595 768.784546,632.733093 
	C766.907715,639.443054 763.945068,645.524536 758.499634,650.085571 
	C756.442322,651.808716 756.110413,653.402466 757.822815,655.579346 
	C759.792480,658.083130 760.676147,661.177185 761.796021,664.261658 
	C766.418701,664.100647 769.302673,661.674072 771.481140,658.061401 
	C776.872192,649.121643 778.838135,639.153931 779.566406,628.999329 
	C780.519653,615.706848 781.935120,602.508301 784.724487,589.471985 
	C785.566772,585.535278 787.013245,581.812866 789.000793,578.323303 
	C789.703247,577.090027 790.376343,575.261414 792.278687,575.935730 
	C794.160828,576.602844 794.353027,578.380676 793.981750,580.141968 
	C792.293335,588.152161 792.267944,596.348267 791.236145,604.427002 
	C789.594543,617.279602 789.441345,630.320190 786.338867,642.989929 
	C784.787354,649.325989 782.790222,655.489624 779.552307,661.180481 
	C776.290710,666.913086 771.928467,671.354797 765.033447,672.262573 
	C762.730713,672.565796 761.851624,673.868469 761.514893,675.794189 
	C760.812866,679.807800 759.127808,683.396484 757.020813,686.826721 
	C756.673035,687.393127 756.042847,688.036621 756.112061,688.570862 
	C757.124023,696.386353 750.977722,696.965332 745.974609,698.851440 
	C742.865295,700.023621 739.882996,701.539368 736.870483,702.957947 
	C735.978577,703.377991 734.596741,703.847168 734.424438,704.539062 
	C732.440247,712.507935 725.391724,711.218323 719.957336,712.216492 
	C712.447632,713.595764 704.804565,714.365479 697.130066,714.466064 
	C691.952759,714.533997 687.855469,716.448120 685.124329,721.111755 
	C684.140869,722.791138 682.502258,724.086853 680.906677,725.838623 
	C684.914856,729.755127 682.124695,732.261963 678.398376,733.071228 
	C671.619690,734.543396 670.725525,738.572876 670.986572,744.643066 
	C671.350525,753.106750 670.694031,761.619812 670.338318,770.105957 
	C670.221252,772.897095 670.786011,774.801147 673.746521,775.877563 
	C676.780212,776.980591 678.218872,779.393127 678.494690,782.820496 
	C679.582031,796.331665 678.095581,809.771240 677.720642,823.241638 
	C677.545288,829.539612 677.690613,835.846497 677.690613,841.821533 
	C713.564270,848.268372 746.474304,863.954346 780.700195,875.567627 
	C783.193054,876.413513 785.544250,877.801758 787.799744,879.198669 
	C794.372681,883.269592 796.298401,890.518860 792.840698,897.799011 
	C793.703796,899.251587 795.392822,899.148254 796.706787,899.711914 
	C810.584412,905.665466 812.601562,922.713562 800.485107,931.859619 
	C791.924622,938.321472 781.895447,938.532288 774.106445,932.653931 
	C768.328674,928.293396 763.794128,915.515381 768.564575,907.204041 
	C769.918884,904.844360 768.568176,901.803528 771.007629,899.744385 
	C767.539001,896.437561 763.388062,896.216797 759.625488,895.496460 
	C735.444763,890.866638 711.294861,886.133667 687.716980,878.912109 
	C685.605896,878.265564 684.192688,878.766541 682.283813,879.968689 
	C675.197754,884.431213 668.638367,889.444092 662.968628,895.626404 
	C661.971436,896.713806 660.429199,897.894043 659.036072,896.650940 
	C657.199951,895.012634 659.113831,893.709778 660.017273,892.435364 
	C660.496155,891.759705 661.151428,891.210632 661.647278,890.545105 
	C665.799805,884.971741 669.878662,879.351074 677.728882,878.760620 
	C678.791138,878.680664 679.797058,877.852295 680.775818,877.395386 
	C681.264343,875.105896 677.429443,873.507935 680.325623,871.056274 
	C682.654907,869.084595 684.662842,870.214966 686.838745,870.896240 
	C708.458557,877.665039 730.693909,882.015869 752.605530,887.638306 
	C761.652832,889.959717 770.559570,892.623169 778.671265,897.448792 
	C781.402771,899.073669 784.460449,898.302124 786.624023,896.788147 
	C789.059021,895.084351 785.964844,893.008972 785.841736,891.091492 
	C785.344543,883.347656 779.169067,882.616943 773.773132,880.937317 
	C753.755554,874.706543 733.335022,869.647522 714.101318,861.117554 
	C702.830933,856.119202 691.542236,851.238892 679.448730,848.660095 
	C677.456055,848.235168 675.812683,845.268005 673.059265,847.678040 
	C672.299500,848.343079 670.891846,846.407410 670.697632,845.059143 
	C670.295349,842.266113 669.823242,839.440735 669.857239,836.634399 
	C670.045166,821.143005 670.397278,805.653625 670.633423,790.162720 
	C670.663269,788.206726 671.065796,786.165771 669.739075,783.685120 
	C661.835815,784.910706 653.678345,786.409241 645.142761,784.329346 
	C645.222961,806.982483 643.794006,829.035950 643.213928,851.871643 
	C636.036072,845.182007 633.432861,845.103027 625.730835,850.579895 
	C625.324768,850.868652 624.512939,851.188782 624.543091,851.401733 
	C625.537170,858.421265 619.328918,856.925720 616.073975,858.062317 
	C591.884644,866.509094 568.334656,877.088379 543.189697,882.375122 
	C533.697571,884.370911 530.907654,889.177002 530.911682,897.548523 
	C530.911865,897.873535 530.997681,898.198547 531.080994,898.787903 
	C534.035278,900.168335 537.171082,898.144287 540.600342,898.954224 
	C541.010925,899.001892 540.973633,898.972534 540.973633,898.972534 
M204.209381,689.499512 
	C203.992569,706.314819 203.008072,723.103088 202.442200,739.903625 
	C201.645966,763.542969 201.533981,787.205566 201.163773,810.858826 
	C201.056870,817.688721 201.010910,824.520752 201.034683,831.351440 
	C201.151077,864.794250 197.168823,898.162354 199.295959,931.646545 
	C199.905594,941.243347 199.715347,941.058350 209.427353,942.160156 
	C213.161926,942.583862 214.396027,941.452820 214.963608,937.916260 
	C217.932114,919.420044 219.132523,900.730164 217.376755,882.182678 
	C214.038116,846.914062 214.309158,811.674255 215.919235,776.388367 
	C216.996323,752.783386 218.579269,729.200745 219.573395,705.592896 
	C220.267517,689.109314 219.338501,672.616577 218.626541,656.143860 
	C217.972443,641.009155 216.936584,625.891296 216.155350,610.761536 
	C215.055832,589.468262 214.002884,568.166748 214.840897,546.839111 
	C215.042542,541.707214 215.665802,536.549988 217.520737,531.660889 
	C217.952896,530.521790 218.500504,529.441284 219.929947,529.534302 
	C221.214767,529.618042 221.420837,530.578064 221.398453,531.684509 
	C221.261093,538.471619 221.130554,545.259033 221.035431,552.046875 
	C220.990036,555.286926 221.027634,558.528198 221.027634,562.126648 
	C224.305038,560.910889 223.172638,556.757996 226.519241,556.753662 
	C228.018570,558.781311 225.288666,560.993774 226.973938,563.073547 
	C228.379425,564.028137 230.042969,563.546021 231.681076,563.434021 
	C250.460403,562.149292 269.237122,561.682922 288.074188,562.318848 
	C304.698334,562.880127 321.409821,564.053040 337.972229,561.781006 
	C355.259644,559.409607 372.386017,555.815491 389.958862,556.000671 
	C416.435608,556.279663 442.914246,556.407776 469.389587,556.779114 
	C476.033325,556.872314 482.693298,557.418396 489.300537,558.159790 
	C501.547760,559.534119 513.775940,561.259277 526.131592,560.605408 
	C534.106384,560.183472 542.071045,559.401550 550.008362,558.499695 
	C555.716980,557.851135 561.727173,553.634277 561.829285,550.008240 
	C562.085022,540.925781 561.913757,531.831299 561.913757,522.359924 
	C560.845703,522.359924 559.372864,522.319092 557.902771,522.366028 
	C539.270142,522.960632 520.637085,523.541016 502.005890,524.178345 
	C476.007751,525.067505 450.052490,523.229004 424.071167,522.935425 
	C399.102112,522.653259 374.171844,520.288025 349.163391,521.412720 
	C316.371826,522.887451 283.546082,523.157104 250.742493,522.757385 
	C234.711029,522.562073 218.846191,524.893982 202.853180,524.416199 
	C199.883850,524.327454 198.167633,525.532227 198.394073,528.893433 
	C198.572617,531.543640 198.371338,534.221497 198.301086,536.886108 
	C197.676819,560.564880 200.592987,584.044250 202.060333,607.612183 
	C203.736267,634.530396 204.627136,661.507324 204.209381,689.499512 
M609.507690,224.990234 
	C607.068787,223.558594 606.708557,220.939621 606.018372,218.593643 
	C604.193298,212.390533 602.521790,206.142258 600.705383,199.610291 
	C599.758301,201.295792 600.251282,203.461899 597.673096,203.861145 
	C593.898132,201.197815 594.591980,196.184982 592.316895,192.557434 
	C586.974060,194.794220 584.749634,188.969482 580.147400,187.841034 
	C575.164062,197.603287 567.982056,193.379028 561.211243,189.719666 
	C557.038391,201.454819 551.835938,202.454788 540.258789,193.876556 
	C539.034119,199.870956 541.042908,207.362152 532.653381,209.316223 
	C534.147827,214.304474 535.576538,218.736389 536.799255,223.224457 
	C539.326599,232.501129 539.514221,241.557892 534.526733,250.286224 
	C530.147095,257.950806 530.398987,258.319489 538.741333,261.312042 
	C539.991882,261.760620 541.251160,262.212219 542.439697,262.797882 
	C543.548828,263.344421 544.476074,264.335632 544.029602,265.594299 
	C542.776794,269.125977 545.165344,271.621002 546.321655,274.458771 
	C547.903564,278.341064 550.137451,280.646484 554.581238,277.860260 
	C555.511475,277.277039 556.816528,277.213898 557.968567,277.079315 
	C559.963684,276.846191 562.447021,276.537506 562.862061,279.088989 
	C563.248230,281.462311 560.729248,281.629669 559.044189,282.152344 
	C557.263062,282.704803 554.948059,281.975830 553.684753,284.697083 
	C559.526245,291.460083 566.554626,295.352020 575.869690,294.189758 
	C581.886475,293.439026 587.454773,291.289459 592.997986,288.960510 
	C600.628479,285.754608 607.732727,281.337341 614.552673,279.067230 
	C622.897400,285.435516 628.157898,293.145721 631.910400,302.352570 
	C646.980713,288.595062 661.371460,275.035797 677.570984,262.713318 
	C672.454712,257.526276 669.473022,251.413727 665.613892,245.722656 
	C660.658997,251.483566 659.060669,250.936478 655.891296,242.834305 
	C648.557312,247.675766 649.826965,238.547287 646.488708,236.953415 
	C642.939209,237.776031 639.557129,238.584900 636.163086,239.340149 
	C631.855347,240.298706 634.045044,246.263885 630.007263,247.499268 
	C627.337646,241.755142 629.251648,236.540833 634.869263,234.122742 
	C641.895447,231.098297 648.284424,227.331268 651.562927,219.931747 
	C654.316772,213.716278 653.225281,206.016922 648.720703,201.800491 
	C643.877808,197.267456 638.430664,198.422989 632.840820,200.442093 
	C625.654236,203.038010 623.025940,208.829926 621.285278,215.553513 
	C618.945251,224.592209 618.842590,224.565643 609.507690,224.990234 
M771.301514,563.685242 
	C777.647278,563.447632 783.782898,561.795105 790.031677,560.904541 
	C793.220520,560.450012 796.428589,559.963562 796.737610,564.519836 
	C806.598389,563.175049 810.911438,558.965088 813.590210,547.801392 
	C817.086182,533.231873 817.525269,518.153503 820.578369,503.523285 
	C826.756409,473.918488 831.853333,444.129303 836.567505,414.266937 
	C837.539490,408.109772 836.097656,405.852905 830.074036,404.255371 
	C828.467041,403.829193 826.869202,403.350525 825.241699,403.022736 
	C820.265137,402.020477 816.369812,404.679535 815.686401,409.720978 
	C815.307678,412.514832 815.518982,415.388580 815.142029,418.182831 
	C811.609741,444.364899 807.356750,470.443848 807.104492,496.996429 
	C807.011780,506.750336 805.182434,516.516541 802.836487,526.058716 
	C802.216980,528.578369 802.205994,531.855286 798.795898,532.713928 
	C796.208008,531.171021 797.370728,528.393738 796.404846,526.314148 
	C795.114685,535.038391 793.505981,543.549438 793.138611,552.213440 
	C793.061646,554.027466 791.834961,555.262085 790.668030,556.421814 
	C789.619690,557.463623 788.288452,558.663635 786.819031,557.176025 
	C785.445251,555.785217 786.155151,554.276978 787.442139,553.307922 
	C790.015991,551.369873 790.284424,548.545593 790.649109,545.754761 
	C791.230530,541.305481 791.662842,536.836853 792.243103,532.387451 
	C794.091553,518.212952 796.134155,504.024536 796.549377,489.745270 
	C797.179565,468.067566 800.699646,446.737366 803.235168,425.284790 
	C805.285461,407.937439 807.204346,390.579163 805.580566,373.078094 
	C804.909729,365.848358 802.858459,359.872314 794.979858,356.644592 
	C784.266663,352.255646 774.451538,354.993195 764.354248,358.135803 
	C760.557922,359.317322 759.880066,361.272461 761.198486,364.861694 
	C764.007629,372.509735 766.218140,380.330292 767.904907,388.334442 
	C775.187073,422.891785 776.978271,457.473175 769.648071,492.292969 
	C765.678772,511.147461 761.778198,530.021851 758.660156,549.049622 
	C756.659790,561.256226 758.732971,564.059387 771.301514,563.685242 
M202.537292,498.981201 
	C194.165741,499.440979 185.970688,497.520508 177.665634,497.169312 
	C175.523102,497.078735 172.184677,496.173615 171.671432,499.126984 
	C171.040115,502.759644 169.566025,508.518005 172.394928,509.938843 
	C177.200195,512.352295 181.388992,516.516663 187.440186,516.631775 
	C218.937805,517.230713 250.347626,514.218018 281.849823,514.653442 
	C311.658020,515.065491 341.476105,514.127563 371.260956,516.493896 
	C381.513519,517.308472 391.823395,518.513672 402.180481,517.439758 
	C411.449921,516.478577 420.724121,515.456787 430.073090,515.710938 
	C441.562073,516.023193 453.050934,516.567322 464.540436,516.582825 
	C483.195282,516.608032 501.850281,516.217896 520.505859,516.128296 
	C538.784729,516.040466 557.064331,516.109131 575.125488,516.109131 
	C576.320190,513.127197 575.705933,510.785583 575.690491,508.499481 
	C575.618225,497.842560 575.255859,497.506348 564.506714,497.355682 
	C562.342285,497.325317 560.147583,497.200928 558.015625,497.485504 
	C547.596924,498.876312 537.135010,499.300293 526.634155,499.443665 
	C513.145264,499.627838 499.645630,499.833527 486.177368,500.539978 
	C466.686951,501.562256 447.194244,501.992950 427.782166,500.018768 
	C422.445190,499.475952 420.010010,500.362640 419.453644,505.665619 
	C419.301117,507.119507 418.805359,508.925232 416.814240,508.638794 
	C414.626587,508.324036 414.728394,506.387817 414.752625,504.697418 
	C414.785461,502.405823 416.420380,500.298706 415.578766,497.879883 
	C414.024445,496.923920 412.291992,497.154633 410.692596,497.301483 
	C399.723633,498.308685 388.761719,497.514252 377.796844,497.333374 
	C367.632965,497.165649 357.493988,497.685699 347.344574,498.231750 
	C334.197388,498.939087 321.015228,497.257599 307.921967,497.617371 
	C273.124390,498.573486 238.333679,499.138153 202.537292,498.981201 
M533.594543,683.943787 
	C535.205078,687.765625 534.775696,692.530273 539.647705,694.766174 
	C547.636597,698.432495 555.568542,699.685791 564.603394,699.225098 
	C603.811951,697.225891 643.077209,696.344910 682.199158,692.723267 
	C701.905212,690.899048 721.605225,688.942078 741.416748,688.705688 
	C744.136536,688.673218 745.772461,687.570740 746.747742,685.111328 
	C748.590210,680.465027 750.183167,675.763977 751.142517,670.832886 
	C752.780884,662.411865 748.415283,654.737793 740.257385,652.050964 
	C736.945251,650.960022 733.621704,649.903564 730.316772,648.791443 
	C728.401672,648.147034 726.803040,648.093750 726.015625,650.654907 
	C730.089111,652.973389 736.010376,649.923706 739.142273,655.479004 
	C737.662903,656.112732 736.526672,656.860596 735.294617,657.086670 
	C723.525940,659.246155 711.755554,661.683655 699.787598,662.157410 
	C668.027527,663.414551 636.257507,664.475159 604.483459,665.306274 
	C589.760071,665.691406 575.320007,667.402466 561.177795,671.584717 
	C552.528137,674.142639 549.516052,678.063965 549.298401,687.278503 
	C549.247192,689.447937 549.934448,691.852356 547.851562,694.325378 
	C541.561890,685.811768 545.930481,678.309875 549.283386,670.735046 
	C536.383789,671.249268 533.805237,673.117554 533.594543,683.943787 
M260.063538,761.354858 
	C252.892548,749.485779 247.009064,737.006165 243.098862,722.685120 
	C240.804184,726.470032 240.947632,727.051453 242.569672,731.977905 
	C250.718323,756.727051 264.106506,778.398376 281.023590,798.047668 
	C285.146881,802.836792 289.426361,807.557800 292.456665,813.169312 
	C298.560333,824.472046 307.759796,832.739929 318.206787,839.835999 
	C322.071320,842.460938 324.872040,841.748108 326.697479,837.820068 
	C314.792847,830.931641 304.789703,822.451965 298.084839,810.508545 
	C297.086060,808.729553 295.293304,806.326050 297.780243,804.781677 
	C299.887238,803.473206 301.327667,805.943665 302.601440,807.345215 
	C309.828583,815.297058 318.562988,821.428650 327.049927,827.871277 
	C329.366577,829.629944 330.917511,829.610535 332.743958,827.039246 
	C336.608795,821.598450 341.241913,816.791138 345.913025,812.021179 
	C347.805511,810.088562 350.001434,808.247314 351.034393,805.492798 
	C345.075867,802.232544 339.128235,799.525330 333.776550,795.930786 
	C324.012573,789.372864 317.809448,780.822205 318.539337,768.076294 
	C319.165710,757.138000 318.657166,757.102661 308.193756,754.349548 
	C307.781921,754.241272 307.283051,754.463745 306.845795,754.528931 
	C306.009888,758.378784 305.220978,762.105042 304.384216,765.820496 
	C304.044312,767.329956 303.549469,768.927368 301.545227,768.560364 
	C299.650421,768.213379 299.556885,766.555969 299.551544,765.010742 
	C299.537323,760.879089 299.546692,756.747314 299.546692,752.413635 
	C295.405426,751.664917 292.560242,748.336121 288.918365,746.385010 
	C284.731110,749.189087 283.205261,754.846313 277.839233,756.095886 
	C276.218536,754.028992 277.056122,752.027222 278.117462,750.834961 
	C284.109924,744.103455 281.238983,738.668884 276.016235,733.373108 
	C274.972534,732.314819 274.231018,730.965027 273.282043,729.805420 
	C269.488678,725.170227 266.272644,720.026733 261.596924,716.163452 
	C257.917450,713.123291 253.666870,713.952026 248.069534,718.274658 
	C244.994766,720.649170 246.670883,723.142212 247.697357,725.406860 
	C253.828430,738.934082 261.225952,751.760315 269.325317,764.206604 
	C277.951447,777.462341 287.274872,790.294861 294.246155,804.573914 
	C294.778442,805.664246 296.024719,806.748413 293.907074,808.399719 
	C283.055328,792.649597 269.771851,778.774719 260.063538,761.354858 
M421.435516,895.563538 
	C417.685150,897.979065 413.939178,900.401489 410.182617,902.807373 
	C408.150604,904.108765 408.997925,905.536804 409.888855,907.063843 
	C411.314575,909.507446 412.794769,911.935974 413.981079,914.496399 
	C414.747681,916.150940 415.261139,918.257446 413.388275,919.500366 
	C411.171875,920.971375 410.047913,918.869629 409.057831,917.454285 
	C406.423157,913.687866 403.948822,909.809204 401.442596,906.023376 
	C395.067719,908.557434 388.906891,909.704224 382.604706,910.473999 
	C377.837280,911.056274 373.098816,912.131042 368.452606,913.378418 
	C363.803162,914.626648 359.743896,921.256531 360.401276,926.447937 
	C361.021759,931.347961 365.552765,930.585876 368.649200,931.177612 
	C387.454803,934.771362 406.355957,934.243225 425.307373,932.220459 
	C439.509644,930.704590 453.419281,927.253296 467.749359,926.468750 
	C476.711121,925.978088 485.729187,926.515625 494.651703,925.076233 
	C497.615173,924.598206 498.998810,923.550293 498.799347,920.254395 
	C498.236755,910.956909 497.989929,901.640503 497.572479,892.333679 
	C497.523590,891.243774 497.700623,889.909729 495.915558,889.387085 
	C489.755524,894.285645 482.493988,896.733765 474.585480,897.809448 
	C462.398926,899.467102 449.790558,893.073059 444.056427,882.108643 
	C442.423248,878.985840 439.884460,878.307922 437.127930,880.767639 
	C434.896423,882.758911 432.986938,885.108276 430.783020,887.133972 
	C427.954224,889.734131 428.366821,891.776428 431.376038,893.876831 
	C433.139496,895.107727 434.728027,896.623291 436.252441,898.153076 
	C437.819366,899.725464 439.374695,901.584106 437.337830,903.749023 
	C435.558746,905.640015 433.652954,904.551147 431.987946,903.301453 
	C428.665070,900.807617 425.384979,898.256714 421.435516,895.563538 
M298.587372,318.069305 
	C295.175751,314.085114 292.610535,318.876740 289.038361,318.349335 
	C296.278015,331.776489 302.621246,344.786346 308.286377,358.108704 
	C324.708588,396.727631 342.465454,434.723877 361.341797,472.198853 
	C362.920502,475.333038 364.147278,478.840027 367.625580,481.065643 
	C369.527618,478.128113 370.854340,475.315979 372.034302,471.685333 
	C368.368164,471.531036 368.135437,468.892792 367.776886,466.111877 
	C367.571136,464.516174 366.765839,462.953308 366.026917,461.477539 
	C354.845001,439.144714 343.596466,416.845245 332.430298,394.504547 
	C320.069977,369.774780 308.733093,344.587738 298.587372,318.069305 
M751.202759,606.670166 
	C749.603943,608.359741 749.429749,610.374939 749.326660,612.636475 
	C749.131287,616.925171 745.173157,619.816406 740.816101,619.039124 
	C741.374695,616.162109 745.461609,615.478149 745.141968,611.993347 
	C743.715698,611.845093 742.118225,612.671814 740.287537,610.821899 
	C739.547241,622.263245 732.452698,630.854370 729.841553,641.184814 
	C735.079773,642.543274 740.150574,643.210144 744.638733,645.194641 
	C749.670776,647.419739 752.511780,645.212952 755.242981,641.793640 
	C757.138977,639.420044 758.072144,636.583496 758.726685,633.609131 
	C760.941345,623.545349 762.051270,613.308533 763.676636,603.152588 
	C765.163147,593.863770 765.843262,584.438110 768.891479,575.154907 
	C765.244751,574.259521 762.196655,573.093445 758.334900,573.369141 
	C758.334900,579.118286 758.224487,584.736633 758.364258,590.348755 
	C758.521790,596.672607 754.915222,601.294189 751.202759,606.670166 
M380.772858,484.391052 
	C382.762238,484.274048 384.763580,483.954712 386.739136,484.071533 
	C405.212708,485.163818 423.675934,484.404205 442.150085,484.055908 
	C455.947449,483.795776 469.749725,482.582611 483.556244,483.706970 
	C493.847198,484.545044 504.136261,485.271301 514.468933,484.697083 
	C521.777832,484.290955 529.085571,483.862762 536.393799,483.444458 
	C536.391724,482.866119 536.389648,482.287781 536.387512,481.709473 
	C483.393341,475.519501 429.974243,478.701385 376.655243,475.256470 
	C376.197174,478.261627 375.781158,480.990845 375.373383,483.666138 
	C377.035645,484.827362 378.562714,484.429047 380.772858,484.391052 
M486.190552,864.345337 
	C476.577728,864.348328 466.926758,865.018494 457.445404,862.713379 
	C455.093414,862.141479 453.585327,862.692444 453.277374,865.421265 
	C453.112183,866.885376 452.580292,868.318665 452.126617,869.737976 
	C449.826050,876.935608 451.133240,880.716614 457.550781,884.673889 
	C468.205048,891.243591 479.146851,889.330688 490.120178,885.615479 
	C491.625122,885.106018 492.196228,884.123169 491.765259,882.536499 
	C490.481323,877.809387 490.776520,872.983459 490.967255,868.173035 
	C491.076111,865.428467 489.849152,864.148132 486.190552,864.345337 
M342.585876,792.889099 
	C343.298950,793.316956 344.042755,793.701294 344.719849,794.180054 
	C347.944183,796.459717 350.389557,796.797729 352.471039,792.459229 
	C354.107056,789.049255 356.726624,786.080872 359.688995,783.617065 
	C362.904144,780.943115 362.858582,778.842285 359.492676,776.158569 
	C352.720734,770.759094 346.706818,764.537170 341.053528,757.965942 
	C339.921204,756.649780 338.966675,754.880310 336.985382,754.860840 
	C331.207764,759.400818 326.525452,763.804688 327.852570,772.449036 
	C328.680573,777.842590 329.504730,782.484131 333.788330,786.005554 
	C336.482513,788.220337 339.242188,790.355408 342.585876,792.889099 
M366.698853,936.160461 
	C364.173004,935.479065 361.647125,934.797668 359.010437,934.086365 
	C358.806091,936.310425 359.686279,937.368103 361.611481,937.784729 
	C364.205017,938.345886 366.755310,939.109863 369.352448,939.650879 
	C382.377411,942.364258 395.546417,941.169250 408.642090,940.733887 
	C427.712219,940.099915 446.686096,936.597046 465.849243,938.742493 
	C474.983337,939.765198 484.073303,939.838867 493.217224,938.744019 
	C500.828888,937.832581 502.575928,934.664673 498.605011,927.703735 
	C490.926422,931.879028 482.584473,932.598206 473.994385,932.304382 
	C459.839447,931.820190 445.773041,932.752625 431.761444,934.984802 
	C410.422638,938.384277 389.051300,942.174316 366.698853,936.160461 
M574.685425,546.509155 
	C574.522949,540.214966 578.835022,537.615540 583.718994,535.335022 
	C591.358032,531.768188 591.804932,530.982544 589.393799,523.194824 
	C587.851135,518.212524 589.262817,514.812866 593.682495,512.357666 
	C596.302673,510.902191 598.862305,509.337738 602.091614,507.445923 
	C594.752380,505.557281 588.287842,503.893738 581.417175,502.125671 
	C581.637634,503.550598 581.831909,504.345459 581.874023,505.148285 
	C582.388672,514.963501 584.601074,519.889587 571.322449,521.332825 
	C568.431946,521.647034 568.128906,523.738892 568.152161,526.072266 
	C568.216614,532.550354 568.154907,539.011841 567.479370,545.480103 
	C566.730103,552.654602 567.360168,553.104797 575.095093,552.744873 
	C574.959229,550.943054 574.823364,549.140625 574.685425,546.509155 
M435.746277,422.369232 
	C437.197144,423.850739 439.892120,424.826752 439.334839,427.272522 
	C438.723724,429.954620 435.820801,429.914032 433.608490,430.474915 
	C429.255951,431.578461 424.866119,432.550079 420.555328,433.796326 
	C418.657166,434.345062 416.384857,435.243011 418.150330,437.977966 
	C420.090454,440.983429 430.134674,441.325317 432.089172,438.443451 
	C435.836365,432.918457 440.731995,428.839508 446.753387,425.990112 
	C448.917236,424.966217 451.268158,423.953430 452.322632,420.984558 
	C444.624420,415.898376 436.464569,412.280090 428.010620,409.258362 
	C426.352051,408.665558 424.926697,408.761993 423.495209,410.192841 
	C417.017365,416.667877 412.140228,423.991760 410.416565,433.391754 
	C417.643738,427.092255 426.074524,424.021149 435.746277,422.369232 
M393.662140,493.080627 
	C369.803864,490.581177 346.022461,491.922455 324.411438,493.814026 
	C334.063995,493.814026 345.860992,493.906525 357.655975,493.792786 
	C376.297516,493.613037 394.924896,493.690887 413.563385,494.428253 
	C422.125214,494.766998 430.005615,497.950867 439.016571,497.328461 
	C469.213531,495.242706 499.525208,494.849426 529.785706,493.629486 
	C537.302979,493.326447 544.865356,494.420410 553.250305,493.163574 
	C549.737122,491.436768 547.095703,490.047363 544.373474,488.840332 
	C543.087158,488.269989 541.494629,487.175140 540.301147,488.812897 
	C537.488098,492.673065 533.401428,492.218262 529.421692,492.356537 
	C513.953064,492.893860 498.464661,492.357941 483.019257,492.670959 
	C453.549957,493.268311 424.093719,493.383667 393.662140,493.080627 
M651.649231,774.671448 
	C651.540100,776.250122 650.694519,777.945374 652.552429,779.443420 
	C654.515442,779.212830 656.639709,778.754578 658.763000,778.759216 
	C662.666321,778.767761 664.100952,776.976318 663.747620,773.172363 
	C663.348755,768.878235 663.087524,764.560974 663.012634,760.249512 
	C662.900146,753.769104 663.031799,747.284790 662.994141,740.802551 
	C662.982727,738.830505 663.158386,736.443542 660.270691,736.381897 
	C657.540039,736.323608 654.695496,735.462708 652.010010,736.873230 
	C652.797791,749.308350 652.628479,761.569275 651.649231,774.671448 
M678.571472,719.810486 
	C678.063721,717.166016 676.032410,718.320312 674.811462,718.601868 
	C668.263367,720.111938 661.657654,720.375244 654.989746,720.039368 
	C650.839539,719.830383 646.687683,719.633545 642.534119,719.521118 
	C640.666382,719.470581 638.693359,719.575012 638.421387,722.082642 
	C638.181030,724.299133 638.156738,726.541565 640.886108,727.378784 
	C642.620972,727.911072 644.378906,728.405396 646.159180,728.745972 
	C652.992432,730.053345 659.688110,728.721558 666.426270,727.725586 
	C671.532959,726.970764 675.487793,724.674377 678.571472,719.810486 
M659.362549,710.692627 
	C667.120544,709.996582 674.887573,709.385925 682.631653,708.559631 
	C685.453369,708.258545 687.197754,706.503540 687.781677,702.906616 
	C670.262390,704.187683 653.309753,705.988770 636.392090,708.092712 
	C636.418213,708.962585 636.444275,709.832397 636.470398,710.702271 
	C643.777954,710.702271 651.085571,710.702271 659.362549,710.692627 
M728.220398,703.027283 
	C730.981873,701.320312 733.743347,699.613281 737.083801,697.548401 
	C725.848450,696.853149 715.609497,699.129150 705.261963,700.121948 
	C700.589783,700.570190 697.459167,702.924561 694.158875,707.267395 
	C705.880737,705.535950 716.811157,705.545532 728.220398,703.027283 
M465.334351,582.028015 
	C464.046570,584.166077 463.353577,586.423950 465.291046,588.455627 
	C467.290436,590.552307 469.824554,590.126587 472.288300,589.313110 
	C475.472656,588.261963 477.497986,585.880981 479.318390,583.225403 
	C480.611298,581.339172 481.680145,579.352661 480.075928,577.295349 
	C478.624054,575.433411 476.377655,575.075806 474.156097,575.589478 
	C470.615875,576.408020 467.795135,578.381470 465.334351,582.028015 
M256.459045,465.220612 
	C238.412384,465.220612 220.365707,465.220612 202.319046,465.220612 
	C231.390900,467.833740 260.544739,466.380249 289.679382,466.792999 
	C278.933807,466.270508 268.188263,465.747986 256.459045,465.220612 
M436.524536,406.619629 
	C438.635559,407.927551 440.391724,407.658173 442.310486,405.938232 
	C446.446106,402.231079 449.666718,397.585754 454.897247,394.944366 
	C457.502258,393.628937 455.720917,391.719147 453.772217,390.560089 
	C450.540619,393.134369 447.414307,395.534119 444.391785,398.058197 
	C441.412933,400.545807 437.981110,402.595825 436.524536,406.619629 
M298.572113,404.600220 
	C299.436768,404.360687 300.572021,405.069611 301.497986,403.294617 
	C279.133942,403.613373 257.139008,402.209991 235.105042,402.110809 
	C256.018250,402.410889 276.827881,405.185791 298.572113,404.600220 
M406.190735,426.119904 
	C406.509827,424.395599 407.722473,422.798889 407.007629,420.869324 
	C404.412811,419.859283 403.625610,421.558716 403.271790,423.435699 
	C402.202515,429.107697 399.577759,434.827606 403.754639,440.505615 
	C404.482971,435.965576 405.211304,431.425507 406.190735,426.119904 
M565.066284,559.019653 
	C563.815918,560.322449 563.486877,561.687439 565.314758,562.643860 
	C567.673889,563.878235 569.689331,566.527344 572.912903,564.789368 
	C575.255188,563.526550 576.595337,561.769165 576.191101,558.535522 
	C572.448425,559.696594 569.073059,558.190369 565.066284,559.019653 
M409.173218,447.407166 
	C404.825500,447.445801 400.277802,448.288696 396.858368,443.988586 
	C398.286896,446.818481 398.483856,450.093140 401.607147,451.366638 
	C403.531281,450.631744 404.494934,447.715729 407.215942,449.402893 
	C408.563873,450.238647 408.689697,448.732208 409.173218,447.407166 
M395.647980,434.350494 
	C395.647980,432.303345 395.647980,430.256195 395.647980,427.622345 
	C391.772736,431.687958 391.794891,432.840576 395.437378,437.591370 
	C395.514374,436.565338 395.572845,435.785919 395.647980,434.350494 
M428.181580,650.272217 
	C428.209595,652.582336 428.160583,654.896606 428.287476,657.201294 
	C428.411682,659.457092 427.842285,661.852844 429.350342,664.780334 
	C429.907990,656.338318 429.659393,653.408203 428.181580,650.272217 
M620.298157,709.960327 
	C622.399475,710.916870 624.455505,711.396057 627.085022,709.046875 
	C624.169189,707.687195 622.060486,705.585327 620.298157,709.960327 
M388.084045,443.918274 
	C386.755371,445.016998 385.060333,445.828888 384.847778,448.283813 
	C387.174957,448.914795 389.071381,448.238373 390.246307,446.358704 
	C391.064453,445.049835 390.390533,443.861389 388.084045,443.918274 
z"/>
<path fill="#000000" opacity="1.000000" stroke="none" 
	d="
M541.030701,899.015015 
	C537.787048,895.218018 541.219727,894.470459 543.680359,893.824646 
	C554.943298,890.868164 566.222595,887.958740 577.558411,885.298340 
	C593.750244,881.498352 609.873657,877.131165 626.272888,874.610352 
	C634.112000,873.405396 636.981506,870.587219 637.350708,863.263428 
	C637.527100,859.765015 638.876465,856.325745 639.869263,852.119568 
	C643.509216,856.296692 642.516174,860.520630 642.630859,864.737366 
	C645.979126,862.736084 646.879883,858.174622 651.683167,857.155151 
	C650.777100,872.800720 637.862915,883.926697 636.997253,899.065552 
	C644.462158,900.366638 646.509399,899.311279 649.542847,893.442566 
	C653.061340,886.635620 656.749878,879.916321 660.387878,873.171631 
	C661.091064,871.868042 661.713684,870.434143 664.194702,869.964111 
	C665.219482,876.204529 661.492249,880.882629 659.147278,885.775085 
	C656.708862,890.862366 653.563721,895.610901 650.808289,900.368347 
	C650.860046,901.518250 651.506592,902.112427 652.257996,902.435852 
	C661.124512,906.252808 663.328125,914.523071 664.173035,922.590149 
	C665.346252,933.791138 654.585876,943.607483 641.969788,944.216736 
	C630.255371,944.782410 623.314758,940.963501 620.207092,932.242249 
	C616.690247,922.372314 619.842285,911.070618 628.293701,905.008789 
	C631.540527,902.679993 633.264282,900.528381 631.659607,896.477234 
	C629.549927,891.151428 632.050964,886.118469 633.857666,880.073425 
	C602.836731,888.133606 572.575562,894.843323 541.384521,898.941040 
	C540.973633,898.972534 541.010925,899.001892 541.030701,899.015015 
z"/>
<path fill="#000000" opacity="1.000000" stroke="none" 
	d="
M260.292480,662.876831 
	C260.399384,672.678589 262.805176,681.828369 262.327240,691.189819 
	C262.167267,694.323181 262.030945,697.448120 258.202667,699.537781 
	C255.962296,695.075134 256.161407,690.579224 255.730148,686.270996 
	C253.985336,668.840454 254.742844,651.350769 254.685638,633.882080 
	C254.633835,618.065918 254.704712,602.249329 254.676529,586.433044 
	C254.671432,583.576477 255.010574,580.790894 255.763489,578.047241 
	C256.187805,576.500977 257.017181,575.143555 258.737366,575.148499 
	C260.635773,575.153992 260.972748,576.812439 261.292572,578.310120 
	C262.902100,585.847473 262.506592,593.546936 263.005157,601.165283 
	C263.865601,614.313843 262.751556,627.433533 261.025787,640.468567 
	C260.057983,647.778870 260.207214,655.075073 260.292480,662.876831 
z"/>
<path fill="#000000" opacity="1.000000" stroke="none" 
	d="
M656.950989,417.983887 
	C651.767517,423.113068 645.598206,426.089935 639.561401,429.256042 
	C638.115173,430.014587 636.372070,430.963928 635.381348,428.631683 
	C634.494263,426.543152 635.998535,425.267975 637.547852,424.810303 
	C643.452698,423.066010 643.600037,418.702789 643.889099,413.555756 
	C644.656067,399.898651 648.433472,386.945099 656.281128,375.632782 
	C660.018372,370.245514 658.384094,364.345398 659.368347,358.757751 
	C660.519592,352.222412 662.431702,346.140259 665.728882,340.536774 
	C671.082642,331.438110 677.897217,323.475891 685.873108,316.549957 
	C687.720093,314.946136 689.586731,313.174774 692.501038,313.107574 
	C693.713440,315.515137 691.765137,316.757019 690.591431,318.142670 
	C686.397949,323.093170 682.056396,327.918915 677.891418,332.892731 
	C670.516846,341.699371 664.558044,351.412537 663.082581,362.947205 
	C660.968140,379.476807 654.367737,394.769043 650.787109,410.870361 
	C650.365540,412.766174 649.907532,414.653931 649.382141,416.906921 
	C653.368713,416.498474 655.071106,412.205414 658.842957,412.427277 
	C660.229736,414.950287 658.368286,416.230011 656.950989,417.983887 
z"/>
<path fill="#000000" opacity="1.000000" stroke="none" 
	d="
M269.493195,895.068481 
	C264.680389,895.655273 260.433960,895.223694 256.335968,893.487793 
	C254.323883,892.635498 251.878479,891.980774 252.237076,889.238953 
	C252.647308,886.102417 255.370377,887.075317 257.366455,887.050781 
	C255.366226,870.702393 253.480865,854.431030 253.632355,837.993958 
	C253.780136,821.961365 253.066666,805.863342 256.879639,788.830383 
	C261.468964,793.504944 260.849335,798.080505 260.733093,802.117554 
	C260.033356,826.419189 259.599060,850.709290 261.076202,874.997192 
	C261.317535,878.965454 260.312775,883.613037 262.057068,886.730896 
	C264.158234,890.486694 269.425262,888.087830 273.229431,888.892883 
	C274.545044,889.171265 275.843170,889.413757 276.807648,890.799927 
	C276.208679,894.862183 272.450867,893.971924 269.493195,895.068481 
z"/>
<path fill="#000000" opacity="1.000000" stroke="none" 
	d="
M278.140625,667.117249 
	C277.839905,682.086182 279.064911,696.618286 277.556824,711.585205 
	C274.315155,710.342712 274.835175,708.297791 274.866272,706.663635 
	C275.180054,690.173096 273.146515,673.726624 273.291077,657.303101 
	C273.459290,638.186401 271.546600,619.106201 272.728607,600.007629 
	C273.200500,592.382874 274.049713,584.780396 274.803009,577.175232 
	C274.947754,575.714050 275.320923,574.222839 277.045990,573.135681 
	C279.189545,575.499878 279.185455,578.546692 279.196808,581.304260 
	C279.298920,606.108398 279.283447,630.913391 279.181702,655.717590 
	C279.166779,659.357056 278.517517,662.993835 278.140625,667.117249 
z"/>
<path fill="#000000" opacity="1.000000" stroke="none" 
	d="
M606.831177,394.066650 
	C609.716553,384.654480 610.856812,375.096588 615.400696,366.049286 
	C618.316956,368.494720 617.929138,370.897614 617.722046,373.374420 
	C616.693176,385.674469 612.964111,397.470581 611.063538,409.602509 
	C610.370667,414.025299 609.997742,418.497528 609.432190,422.941284 
	C609.253174,424.347900 609.610596,426.031158 607.331177,426.992767 
	C601.275696,416.200775 604.394409,405.326569 606.831177,394.066650 
z"/>
<path fill="#000000" opacity="1.000000" stroke="none" 
	d="
M276.694153,850.785767 
	C276.731018,861.737488 276.731018,872.250305 276.731018,883.140198 
	C270.444336,878.054626 270.607147,833.257019 277.080780,823.840454 
	C279.988861,833.253662 276.332184,841.815857 276.694153,850.785767 
z"/>
<path fill="#000000" opacity="1.000000" stroke="none" 
	d="
M614.183105,511.106018 
	C615.072693,514.260925 613.451294,516.640137 611.937439,519.001831 
	C608.878784,523.773376 606.023315,528.532288 605.873535,534.515747 
	C605.780945,538.212585 602.967529,540.359558 599.995361,542.007751 
	C596.124451,544.154297 592.213318,546.305298 587.245667,546.497009 
	C587.228333,543.417847 589.401245,542.624817 591.153748,541.733948 
	C597.056580,538.733276 601.721924,535.501160 602.677246,527.710938 
	C603.480347,521.161621 608.555847,516.011902 613.557007,511.073853 
	C613.808289,510.860321 614.056702,511.026276 614.183105,511.106018 
z"/>
<path fill="#000000" opacity="1.000000" stroke="none" 
	d="
M650.805298,548.636047 
	C651.577820,546.005615 653.477722,546.524780 654.933105,547.003906 
	C667.361694,551.094971 679.751282,555.304626 692.148254,559.491516 
	C692.927612,559.754700 693.707947,560.082397 693.923584,561.119568 
	C693.812622,562.202820 692.887939,562.283142 692.113037,562.161499 
	C678.293335,559.990173 665.025757,555.925354 652.206543,550.368408 
	C651.658813,550.131042 651.298401,549.461853 650.805298,548.636047 
z"/>
<path fill="#000000" opacity="1.000000" stroke="none" 
	d="
M540.033447,477.024170 
	C535.253052,467.968414 536.453674,458.837555 539.827209,449.715210 
	C540.341980,448.323090 541.192688,446.795349 543.006104,447.185425 
	C544.674866,447.544373 544.645081,449.119873 544.358276,450.441284 
	C542.704529,458.062531 541.956848,465.765656 542.065735,473.560028 
	C542.082397,474.754242 541.778687,475.862915 540.309021,476.762451 
	C539.982727,476.992645 540.016663,477.013000 540.033447,477.024170 
z"/>
<path fill="#000000" opacity="1.000000" stroke="none" 
	d="
M674.568237,857.102051 
	C675.754272,856.100342 677.310120,855.207031 677.479736,856.911194 
	C678.099976,863.143616 679.196472,869.471863 677.119873,875.882019 
	C671.046204,872.533936 670.267700,866.147766 674.568237,857.102051 
z"/>
<path fill="#000000" opacity="1.000000" stroke="none" 
	d="
M639.139282,381.008972 
	C642.977783,381.179077 646.687012,380.255890 650.336670,384.152191 
	C645.114502,385.367004 640.986938,386.547150 636.777710,387.205200 
	C634.921814,387.495300 632.927917,386.122711 633.031128,384.077606 
	C633.214539,380.445587 636.381470,381.300934 639.139282,381.008972 
z"/>
<path fill="#000000" opacity="1.000000" stroke="none" 
	d="
M276.110474,413.679016 
	C281.837280,413.979248 287.225830,413.125824 292.192352,415.835419 
	C284.360291,415.835419 276.528259,415.835419 267.546387,415.835419 
	C270.572601,412.720673 273.295227,414.066406 276.110474,413.679016 
z"/>
<path fill="#000000" opacity="1.000000" stroke="none" 
	d="
M193.718048,422.328186 
	C192.490814,422.250214 191.639511,422.288300 191.134521,421.454529 
	C193.843552,419.197144 205.479538,418.847046 211.086929,421.071930 
	C208.245499,423.180542 205.271667,422.102478 202.566162,422.287323 
	C199.768311,422.478485 196.947525,422.334015 193.718048,422.328186 
z"/>
<path fill="#000000" opacity="1.000000" stroke="none" 
	d="
M197.526886,414.610046 
	C201.279617,414.902710 204.754776,413.905914 209.360168,416.196472 
	C203.406601,417.898346 198.826080,417.186035 194.140045,416.678558 
	C194.314941,414.040527 196.040192,414.940491 197.526886,414.610046 
z"/>
<path fill="#000000" opacity="1.000000" stroke="none" 
	d="
M614.140564,436.198730 
	C613.677795,433.917267 613.700500,431.952362 616.308594,432.028839 
	C617.900574,432.075531 619.234863,433.416901 618.753113,435.077911 
	C618.101440,437.324646 616.547424,438.354675 614.140564,436.198730 
z"/>
<path fill="#000000" opacity="1.000000" stroke="none" 
	d="
M660.827515,854.541382 
	C663.390564,855.669617 666.266418,855.613037 667.976379,858.510620 
	C664.248474,860.117371 661.770264,858.412598 659.546814,856.337646 
	C658.592163,855.446777 659.138428,854.591919 660.827515,854.541382 
z"/>
<path fill="#000000" opacity="1.000000" stroke="none" 
	d="
M551.776611,544.948608 
	C551.716919,537.624451 551.838379,530.808655 554.234192,523.927490 
	C558.980896,528.185974 558.162537,549.405151 553.420105,555.462952 
	C551.030396,552.333862 552.216492,548.734436 551.776611,544.948608 
z"/>
<path fill="#000000" opacity="1.000000" stroke="none" 
	d="
M548.630249,207.236206 
	C553.603027,206.045593 558.169495,206.043671 562.631714,207.760757 
	C563.693542,208.169342 564.925171,208.679565 564.906494,210.065582 
	C564.884033,211.738937 563.513794,212.149170 562.176208,212.392609 
	C557.791809,213.190582 553.401855,213.922073 549.190247,215.484711 
	C546.766541,216.383987 544.049683,216.929886 542.861511,213.838333 
	C541.818542,211.124542 543.911865,209.602371 546.012390,208.400986 
	C546.725098,207.993332 547.512390,207.715897 548.630249,207.236206 
z"/>
<path fill="#000000" opacity="1.000000" stroke="none" 
	d="
M635.990234,210.008545 
	C632.341614,212.624039 632.632690,217.803207 628.738953,221.344315 
	C626.331604,216.486679 628.566528,212.856247 630.361450,209.438538 
	C633.495300,203.471664 638.287903,200.434341 643.275208,200.923294 
	C642.486877,205.124207 637.357178,205.650208 636.114380,209.676529 
	C636.000000,209.999664 635.990234,210.008545 635.990234,210.008545 
z"/>
<path fill="#000000" opacity="1.000000" stroke="none" 
	d="
M559.860046,237.786591 
	C555.955566,240.551880 554.351562,237.832901 553.326233,235.204651 
	C552.232239,232.400345 550.649170,229.115540 554.042664,226.656784 
	C556.075562,225.183807 558.005981,226.088242 559.006165,228.098785 
	C560.465759,231.032761 561.908813,234.110092 559.860046,237.786591 
z"/>
<path fill="#000000" opacity="1.000000" stroke="none" 
	d="
M636.003662,209.993851 
	C638.686829,208.134903 640.441223,209.439468 641.567993,211.850586 
	C642.730652,214.338425 643.260742,217.179382 641.297607,219.365051 
	C639.832764,220.995956 638.549561,219.451584 638.021362,217.948425 
	C637.198059,215.605560 636.613159,213.178925 635.958740,210.398163 
	C635.990234,210.008545 636.000000,209.999664 636.003662,209.993851 
z"/>
<path fill="#000000" opacity="1.000000" stroke="none" 
	d="
M788.979614,369.776031 
	C789.170227,367.495789 789.462708,365.636139 791.607056,364.082489 
	C792.739014,367.714935 792.307556,370.757599 792.079651,373.967194 
	C789.336731,373.514221 789.556213,371.572784 788.979614,369.776031 
z"/>
<path fill="#000000" opacity="1.000000" stroke="none" 
	d="
M392.021484,504.167297 
	C393.192596,506.574097 395.317474,508.264069 394.655609,512.029175 
	C390.733063,509.176361 389.446655,505.684387 388.103668,501.668488 
	C390.545135,501.236115 390.937988,502.938812 392.021484,504.167297 
z"/>
<path fill="#000000" opacity="1.000000" stroke="none" 
	d="
M396.262146,476.833008 
	C403.375824,476.961609 410.035126,476.717041 416.652985,477.622162 
	C418.497162,477.874390 420.737885,477.886749 420.451904,480.444672 
	C420.203400,482.667572 418.006042,482.302917 416.412811,482.311646 
	C408.596252,482.354340 400.778870,482.373505 392.962952,482.289001 
	C391.284088,482.270905 388.681244,483.105591 388.357300,480.659668 
	C387.980713,477.816803 390.666748,477.450562 392.814484,477.069366 
	C393.790802,476.896088 394.800110,476.908478 396.262146,476.833008 
z"/>
</svg>