<svg version="1.1" id="Layer_1" xmlns="http://www.w3.org/2000/svg" xmlns:xlink="http://www.w3.org/1999/xlink" x="0px" y="0px"
	 width="100%" viewBox="0 0 1024 1024" enable-background="new 0 0 1024 1024" xml:space="preserve">
<path fill="none" opacity="1.000000" stroke="#000000" stroke-linecap="round" stroke-linejoin="round" stroke-width="9.000000"
	d="
M876.000000,924.000000 
	C873.045227,926.764648 869.248474,927.609558 865.494324,927.934143 
	C850.174683,929.258728 834.833679,930.338318 819.499878,931.498596 
	C804.000366,932.671570 788.506653,933.933594 772.997681,934.964661 
	C762.676697,935.650818 752.331604,935.967529 742.000366,936.507080 
	C723.332397,937.482056 704.666748,938.500671 685.999817,939.496704 
	C685.501221,939.523254 684.999512,939.485291 684.500061,939.502136 
	C659.833313,940.333069 635.138306,940.702637 610.512817,942.209351 
	C599.351501,942.892090 588.150879,943.433838 576.984131,944.293945 
	C568.062744,944.981018 558.994324,943.939453 550.002258,943.458374 
	C544.989807,943.190247 539.944458,942.814819 535.009766,941.944458 
	C515.616943,938.523926 495.992096,939.576355 476.495728,939.283447 
	C463.184631,939.083557 449.778168,939.419983 436.515350,938.712280 
	C422.968903,937.989441 409.487946,938.211670 396.002594,938.592285 
	C369.500946,939.340271 343.021362,940.750732 316.500671,941.058960 
	C301.663544,941.231384 286.834625,942.043030 271.999664,942.488953 
	C253.834381,943.035095 235.611618,942.801147 217.517868,944.226624 
	C203.678864,945.316956 189.765488,944.180725 175.980423,946.377075 
	C171.369873,947.111755 167.949005,944.995300 164.757233,940.679565 
	C159.447311,933.499573 153.339142,926.916565 148.949738,919.027954 
	C148.182999,917.650024 146.829849,917.235840 144.963058,917.895447 
	C143.132706,918.542175 141.000000,918.333313 139.000000,918.500000 
"/>
<path fill="none" opacity="1.000000" stroke="#000000" stroke-linecap="round" stroke-linejoin="round" stroke-width="8.000000"
	d="
M835.250000,73.000000 
	C836.097412,82.839790 835.943604,92.738205 837.842407,102.530556 
	C838.685974,106.880905 838.810242,111.553825 838.821960,116.000473 
	C838.851074,127.024681 840.209106,137.963547 840.107666,149.000992 
	C839.908447,170.664291 840.726013,192.339676 840.375793,213.997986 
	C840.095398,231.334259 840.509521,248.679535 839.891357,265.996124 
	C839.331726,281.671478 839.221375,297.348785 839.632385,312.996521 
	C840.201599,334.669891 839.789307,356.333588 839.981689,378.000153 
	C840.224426,405.332825 839.961609,432.675507 840.611328,459.997345 
	C841.186096,484.170166 840.618042,508.335724 841.026611,532.499573 
	C841.401428,554.668335 841.800659,576.840027 842.549255,598.998352 
	C843.534546,628.162048 844.134949,657.348816 843.266785,686.493042 
	C842.715332,705.003784 842.850586,723.500427 842.482727,741.999634 
	C842.240784,754.168152 841.835938,766.333374 841.496460,778.499878 
	C841.457336,779.901001 841.229065,781.155029 840.623230,782.553406 
	C839.282288,785.648438 837.722229,788.574951 838.752991,792.563843 
	C839.607300,795.869934 837.119019,799.423157 835.419250,802.454712 
	C828.087830,815.530273 821.667419,829.107239 811.586060,840.575623 
	C794.605896,859.892090 774.835999,875.161865 750.993408,884.983948 
	C747.333496,886.491699 743.729004,888.608582 739.500000,887.000000 
"/>
<path fill="none" opacity="1.000000" stroke="#000000" stroke-linecap="round" stroke-linejoin="round" stroke-width="6.000000"
	d="
M834.500000,76.500000 
	C828.293579,76.490242 821.943054,77.040482 816.026978,74.924545 
	C804.296936,70.729202 793.001343,75.727844 781.502625,76.083931 
	C774.988220,76.285660 768.493591,77.276764 762.001526,78.013206 
	C752.162476,79.129326 742.346069,80.462845 732.493591,81.434875 
	C728.668701,81.812233 724.810852,82.106766 720.990662,82.359047 
	C702.977539,83.548645 685.055969,85.767685 667.007690,86.655815 
	C654.174744,87.287315 641.326660,87.876297 628.513062,88.702774 
	C616.157166,89.499725 603.777527,88.335800 591.515015,89.641068 
	C582.682983,90.581184 573.966797,92.671463 565.000916,91.988358 
	C551.518677,90.961166 537.976868,91.106148 524.516785,90.239418 
	C516.324768,89.711914 508.163940,89.899063 500.000061,89.498726 
	C486.499847,88.836716 473.002960,87.688316 459.499359,87.604614 
	C435.162537,87.453758 410.851685,89.094330 386.500519,89.167885 
	C376.345123,89.198547 366.156952,89.635422 356.001923,89.412621 
	C339.807159,89.057312 323.677765,90.484604 307.502411,90.689545 
	C295.682251,90.839294 283.845581,92.019844 272.007782,92.646957 
	C260.174469,93.273842 248.304947,93.708809 236.514694,94.678596 
	C214.695007,96.473305 192.895615,97.719154 170.999466,97.595535 
	C166.053741,97.567612 161.111938,97.102806 156.565292,95.776207 
	C151.424561,94.276260 146.558197,94.460320 141.500000,95.000000 
"/>
<path fill="none" opacity="1.000000" stroke="#000000" stroke-linecap="round" stroke-linejoin="round" stroke-width="7.000000"
	d="
M837.500000,789.000000 
	C834.744507,788.871521 832.847900,790.592102 831.560730,792.540100 
	C825.383789,801.888733 815.735535,806.659180 806.498413,811.997314 
	C796.820374,817.590210 786.283142,821.110779 775.457886,823.290955 
	C769.857483,824.418823 763.906555,825.625977 757.985352,824.055237 
	C756.583984,823.683411 754.973267,823.818176 753.505005,824.034180 
	C749.105957,824.681396 747.726807,826.590393 749.063232,830.980774 
	C750.712158,836.397644 751.601135,841.817017 751.554565,847.500427 
	C751.461243,858.901733 747.938416,869.009460 741.012268,878.009460 
	C739.210815,880.350342 737.258972,882.619873 738.925659,886.036255 
	C739.592834,887.403748 738.158447,888.199280 737.034119,889.045349 
	C732.547180,892.421692 726.997620,892.050232 721.971985,893.395325 
	C708.726379,896.940674 695.175415,898.839844 681.504761,900.053650 
	C667.316711,901.313293 653.173828,903.073181 638.996155,904.460327 
	C634.014099,904.947754 628.967712,905.046265 623.989685,905.281555 
	C603.473450,906.251282 583.120422,910.037781 562.500610,908.987610 
	C539.347534,907.808350 516.138977,907.963379 493.010132,906.798645 
	C455.334351,904.901550 417.667938,905.757080 379.999573,905.643921 
	C371.350922,905.617920 362.653992,905.585999 354.002319,906.044006 
	C327.850647,907.428345 301.654785,907.505432 275.506958,908.657715 
	C250.339294,909.766846 225.160385,910.732056 200.004379,912.081726 
	C185.003662,912.886597 170.022079,914.075195 154.999481,914.480774 
	C152.176529,914.556946 149.834030,915.286987 148.500000,918.000000 
"/>
<path fill="none" opacity="1.000000" stroke="#000000" stroke-linecap="round" stroke-linejoin="round" stroke-width="12.000000"
	d="
M837.000000,85.500000 
	C838.000000,85.500000 839.421753,85.068085 839.933655,85.567940 
	C844.287537,89.819061 850.189026,91.631897 854.839844,95.208237 
	C856.891541,96.786041 858.605164,99.225975 861.029175,100.441872 
	C866.351868,103.111877 868.038879,109.100807 872.497864,112.502815 
	C873.346069,113.149979 874.066040,114.129654 875.016174,114.452339 
	C881.616089,116.693695 882.577332,122.685959 882.825928,128.008133 
	C883.626648,145.152969 883.383179,162.344711 884.071838,179.497116 
	C884.931030,200.899490 882.995300,222.173828 882.189270,243.507156 
	C881.747314,255.207153 880.069641,266.832397 880.137451,278.499207 
	C880.216858,292.169281 880.962830,305.865356 882.139954,319.487915 
	C882.837036,327.554077 882.182556,335.516052 881.895508,343.496246 
	C881.463379,355.510681 880.320618,367.499115 879.502563,379.500183 
	C877.368591,410.807037 877.760193,442.164642 878.110596,473.498749 
	C878.407104,500.004761 879.487854,526.507629 880.613586,552.995178 
	C880.933655,560.526733 880.905518,568.000000 880.500000,575.500000 
"/>
<path fill="none" opacity="1.000000" stroke="#000000" stroke-linecap="round" stroke-linejoin="round" stroke-width="6.000000"
	d="
M137.000000,100.500000 
	C136.082016,105.250366 135.998779,109.267258 140.338882,113.178764 
	C145.151016,117.515678 145.781052,124.524437 145.801544,130.500687 
	C145.903320,160.165863 145.670471,189.842163 144.893280,219.497208 
	C144.272125,243.198608 145.857224,266.831268 145.978836,290.500122 
	C146.081589,310.499573 146.000000,330.500000 146.000000,350.500000 
	C146.000000,363.833344 145.728455,377.173218 146.050644,390.498779 
	C147.037888,431.331543 146.265518,472.166901 146.461929,513.000183 
	C146.532486,527.665710 146.180206,542.333496 145.986526,556.999817 
	C145.954681,559.412170 145.931122,561.764771 148.000000,563.500000 
"/>
<path fill="none" opacity="1.000000" stroke="#000000" stroke-linecap="round" stroke-linejoin="round" stroke-width="11.000000"
	d="
M148.500000,564.500000 
	C148.666672,592.500000 149.083771,620.501465 148.920013,648.499512 
	C148.791199,670.523376 147.667953,692.526855 146.053375,714.503906 
	C145.246887,725.481384 145.017319,736.500793 144.495590,747.499817 
	C143.847260,761.167358 143.523315,774.862549 142.405228,788.492249 
	C141.148178,803.815674 140.720337,819.183228 139.760880,834.516296 
	C138.981216,846.976135 138.580353,859.517639 137.807327,871.988037 
	C137.093018,883.510986 137.102509,895.205139 134.000000,906.500000 
"/>
<path fill="none" opacity="1.000000" stroke="#000000" stroke-linecap="round" stroke-linejoin="round" stroke-width="8.000000"
	d="
M673.500000,373.500000 
	C681.211182,359.665649 691.213928,348.555908 706.443359,342.360779 
	C722.184631,335.957397 733.718201,324.365265 738.236267,307.927490 
	C742.481445,292.482513 738.971130,272.898254 722.017151,260.476593 
	C698.337219,243.127136 665.156067,248.043152 649.104126,273.066803 
	C641.425110,285.037781 638.914429,298.854797 642.795715,312.415375 
	C646.579529,325.635406 643.937622,337.051361 638.005188,348.502686 
	C636.233276,351.923065 637.541748,358.216034 640.504089,360.494659 
	C649.461975,367.384888 660.061584,370.780212 670.525208,374.427765 
	C671.164612,374.650635 672.166626,373.833313 673.000000,373.499969 
"/>
<path fill="none" opacity="1.000000" stroke="#000000" stroke-linecap="round" stroke-linejoin="round" stroke-width="6.000000"
	d="
M412.500000,920.000000 
	C380.687958,921.855286 348.815674,920.727234 317.009857,921.793579 
	C299.170288,922.391724 281.320190,921.797607 263.496399,922.943848 
	C248.847427,923.885925 234.137161,923.955139 219.507523,925.096497 
	C201.511169,926.500549 183.421799,926.611023 165.500000,929.000000 
"/>
<path fill="none" opacity="1.000000" stroke="#000000" stroke-linecap="round" stroke-linejoin="round" stroke-width="6.000000"
	d="
M851.500000,892.000000 
	C841.205383,891.899048 831.522644,895.474609 821.497375,896.982544 
	C813.176819,898.234192 804.836731,899.358582 796.499146,900.493591 
	C786.502869,901.854370 776.525146,903.441284 766.487183,904.360168 
	C762.659302,904.710510 758.830688,905.132751 754.999390,905.493286 
	C744.167847,906.512573 733.345459,907.679626 722.494141,908.413818 
	C717.988770,908.718689 713.495667,909.010132 708.993530,909.430725 
	C694.510925,910.783569 679.972961,911.582092 665.514832,913.137756 
	C660.519897,913.675171 655.500366,914.336060 650.500000,915.000000 
"/>
<path fill="none" opacity="1.000000" stroke="#000000" stroke-linecap="round" stroke-linejoin="round" stroke-width="5.000000"
	d="
M863.500000,712.500000 
	C863.453064,729.025024 862.542725,745.521545 861.430298,761.995300 
	C860.427124,776.850891 858.575073,791.650085 857.621582,806.507812 
	C857.216003,812.828918 856.620605,819.181091 856.602356,825.500305 
	C856.558289,840.749878 854.232849,855.816345 853.514221,871.000671 
	C853.157837,878.531677 851.189880,885.916931 851.511597,893.499512 
	C851.680359,897.479431 852.677002,900.533813 856.909302,902.678955 
	C862.195923,905.358459 866.612061,909.564087 869.494202,915.003113 
	C872.161804,920.037354 875.777588,923.377686 882.000000,922.250000 
"/>
<path fill="none" opacity="1.000000" stroke="#000000" stroke-linecap="round" stroke-linejoin="round" stroke-width="6.000000"
	d="
M881.000000,576.500000 
	C882.639648,577.966797 883.514832,579.745056 883.512756,582.000000 
	C883.498474,597.349976 883.155090,612.675964 882.130798,628.008728 
	C881.509583,637.309692 881.576050,646.671021 881.057312,656.003174 
	C880.474426,666.489319 879.962219,677.004211 880.080566,687.499084 
	C880.298584,706.835571 881.023621,726.166138 881.469971,745.500671 
	C881.525635,747.911133 882.168701,749.915833 884.000000,751.500000 
"/>
<path fill="none" opacity="1.000000" stroke="#000000" stroke-linecap="round" stroke-linejoin="round" stroke-width="13.000000"
	d="
M885.000000,753.000000 
	C883.820374,757.333313 885.095886,761.666626 885.000488,766.000000 
	C884.475403,789.837341 883.288513,813.651733 882.743286,837.494141 
	C882.259460,858.655334 881.056274,879.838501 879.851074,900.991516 
	C879.471680,907.650024 880.151855,914.356201 878.699097,921.043274 
	C878.030090,924.122620 879.499939,927.666687 879.999939,931.000000 
"/>
<path fill="none" opacity="1.000000" stroke="#000000" stroke-linecap="round" stroke-linejoin="round" stroke-width="6.000000"
	d="
M870.500000,120.500000 
	C869.512329,129.853943 870.649719,139.182144 871.092468,148.495605 
	C871.830017,164.011734 872.949829,179.491501 871.047791,195.005859 
	C870.562195,198.966751 870.561523,202.998856 870.517639,207.000198 
	C870.291443,227.673981 868.445435,248.303345 868.947693,269.001282 
	C869.113281,275.826538 868.666687,282.666656 868.500000,289.500000 
"/>
<path fill="none" opacity="1.000000" stroke="#000000" stroke-linecap="round" stroke-linejoin="round" stroke-width="14.000000"
	d="
M590.000000,440.500000 
	C585.000000,446.666656 579.932434,452.780487 575.042358,459.033142 
	C573.632263,460.836182 572.362488,462.759705 571.420044,464.965820 
	C569.140503,470.301331 564.531738,472.942169 559.000732,472.900879 
	C547.903564,472.818146 537.002869,474.705444 526.003967,475.551361 
	C521.984802,475.860443 519.103210,479.102448 515.482727,480.453674 
	C505.379211,484.224579 496.013092,489.159821 487.982056,496.480316 
	C484.479645,499.672882 479.659027,499.281067 475.464417,500.361908 
	C464.529510,503.179474 453.184570,502.862732 441.994049,503.368713 
	C435.902130,503.644165 429.987640,504.721985 423.999908,505.499298 
	C420.065826,506.010010 417.797668,509.382385 414.616364,511.203308 
	C408.897766,514.476562 403.572449,518.586182 398.985291,523.486206 
	C396.779510,525.842529 395.111298,528.267517 393.755890,531.394165 
	C391.149353,537.406860 385.098938,540.627930 380.005524,544.507263 
	C375.673218,547.806824 371.243408,550.962341 367.453125,554.955505 
	C364.707458,557.848145 364.097809,561.416199 362.859039,564.950623 
	C360.016998,573.059387 361.976196,581.363831 360.937958,589.492065 
	C360.577057,592.317627 362.873993,593.731323 363.672607,595.937500 
	C366.924622,604.920959 370.955017,613.618835 374.455780,622.517395 
	C376.661011,628.122864 380.578400,631.860657 386.014893,633.961487 
	C395.210419,637.514832 404.393738,641.098206 413.978516,643.582886 
	C417.788177,644.570435 421.757385,645.406799 424.609619,648.910767 
	C426.268921,650.949158 429.114990,651.557800 432.000214,651.544128 
	C446.126648,651.477295 459.951996,649.478699 473.500793,645.502686 
	C478.509888,644.032654 483.304749,642.003967 488.429352,640.718384 
	C493.009918,639.569275 495.937927,634.599609 500.478363,632.454224 
	C506.068939,629.812622 511.469055,626.770996 517.010742,624.021667 
	C520.776611,622.153259 524.044495,624.688354 527.862183,625.690430 
	C533.315796,617.945740 542.550598,617.803467 550.541992,615.125305 
	C554.406494,613.830261 558.554749,613.248657 562.520142,612.067688 
	C564.402771,611.506958 566.811157,610.931152 568.447754,611.623413 
	C576.897339,615.197754 584.853577,611.252441 592.998169,610.480896 
	C599.007385,609.911560 604.987671,609.010803 611.002869,608.536133 
	C620.210022,607.809692 628.852539,605.291016 636.995117,600.990723 
	C638.581909,600.152771 639.996643,599.253296 642.012451,599.964783 
	C655.591187,604.757507 669.597046,607.300842 684.000488,607.456726 
	C686.599854,607.484863 688.977783,608.176941 690.945679,609.576416 
	C693.205444,611.183350 695.643372,610.589661 697.986816,611.064880 
	C706.117554,612.713806 712.380005,608.899963 718.497742,604.496887 
	C727.659607,597.902832 735.276062,590.216125 737.562012,578.512085 
	C738.122009,575.645142 738.057861,572.820251 737.945374,570.002197 
	C737.698547,563.819519 739.247620,558.136169 742.562683,553.040771 
	C744.659241,549.818420 746.416687,546.443909 747.950928,542.978271 
	C751.867859,534.130554 750.184937,525.424194 746.456787,517.019165 
	C742.797791,508.770081 740.810059,499.803680 734.227905,492.786224 
	C731.831116,490.230957 733.869507,485.118347 734.686157,481.542511 
	C737.863403,467.631226 734.976685,455.675690 723.890686,446.634003 
	C718.062866,441.880829 712.026611,437.174683 705.039185,433.915955 
	C701.196899,432.124023 701.964844,427.751251 701.656250,424.485229 
	C701.244568,420.128510 700.825623,415.779541 699.962585,411.507568 
	C697.901489,401.304443 689.275391,393.766541 678.500000,392.500000 
"/>
<path fill="none" opacity="1.000000" stroke="#000000" stroke-linecap="round" stroke-linejoin="round" stroke-width="5.000000"
	d="
M864.500061,398.500000 
	C865.000061,415.000000 865.071472,431.528229 866.156128,447.989716 
	C866.838074,458.339996 867.231079,468.670441 866.922974,478.997711 
	C866.360779,497.839142 865.319519,516.666077 864.515686,535.500671 
	C864.402039,538.162537 864.500000,540.833313 864.500000,543.500000 
"/>
<path fill="none" opacity="1.000000" stroke="#000000" stroke-linecap="round" stroke-linejoin="round" stroke-width="5.000000"
	d="
M852.500000,912.000000 
	C844.666687,913.000000 836.832581,913.994263 829.000183,915.001221 
	C808.231018,917.671265 787.389160,919.516357 766.508240,921.108276 
	C751.839600,922.226685 737.197083,923.679138 722.511597,924.671814 
	C718.863892,924.918335 715.193359,925.460327 711.500000,925.500000 
"/>
<path fill="none" opacity="1.000000" stroke="#000000" stroke-linecap="round" stroke-linejoin="round" stroke-width="9.000000"
	d="
M621.500000,570.500000 
	C615.708008,573.647034 609.257935,573.490784 602.995667,573.939331 
	C591.316772,574.775696 579.663025,574.691345 567.981750,573.137207 
	C561.843567,572.320679 556.280518,573.520813 551.259338,578.769775 
	C546.453430,583.793640 540.530090,588.008850 533.571106,590.684875 
	C526.145813,593.540222 518.682068,593.954346 511.000092,594.013245 
	C501.242432,594.088013 492.046021,590.708618 482.500000,589.500000 
"/>
<path fill="none" opacity="1.000000" stroke="#000000" stroke-linecap="round" stroke-linejoin="round" stroke-width="7.000000"
	d="
M856.500000,99.000000 
	C855.304565,101.184311 854.903564,103.492638 854.969482,106.000801 
	C855.477417,125.346230 854.123962,144.666031 853.725037,163.994324 
	C853.401917,179.645920 852.810425,195.339005 852.117981,211.005219 
	C851.773071,218.808563 852.666687,226.666672 853.000000,234.500000 
"/>
<path fill="none" opacity="1.000000" stroke="#000000" stroke-linecap="round" stroke-linejoin="round" stroke-width="13.000000"
	d="
M249.000000,546.000000 
	C246.356216,557.667969 251.577332,572.188477 262.098785,578.330811 
	C272.454193,584.376282 283.093964,590.182373 294.992645,593.030701 
	C305.402618,595.522644 315.918518,595.919189 326.496918,594.965759 
	C337.722443,593.954102 348.974182,593.048645 360.000000,590.500000 
"/>
<path fill="none" opacity="1.000000" stroke="#000000" stroke-linecap="round" stroke-linejoin="round" stroke-width="10.000000"
	d="
M626.500000,339.250000 
	C624.386169,339.910767 622.472961,339.078339 620.495178,338.516968 
	C615.079102,336.979858 609.540894,336.357483 604.012573,337.557892 
	C599.932190,338.443939 597.569946,337.559357 595.340027,333.589874 
	C591.690063,327.092834 586.947632,321.101318 579.469727,318.590240 
	C575.473755,317.248444 571.117249,317.024414 567.009827,315.961945 
	C557.154480,313.412720 547.412354,310.865112 536.992981,311.348999 
	C528.916260,311.724121 521.305481,313.318695 514.018921,316.542816 
	C507.647217,319.362122 507.478516,319.514160 502.504639,314.994904 
	C497.106537,310.090210 490.139618,308.564392 483.488678,308.216400 
	C467.204315,307.364410 451.125153,309.258026 435.468933,314.405487 
	C428.099152,316.828552 423.368256,321.717438 419.449463,327.968323 
	C418.276215,329.839844 416.668640,331.537994 414.957336,332.948212 
	C412.817993,334.711029 411.415283,336.659515 411.500000,339.500000 
"/>
<path fill="none" opacity="1.000000" stroke="#000000" stroke-linecap="round" stroke-linejoin="round" stroke-width="11.000000"
	d="
M419.500000,326.000000 
	C414.501556,323.059296 409.156891,324.853180 404.002991,325.070557 
	C387.606171,325.762207 371.842102,329.427307 357.032806,336.568054 
	C351.331482,339.317139 345.991974,342.819519 340.503601,346.006195 
	C337.982574,347.469971 335.674438,349.599304 332.967194,350.387299 
	C324.934814,352.725281 320.938751,358.885651 316.896515,365.436157 
	C314.382416,369.510223 312.651062,374.174469 308.967773,377.463898 
	C308.184052,378.163788 307.906677,379.315186 306.507751,379.546844 
	C295.242859,381.412231 286.302216,388.166809 277.047668,394.074646 
	C267.460480,400.194885 261.991547,409.271973 259.957275,420.492249 
	C259.223297,424.540497 257.893768,428.477814 257.051025,432.510651 
	C256.702393,434.179047 255.446045,434.927063 254.487747,435.988953 
	C250.453751,440.459106 245.819305,444.304291 242.392456,449.428070 
	C238.391190,455.410767 236.947556,461.691193 238.571182,468.482971 
	C240.815735,477.872101 239.926315,486.616791 235.025528,495.014893 
	C228.620041,505.991547 230.518646,516.855347 236.033279,527.482727 
	C237.991974,531.257324 240.113708,534.986877 242.547348,538.466858 
	C247.102661,544.980774 254.169662,547.060974 261.500000,548.500000 
"/>
<path fill="none" opacity="1.000000" stroke="#000000" stroke-linecap="round" stroke-linejoin="round" stroke-width="11.000000"
	d="
M520.500000,337.500000 
	C510.897034,341.618683 502.263641,346.142456 500.833954,358.480774 
	C499.309540,371.636963 493.055481,383.061066 485.033325,393.525543 
	C482.671875,396.605988 481.010529,400.214996 478.866638,403.410522 
	C475.292542,408.737854 475.715515,413.783173 477.404114,419.528198 
	C480.411865,429.761261 482.833344,440.166656 485.500000,450.500000 
"/>
<path fill="none" opacity="1.000000" stroke="#000000" stroke-linecap="round" stroke-linejoin="round" stroke-width="7.000000"
	d="
M680.500000,624.500000 
	C676.488464,621.802734 672.504517,619.184326 667.505188,618.464050 
	C648.737366,615.760254 630.053711,613.686279 611.480408,619.941895 
	C602.205078,623.065796 592.303040,623.825989 582.981567,626.944824 
	C579.482544,628.115601 575.900574,628.853882 573.995056,632.497437 
	C572.940308,634.514282 571.147217,635.108276 568.999817,635.004211 
	C565.832397,634.850769 562.640381,635.336121 559.497192,634.510620 
	C555.478210,633.455017 551.771912,634.229614 547.967346,635.926880 
	C541.345032,638.881226 533.757141,635.982910 530.000977,629.499451 
	C529.327332,628.336792 528.666687,627.166687 528.000000,626.000000 
"/>
<path fill="none" opacity="1.000000" stroke="#000000" stroke-linecap="round" stroke-linejoin="round" stroke-width="13.000000"
	d="
M490.000000,641.000000 
	C495.676453,650.394226 501.251862,659.839294 505.514038,669.994080 
	C507.075836,673.715088 510.772705,675.456909 513.645081,677.823975 
	C514.794434,678.771057 516.240356,679.941650 517.964478,680.593872 
	C534.111328,686.701721 542.086975,700.139404 548.544434,714.980652 
	C551.278015,721.263245 554.703003,727.246338 557.400940,733.542419 
	C558.492981,736.090820 560.233765,737.762512 562.506104,737.867126 
	C567.025330,738.075317 570.993408,740.567688 575.500000,740.500000 
"/>
<path fill="none" opacity="1.000000" stroke="#000000" stroke-linecap="round" stroke-linejoin="round" stroke-width="10.000000"
	d="
M673.000000,503.000000 
	C667.968140,505.055817 664.674927,507.834564 663.206604,513.929321 
	C661.012146,523.037781 654.190918,529.603271 647.022949,535.527771 
	C642.566040,539.211487 638.219482,543.047058 634.031006,547.032593 
	C629.543884,551.302246 630.055237,556.858154 631.669922,561.946106 
	C632.776672,565.433716 636.713501,565.394348 639.999634,565.510132 
	C644.842896,565.680725 649.720581,564.953125 654.511719,566.462769 
	C658.535278,567.730530 661.725708,569.801697 662.949036,574.014771 
	C663.304016,575.237244 664.310547,575.192688 665.000000,575.750000 
"/>
<path fill="none" opacity="1.000000" stroke="#000000" stroke-linecap="round" stroke-linejoin="round" stroke-width="7.000000"
	d="
M561.500000,647.000000 
	C574.974731,651.653503 588.837769,654.356079 602.986450,656.109314 
	C616.130249,657.738037 629.341614,658.251526 642.495056,659.550293 
	C647.858337,660.079834 653.166687,661.166626 658.500000,662.000000 
"/>
<path fill="none" opacity="1.000000" stroke="#000000" stroke-linecap="round" stroke-linejoin="round" stroke-width="9.000000"
	d="
M427.500000,353.000000 
	C421.445984,354.708740 415.286377,355.167664 408.999084,355.049500 
	C396.762299,354.819489 384.653259,356.195831 373.025116,360.075287 
	C362.362000,363.632812 352.101532,368.381714 346.124115,378.572815 
	C342.739594,384.343201 341.126343,391.509277 332.000000,389.500000 
	C320.747833,393.678772 313.352783,401.017273 311.959167,413.495453 
	C311.470123,417.874329 310.536041,422.304016 309.301819,426.440857 
	C306.922638,434.415405 307.275787,442.156403 309.135254,449.967804 
	C309.389221,451.034760 309.014801,451.666656 309.000000,452.500000 
"/>
<path fill="none" opacity="1.000000" stroke="#000000" stroke-linecap="round" stroke-linejoin="round" stroke-width="13.000000"
	d="
M694.000000,612.000000 
	C692.836731,615.500000 694.205627,619.025757 693.933350,622.494751 
	C693.320557,630.299500 688.957764,636.610535 684.960571,642.975220 
	C681.799744,648.008484 678.085449,652.626099 674.094666,657.084717 
	C670.209656,661.425171 668.208923,667.116638 665.157837,672.096680 
	C660.293579,680.036194 650.609314,680.128845 644.958008,677.593567 
	C643.412354,676.900146 644.406067,676.201904 644.250000,675.500000 
"/>
<path fill="none" opacity="1.000000" stroke="#000000" stroke-linecap="round" stroke-linejoin="round" stroke-width="8.000000"
	d="
M299.500000,443.500000 
	C282.588196,444.425201 268.158173,449.726471 260.008636,466.004333 
	C257.335083,471.344513 256.375519,477.066101 256.497620,483.000061 
	C256.568237,486.433533 258.022034,489.388580 260.550842,491.437225 
	C265.545166,495.483337 270.833313,499.166687 276.000000,503.000000 
"/>
<path fill="none" opacity="1.000000" stroke="#000000" stroke-linecap="round" stroke-linejoin="round" stroke-width="6.000000"
	d="
M869.000000,819.500000 
	C870.302612,822.581604 868.625000,825.496948 868.485718,828.499329 
	C867.851440,842.167542 867.413391,855.851501 866.406311,869.493103 
	C865.813843,877.517761 865.502869,885.605103 863.584534,893.520508 
	C862.810730,896.713440 864.630310,900.569397 861.000000,903.000000 
"/>
<path fill="none" opacity="1.000000" stroke="#000000" stroke-linecap="round" stroke-linejoin="round" stroke-width="6.000000"
	d="
M636.500000,668.500000 
	C629.661194,668.399841 622.853699,668.787109 615.982727,667.880981 
	C607.455933,666.756592 598.932739,665.827515 590.484741,664.073425 
	C579.828918,661.860962 569.270813,659.529602 559.444824,654.610168 
	C558.870850,654.322815 557.500000,653.305237 556.500000,654.500000 
"/>
<path fill="none" opacity="1.000000" stroke="#000000" stroke-linecap="round" stroke-linejoin="round" stroke-width="10.000000"
	d="
M537.500000,508.500000 
	C531.602783,518.468079 526.556213,528.940857 522.211365,539.586243 
	C516.327454,554.002502 496.688416,558.627441 484.058746,553.844849 
	C475.618530,550.648743 472.013794,542.904663 470.000000,534.500000 
"/>
<path fill="none" opacity="1.000000" stroke="#000000" stroke-linecap="round" stroke-linejoin="round" stroke-width="7.000000"
	d="
M574.000000,639.000000 
	C578.056763,643.148376 583.635376,641.960510 588.520752,642.891174 
	C603.367859,645.719482 618.456604,646.755493 633.504822,647.938416 
	C638.474121,648.328979 643.500000,648.000000 648.500000,648.000000 
"/>
<path fill="none" opacity="1.000000" stroke="#000000" stroke-linecap="round" stroke-linejoin="round" stroke-width="6.000000"
	d="
M880.000000,576.500000 
	C875.866943,580.996826 876.815857,586.818115 876.667114,592.004822 
	C876.208801,607.991638 876.446777,624.000305 876.545227,639.999695 
	C876.564697,643.168335 877.166687,646.333313 877.500000,649.500000 
"/>
<path fill="none" opacity="1.000000" stroke="#000000" stroke-linecap="round" stroke-linejoin="round" stroke-width="8.000000"
	d="
M618.500000,453.000000 
	C617.104187,447.500000 619.382202,442.099976 618.673462,436.478149 
	C617.395203,426.338959 613.906738,417.587799 605.959595,411.049103 
	C601.115723,407.063629 595.100098,408.472595 589.501465,408.577454 
	C586.826355,408.627502 584.081116,409.238831 581.524963,410.076141 
	C579.141296,410.856934 577.110596,410.395630 575.000000,409.500000 
"/>
<path fill="none" opacity="1.000000" stroke="#000000" stroke-linecap="round" stroke-linejoin="round" stroke-width="9.000000"
	d="
M647.000000,464.500000 
	C644.398804,470.699402 642.103149,477.021576 638.022949,482.517059 
	C625.226562,499.751862 612.151550,516.701111 595.047058,530.060242 
	C592.415588,532.115540 590.067078,532.536865 586.981567,531.558167 
	C583.393982,530.420166 579.694275,531.026978 575.994873,531.455994 
	C564.281006,532.814392 552.831543,535.839172 541.008789,536.631042 
	C535.955139,536.969482 531.264038,536.169922 526.500000,535.000000 
"/>
<path fill="none" opacity="1.000000" stroke="#000000" stroke-linecap="round" stroke-linejoin="round" stroke-width="7.000000"
	d="
M665.500000,640.500000 
	C658.308594,638.441345 650.830139,638.092651 643.484070,637.120239 
	C629.571716,635.278625 615.606812,633.892578 602.000000,630.250000 
"/>
<path fill="none" opacity="1.000000" stroke="#000000" stroke-linecap="round" stroke-linejoin="round" stroke-width="10.000000"
	d="
M458.500000,360.500000 
	C454.404266,365.792236 448.427155,369.214294 444.149658,374.130219 
	C434.448853,385.278748 429.832977,398.739288 428.984558,413.499115 
	C428.569641,420.717560 427.615295,421.056946 420.493134,420.609344 
	C412.853210,420.129150 405.394928,417.900116 397.460083,419.836365 
	C386.559448,422.496246 378.274963,427.883087 371.259735,436.811218 
	C365.781830,443.782776 363.771484,451.336121 362.547302,459.507080 
	C361.952362,463.478149 360.164673,465.672302 356.003418,466.038849 
	C348.865631,466.667542 343.637054,470.415192 340.000000,476.500000 
"/>
<path fill="none" opacity="1.000000" stroke="#000000" stroke-linecap="round" stroke-linejoin="round" stroke-width="8.000000"
	d="
M478.500000,552.000000 
	C470.273285,556.857056 461.219879,560.205322 453.477356,565.969604 
	C446.969940,570.814331 439.157593,571.338867 431.499512,571.366516 
	C426.371735,571.385071 422.698395,572.914124 420.518280,577.508667 
	C417.258392,584.378784 412.708252,590.573547 410.417999,597.974609 
	C408.722443,603.453979 409.821899,607.780762 414.000000,611.500000 
"/>
<path fill="none" opacity="1.000000" stroke="#000000" stroke-linecap="round" stroke-linejoin="round" stroke-width="8.000000"
	d="
M394.500000,528.000000 
	C388.082947,526.388916 377.392761,520.538940 372.468842,516.538330 
	C362.280029,508.260040 350.485748,503.649353 337.500000,502.000000 
"/>
<path fill="none" opacity="1.000000" stroke="#000000" stroke-linecap="round" stroke-linejoin="round" stroke-width="13.000000"
	d="
M360.000000,571.999939 
	C352.166687,569.999939 344.333405,567.999634 336.499908,566.000366 
	C335.834106,565.830444 334.901825,565.891541 334.540344,565.465759 
	C330.193085,560.345459 323.917938,559.571106 317.998016,558.007507 
	C313.609436,556.848389 309.889069,553.527222 305.000000,554.000000 
"/>
<path fill="none" opacity="1.000000" stroke="#000000" stroke-linecap="round" stroke-linejoin="round" stroke-width="11.000000"
	d="
M427.000000,421.000000 
	C434.397308,432.637360 439.841949,444.895660 440.611389,458.993927 
	C440.949921,465.196686 442.500031,471.333344 443.500031,477.500000 
"/>
<path fill="none" opacity="1.000000" stroke="#000000" stroke-linecap="round" stroke-linejoin="round" stroke-width="9.000000"
	d="
M404.500000,450.500000 
	C408.804810,459.365295 410.064148,469.127380 412.332947,478.540253 
	C414.619354,488.026154 418.044952,496.915436 422.500000,505.500000 
"/>
<path fill="none" opacity="1.000000" stroke="#000000" stroke-linecap="round" stroke-linejoin="round" stroke-width="10.000000"
	d="
M685.500000,459.500000 
	C687.988525,475.644104 681.579956,489.305267 673.221008,502.347321 
	C675.937988,507.747894 680.843811,510.856964 684.620972,514.886597 
	C692.156799,522.926147 696.351196,532.292908 697.378418,543.011658 
	C697.881958,548.266235 696.581787,553.542725 694.500000,558.500000 
"/>
<path fill="none" opacity="1.000000" stroke="#000000" stroke-linecap="round" stroke-linejoin="round" stroke-width="10.000000"
	d="
M570.000000,355.500000 
	C570.036194,358.008667 569.617615,359.888306 566.527832,360.617767 
	C564.056824,361.201202 561.895630,362.985046 559.489197,363.973755 
	C549.021118,368.274536 543.410278,377.034546 538.485413,386.492401 
	C535.807556,391.635040 534.887512,397.804260 529.150146,401.250031 
	C528.258789,401.785370 527.162659,404.990936 527.421204,407.508087 
	C528.446106,417.488403 529.166626,427.500000 530.000000,437.500000 
"/>
<path fill="none" opacity="1.000000" stroke="#000000" stroke-linecap="round" stroke-linejoin="round" stroke-width="10.000000"
	d="
M274.500000,510.000000 
	C270.390808,512.867798 270.793396,517.414246 270.570435,521.503845 
	C269.921295,533.410828 274.183014,543.528015 282.468384,552.030823 
	C282.718292,552.287292 282.500000,553.000000 282.500000,553.500000 
"/>
<path fill="none" opacity="1.000000" stroke="#000000" stroke-linecap="round" stroke-linejoin="round" stroke-width="6.000000"
	d="
M631.500000,623.000000 
	C643.829529,624.923645 656.224304,626.533508 668.006470,630.982910 
	C670.603577,631.963684 673.208008,632.887573 675.500000,634.500000 
"/>
<path fill="none" opacity="1.000000" stroke="#000000" stroke-linecap="round" stroke-linejoin="round" stroke-width="5.000000"
	d="
M691.000000,311.000000 
	C694.166687,309.666687 697.237793,307.943390 700.533325,307.136169 
	C702.755371,306.591949 705.801270,306.196472 707.190979,309.028961 
	C708.415710,311.525238 706.676392,313.380432 704.976746,314.975220 
	C704.284119,315.625153 703.366089,316.067474 702.495178,316.490082 
	C685.110901,324.925934 677.591370,336.119324 670.524841,348.014771 
	C667.706970,352.758270 665.166626,357.666656 662.500000,362.500000 
"/>
<path fill="none" opacity="1.000000" stroke="#000000" stroke-linecap="round" stroke-linejoin="round" stroke-width="5.000000"
	d="
M668.000000,314.000000 
	C663.953918,308.962891 663.749634,302.629700 667.500000,298.500031 
	C669.644043,296.139099 670.905701,296.469299 672.028137,299.489563 
	C672.836243,301.664032 673.291748,303.950897 674.182495,306.129791 
	C675.031189,308.205658 674.303894,312.371674 670.967712,313.102722 
	C667.036194,313.964233 666.649719,316.805786 666.587463,319.502014 
	C666.275269,333.018616 660.670349,344.524475 653.500000,355.500000 
"/>
<path fill="none" opacity="1.000000" stroke="#000000" stroke-linecap="round" stroke-linejoin="round" stroke-width="10.000000"
	d="
M444.500000,330.500000 
	C444.584900,332.569702 444.355072,334.591614 443.496887,336.498596 
	C440.945038,342.169128 440.602692,347.838959 443.503174,353.498383 
	C446.334473,359.022705 445.276978,365.204895 446.500000,371.000000 
"/>
<path fill="none" opacity="1.000000" stroke="#000000" stroke-linecap="round" stroke-linejoin="round" stroke-width="15.000000"
	d="
M643.500000,677.500000 
	C630.815247,680.546814 618.256348,684.338562 604.999939,684.001587 
	C604.500305,683.988892 603.799744,683.782776 603.529480,684.031982 
	C597.835022,689.282898 590.848083,686.373779 584.486572,686.799866 
	C581.175354,687.021667 577.854431,687.755005 574.500000,687.500000 
"/>
<path fill="none" opacity="1.000000" stroke="#000000" stroke-linecap="round" stroke-linejoin="round" stroke-width="8.000000"
	d="
M505.000000,318.500000 
	C503.279541,322.009308 499.967743,323.823669 496.995270,325.993530 
	C496.025421,326.701508 494.985199,327.312286 494.002411,328.003418 
	C485.503296,333.980164 486.526337,342.079926 489.000000,350.500000 
"/>
<path fill="none" opacity="1.000000" stroke="#000000" stroke-linecap="round" stroke-linejoin="round" stroke-width="7.000000"
	d="
M450.500000,629.500000 
	C438.767944,628.474182 427.146729,630.034729 415.500000,631.000000 
"/>
<path fill="none" opacity="1.000000" stroke="#000000" stroke-linecap="round" stroke-linejoin="round" stroke-width="8.000000"
	d="
M318.500000,482.000000 
	C315.146545,483.068054 313.791382,486.286346 311.489868,488.489410 
	C303.922852,495.732727 297.997253,504.053741 294.500000,514.000000 
"/>
<path fill="none" opacity="1.000000" stroke="#000000" stroke-linecap="round" stroke-linejoin="round" stroke-width="12.000000"
	d="
M574.500000,673.500000 
	C570.574768,681.926331 573.657715,690.574524 574.302612,698.976807 
	C574.746582,704.761475 575.434021,710.693604 576.355164,716.522888 
	C576.977722,720.462952 578.426575,723.719604 580.432922,727.040527 
	C583.265320,731.728638 583.391418,737.275330 584.500000,742.500000 
"/>
<path fill="none" opacity="1.000000" stroke="#000000" stroke-linecap="round" stroke-linejoin="round" stroke-width="8.000000"
	d="
M663.500000,386.000000 
	C663.500000,394.624268 661.590210,396.137573 652.990967,395.072723 
	C649.851807,394.684021 646.694641,394.591431 643.438232,395.838806 
	C640.844849,396.832306 637.817078,396.861359 636.824829,392.540222 
	C636.314392,390.316956 634.613281,388.198242 632.570862,386.418671 
	C624.899597,379.734619 625.344910,377.152100 634.500000,372.000000 
"/>
<path fill="none" opacity="1.000000" stroke="#000000" stroke-linecap="round" stroke-linejoin="round" stroke-width="7.000000"
	d="
M617.500000,370.500000 
	C614.721252,366.002075 609.974670,365.529388 605.492004,365.079681 
	C598.605469,364.388794 591.948792,362.968292 585.500000,360.500000 
"/>
<path fill="none" opacity="1.000000" stroke="#000000" stroke-linecap="round" stroke-linejoin="round" stroke-width="5.000000"
	d="
M713.500000,463.500000 
	C711.166687,472.333344 708.834656,481.166992 706.499207,489.999786 
	C705.837830,492.501190 705.166626,495.000000 704.500000,497.500000 
"/>
<path fill="none" opacity="1.000000" stroke="#000000" stroke-linecap="round" stroke-linejoin="round" stroke-width="6.000000"
	d="
M418.500000,389.000000 
	C414.710541,389.991211 411.591095,387.851562 408.549316,386.396881 
	C402.277283,383.397461 395.794281,381.330627 389.030609,379.859314 
	C387.978333,379.630432 387.333344,379.985199 386.500000,380.000000 
"/>
<path fill="none" opacity="1.000000" stroke="#000000" stroke-linecap="round" stroke-linejoin="round" stroke-width="5.000000"
	d="
M359.500000,349.500000 
	C359.333313,350.333344 359.459808,351.586426 358.956604,351.937836 
	C349.360260,358.639740 340.962830,367.005249 330.500000,372.500000 
"/>
<path fill="none" opacity="1.000000" stroke="#000000" stroke-linecap="round" stroke-linejoin="round" stroke-width="8.000000"
	d="
M728.500000,522.500000 
	C728.713379,527.373962 725.597107,530.453613 722.489563,533.489319 
	C717.436951,538.425232 712.809937,543.645996 710.526550,550.508850 
	C710.326843,551.109070 710.500000,551.833313 710.500000,552.500000 
"/>
<path fill="none" opacity="1.000000" stroke="#000000" stroke-linecap="round" stroke-linejoin="round" stroke-width="8.000000"
	d="
M550.500000,665.500000 
	C556.497192,665.042236 561.210815,668.684265 566.507141,670.478943 
	C574.807678,673.291687 583.325867,675.308838 592.007629,676.441345 
	C597.124695,677.108948 600.942017,679.551758 604.000000,683.500000 
"/>
<path fill="none" opacity="1.000000" stroke="#000000" stroke-linecap="round" stroke-linejoin="round" stroke-width="10.000000"
	d="
M638.500000,360.000000 
	C630.931274,364.224243 630.445862,368.140076 637.017395,373.478607 
	C642.888428,378.248138 649.376343,381.844666 656.998230,383.011536 
	C657.511719,383.090118 657.994446,383.352875 658.500793,383.497131 
	C668.114197,386.235474 669.674866,385.173340 671.000000,375.000000 
"/>
<path fill="none" opacity="1.000000" stroke="#000000" stroke-linecap="round" stroke-linejoin="round" stroke-width="8.000000"
	d="
M339.500000,416.750000 
	C346.652191,426.668060 357.925232,432.505280 365.000000,442.500000 
"/>
<path fill="none" opacity="1.000000" stroke="#000000" stroke-linecap="round" stroke-linejoin="round" stroke-width="6.000000"
	d="
M663.000000,575.000000 
	C657.246277,581.462585 651.044678,587.424255 644.030151,592.541321 
	C641.802246,594.166504 640.921509,596.704468 641.000000,599.500000 
"/>
<path fill="none" opacity="1.000000" stroke="#000000" stroke-linecap="round" stroke-linejoin="round" stroke-width="8.000000"
	d="
M486.500000,498.500000 
	C487.278198,503.356964 485.289429,507.430939 483.035767,511.519714 
	C480.483276,516.150574 478.552826,521.025208 479.000000,526.500000 
"/>
<path fill="none" opacity="1.000000" stroke="#000000" stroke-linecap="round" stroke-linejoin="round" stroke-width="8.000000"
	d="
M543.500000,638.000000 
	C541.814941,647.667664 544.488708,656.344482 549.477112,664.513977 
	C549.818909,665.073730 550.073303,665.876099 549.963196,666.493469 
	C548.734863,673.382324 553.512695,675.920776 558.528442,677.928955 
	C562.723145,679.608459 567.166687,680.666626 571.500000,682.000000 
"/>
<path fill="none" opacity="1.000000" stroke="#000000" stroke-linecap="round" stroke-linejoin="round" stroke-width="9.000000"
	d="
M575.500000,614.000000 
	C573.943542,618.290649 571.004395,620.945190 566.506470,622.026917 
	C560.392395,623.497314 556.423950,627.257263 555.000000,633.500000 
"/>
<path fill="none" opacity="1.000000" stroke="#000000" stroke-linecap="round" stroke-linejoin="round" stroke-width="7.000000"
	d="
M303.500000,555.000000 
	C300.268433,559.387207 294.737335,558.764648 290.441895,560.882141 
	C286.485138,562.832703 281.975800,563.234558 277.500000,562.500000 
"/>
<path fill="none" opacity="1.000000" stroke="#000000" stroke-linecap="round" stroke-linejoin="round" stroke-width="6.000000"
	d="
M484.500000,596.500000 
	C480.445618,598.076355 476.674164,600.187317 472.994202,602.490723 
	C467.796234,605.744263 464.597473,610.172241 464.500000,616.500000 
"/>
<path fill="none" opacity="1.000000" stroke="#000000" stroke-linecap="round" stroke-linejoin="round" stroke-width="5.000000"
	d="
M498.500000,630.000000 
	C494.310547,625.474304 489.455627,628.634155 485.016846,629.146118 
	C480.772095,629.635681 476.666656,631.333313 472.500000,632.500000 
"/>
<path fill="none" opacity="1.000000" stroke="#000000" stroke-linecap="round" stroke-linejoin="round" stroke-width="5.000000"
	d="
M482.500000,332.500000 
	C483.147552,330.241119 481.205658,329.368164 479.957794,328.565643 
	C473.734558,324.563416 466.962494,322.633850 459.500000,324.000000 
"/>
<path fill="none" opacity="1.000000" stroke="#000000" stroke-linecap="round" stroke-linejoin="round" stroke-width="7.000000"
	d="
M658.500000,417.500000 
	C665.861938,417.215546 666.289368,419.054230 668.842529,425.561768 
	C670.947083,430.925842 671.666687,436.833344 673.000000,442.500000 
"/>
<path fill="none" opacity="1.000000" stroke="#000000" stroke-linecap="round" stroke-linejoin="round" stroke-width="5.000000"
	d="
M307.500000,380.000000 
	C308.740082,383.851685 307.549316,387.049835 305.018005,390.015350 
	C301.337463,394.327240 299.376770,400.213287 293.500000,402.500000 
"/>
<path fill="none" opacity="1.000000" stroke="#000000" stroke-linecap="round" stroke-linejoin="round" stroke-width="6.000000"
	d="
M379.000000,401.500000 
	C378.900940,409.761810 378.255524,418.079376 381.500000,426.000000 
"/>
<path fill="none" opacity="1.000000" stroke="#000000" stroke-linecap="round" stroke-linejoin="round" stroke-width="5.000000"
	d="
M396.500000,561.000000 
	C400.192963,561.699341 402.706696,564.590088 405.347626,566.691467 
	C409.964111,570.364868 416.036041,570.427917 420.500000,574.000000 
"/>
<path fill="none" opacity="1.000000" stroke="#000000" stroke-linecap="round" stroke-linejoin="round" stroke-width="6.000000"
	d="
M319.500000,513.000000 
	C327.923889,517.747620 332.684448,527.061768 331.000000,535.500000 
"/>
<path fill="none" opacity="1.000000" stroke="#000000" stroke-linecap="round" stroke-linejoin="round" stroke-width="5.000000"
	d="
M734.000000,482.000000 
	C728.564392,481.162018 725.604431,477.518311 722.882996,473.071625 
	C720.802551,469.672455 719.416199,464.948456 714.000000,465.000000 
"/>
<path fill="none" opacity="1.000000" stroke="#000000" stroke-linecap="round" stroke-linejoin="round" stroke-width="3.000000"
	d="
M390.500031,442.500000 
	C391.833344,450.166656 393.166687,457.833344 394.500031,465.500000 
"/>
<path fill="none" opacity="1.000000" stroke="#000000" stroke-linecap="round" stroke-linejoin="round" stroke-width="4.000000"
	d="
M648.000000,463.000000 
	C650.822327,461.414825 649.713440,458.982635 648.931946,457.027191 
	C647.106445,452.459717 644.922852,448.035339 642.811584,443.393219 
	C640.903809,442.512024 638.779602,442.714813 637.026001,444.034576 
	C631.045715,448.535614 624.395325,451.734131 617.500000,454.500000 
"/>
<path fill="none" opacity="1.000000" stroke="#000000" stroke-linecap="round" stroke-linejoin="round" stroke-width="4.000000"
	d="
M724.500000,277.500000 
	C724.700439,281.286499 728.106567,283.589142 728.730774,287.462799 
	C729.391846,291.565002 729.683899,295.464569 729.000000,299.500000 
"/>
<path fill="none" opacity="1.000000" stroke="#000000" stroke-linecap="round" stroke-linejoin="round" stroke-width="6.000000"
	d="
M132.500000,906.500000 
	C133.373642,906.419373 134.449341,906.560913 134.446533,907.499817 
	C134.433578,911.843872 137.243179,915.247803 138.248428,919.066223 
	C140.736359,928.516785 147.702179,933.809692 154.500000,939.500000 
"/>
<path fill="none" opacity="1.000000" stroke="#000000" stroke-linecap="round" stroke-linejoin="round" stroke-width="6.000000"
	d="
M562.500000,342.000000 
	C556.063721,347.512238 548.196411,350.877930 541.500000,356.000000 
"/>
<path fill="none" opacity="1.000000" stroke="#000000" stroke-linecap="round" stroke-linejoin="round" stroke-width="10.000000"
	d="
M719.500000,567.500000 
	C720.068726,570.604797 718.838196,573.436890 716.914917,575.417358 
	C711.803528,580.680847 705.028625,583.442078 698.500000,586.500000 
"/>
<path fill="none" opacity="1.000000" stroke="#000000" stroke-linecap="round" stroke-linejoin="round" stroke-width="7.000000"
	d="
M712.500000,213.500000 
	C710.519592,220.781570 706.750183,227.480682 705.500000,235.000000 
"/>
<path fill="none" opacity="1.000000" stroke="#000000" stroke-linecap="round" stroke-linejoin="round" stroke-width="7.000000"
	d="
M509.500000,643.500000 
	C513.415771,651.000610 517.063721,658.679749 523.500000,664.500000 
"/>
<path fill="none" opacity="1.000000" stroke="#000000" stroke-linecap="round" stroke-linejoin="round" stroke-width="7.000000"
	d="
M775.500000,299.000000 
	C768.503113,299.298126 761.481018,298.535187 754.500000,299.500000 
"/>
<path fill="none" opacity="1.000000" stroke="#000000" stroke-linecap="round" stroke-linejoin="round" stroke-width="4.000000"
	d="
M669.500000,647.000000 
	C662.434631,646.225525 655.372498,645.431641 648.500000,643.500000 
"/>
<path fill="none" opacity="1.000000" stroke="#000000" stroke-linecap="round" stroke-linejoin="round" stroke-width="6.000000"
	d="
M447.500000,570.500000 
	C447.498932,577.183411 447.331573,583.875061 448.500000,590.500000 
"/>
<path fill="none" opacity="1.000000" stroke="#000000" stroke-linecap="round" stroke-linejoin="round" stroke-width="4.000000"
	d="
M663.500000,668.000000 
	C656.166748,667.250122 649.846008,669.176331 645.000000,675.000000 
"/>
<path fill="none" opacity="1.000000" stroke="#000000" stroke-linecap="round" stroke-linejoin="round" stroke-width="5.000000"
	d="
M680.500000,423.500000 
	C684.815552,428.024841 690.193970,431.451569 693.989990,436.507538 
	C695.418640,438.410339 697.362366,438.670166 699.500000,438.500000 
"/>
<path fill="none" opacity="1.000000" stroke="#000000" stroke-linecap="round" stroke-linejoin="round" stroke-width="7.000000"
	d="
M147.500000,95.500000 
	C147.166672,98.833336 146.490799,102.176933 146.590317,105.497292 
	C146.704041,109.291100 145.177322,112.205681 143.000000,115.000000 
"/>
<path fill="none" opacity="1.000000" stroke="#000000" stroke-linecap="round" stroke-linejoin="round" stroke-width="6.000000"
	d="
M520.500000,455.500000 
	C522.000000,462.000000 523.500000,468.500000 525.000000,475.000000 
"/>
<path fill="none" opacity="1.000000" stroke="#000000" stroke-linecap="round" stroke-linejoin="round" stroke-width="7.000000"
	d="
M574.000000,381.500000 
	C577.909668,390.430695 578.543701,399.517151 574.397156,408.452271 
	C572.867676,411.747986 570.091370,414.449127 568.021057,417.514221 
	C565.925598,420.616425 564.000000,423.833344 562.000000,427.000031 
"/>
<path fill="none" opacity="1.000000" stroke="#000000" stroke-linecap="round" stroke-linejoin="round" stroke-width="6.000000"
	d="
M651.500000,222.500000 
	C652.710571,229.139328 656.203125,234.884369 658.750000,241.000000 
"/>
<path fill="none" opacity="1.000000" stroke="#000000" stroke-linecap="round" stroke-linejoin="round" stroke-width="6.000000"
	d="
M520.000000,639.500000 
	C520.874146,646.296692 524.417969,651.906799 528.000000,657.500000 
"/>
<path fill="none" opacity="1.000000" stroke="#000000" stroke-linecap="round" stroke-linejoin="round" stroke-width="7.000000"
	d="
M628.500000,275.500000 
	C628.500000,275.000000 628.622437,274.100342 628.482422,274.057434 
	C622.062073,272.091003 616.733398,267.839111 610.500000,265.500000 
"/>
<path fill="none" opacity="1.000000" stroke="#000000" stroke-linecap="round" stroke-linejoin="round" stroke-width="7.000000"
	d="
M465.000000,470.500000 
	C466.557892,477.922394 470.648956,484.379761 473.000000,491.500000 
"/>
<path fill="none" opacity="1.000000" stroke="#000000" stroke-linecap="round" stroke-linejoin="round" stroke-width="6.000000"
	d="
M759.500000,244.500000 
	C757.442932,244.551361 755.804382,244.804474 753.860718,246.321533 
	C750.210876,249.170349 746.416260,251.842575 743.000000,255.000000 
"/>
<path fill="none" opacity="1.000000" stroke="#000000" stroke-linecap="round" stroke-linejoin="round" stroke-width="6.000000"
	d="
M332.500000,568.000000 
	C327.512451,572.465210 321.250031,570.738220 315.500000,571.500000 
"/>
<path fill="none" opacity="1.000000" stroke="#000000" stroke-linecap="round" stroke-linejoin="round" stroke-width="8.000000"
	d="
M703.500000,434.000000 
	C699.968506,437.053436 698.398193,440.308472 700.887634,445.058899 
	C702.592651,448.312561 701.177673,452.024323 700.500000,455.500000 
"/>
<path fill="none" opacity="1.000000" stroke="#000000" stroke-linecap="round" stroke-linejoin="round" stroke-width="2.000000"
	d="
M533.000000,638.000000 
	C529.402649,644.171326 532.981323,649.255371 535.500000,654.500000 
"/>
<path fill="none" opacity="1.000000" stroke="#000000" stroke-linecap="round" stroke-linejoin="round" stroke-width="8.000000"
	d="
M733.500000,493.000000 
	C727.794617,497.105957 726.166748,502.818207 727.000000,509.500000 
"/>
<path fill="none" opacity="1.000000" stroke="#000000" stroke-linecap="round" stroke-linejoin="round" stroke-width="6.000000"
	d="
M589.500000,633.500000 
	C587.490662,633.554871 585.464600,633.200378 583.495056,633.987610 
	C580.272522,635.275635 577.140198,634.169312 574.000000,633.500000 
"/>
<path fill="none" opacity="1.000000" stroke="#000000" stroke-linecap="round" stroke-linejoin="round" stroke-width="4.000000"
	d="
M571.000000,511.500000 
	C569.333313,516.500000 567.666687,521.500000 566.000000,526.500000 
"/>
<path fill="none" opacity="1.000000" stroke="#000000" stroke-linecap="round" stroke-linejoin="round" stroke-width="5.000000"
	d="
M577.500000,335.500000 
	C574.020447,335.217010 571.514465,336.285889 570.450073,339.985626 
	C569.847107,342.081360 569.536316,344.344727 567.058899,345.614899 
	C565.716125,346.303375 566.484436,348.166656 567.000000,349.500000 
"/>
<path fill="none" opacity="1.000000" stroke="#000000" stroke-linecap="round" stroke-linejoin="round" stroke-width="6.000000"
	d="
M737.500000,340.500000 
	C742.204590,344.569458 746.901794,348.649109 752.500000,351.500000 
"/>
<path fill="none" opacity="1.000000" stroke="#000000" stroke-linecap="round" stroke-linejoin="round" stroke-width="7.000000"
	d="
M691.000000,298.500000 
	C690.666687,298.500000 690.311646,298.423676 690.003174,298.511108 
	C681.790039,300.839691 681.790833,300.842560 675.000000,306.500000 
"/>
<path fill="none" opacity="1.000000" stroke="#000000" stroke-linecap="round" stroke-linejoin="round" stroke-width="2.000000"
	d="
M540.500000,937.500000 
	C536.165283,937.987915 531.578674,936.292847 527.500000,939.000000 
"/>
<path fill="none" opacity="1.000000" stroke="#000000" stroke-linecap="round" stroke-linejoin="round" stroke-width="8.000000"
	d="
M165.999985,944.500000 
	C164.999985,945.833313 164.079697,947.236877 162.980942,948.483215 
	C161.406662,950.268799 159.365219,952.251343 157.092468,950.387268 
	C155.024475,948.691162 154.601700,945.980835 156.500000,943.500000 
"/>
<path fill="none" opacity="1.000000" stroke="#000000" stroke-linecap="round" stroke-linejoin="round" stroke-width="4.000000"
	d="
M564.000000,478.000000 
	C567.490906,481.386658 569.039612,486.450623 573.500000,489.000000 
"/>
<path fill="none" opacity="1.000000" stroke="#000000" stroke-linecap="round" stroke-linejoin="round" stroke-width="3.000000"
	d="
M266.500000,427.500000 
	C264.866882,431.559265 262.536285,434.652802 257.500000,434.000000 
"/>
<path fill="none" opacity="1.000000" stroke="#000000" stroke-linecap="round" stroke-linejoin="round" stroke-width="4.000000"
	d="
M461.500000,366.000000 
	C465.346771,366.690857 468.539917,368.906891 472.000000,370.500000 
"/>
<path fill="none" opacity="1.000000" stroke="#000000" stroke-linecap="round" stroke-linejoin="round" stroke-width="3.000000"
	d="
M432.500000,643.000000 
	C429.217773,643.117737 425.759796,642.400635 423.000000,645.000000 
"/>
<path fill="none" opacity="1.000000" stroke="#000000" stroke-linecap="round" stroke-linejoin="round" stroke-width="4.000000"
	d="
M285.500000,496.500000 
	C281.549927,498.814728 276.924377,500.378937 275.500000,505.500000 
"/>
<path fill="none" opacity="1.000000" stroke="#000000" stroke-linecap="round" stroke-linejoin="round" stroke-width="3.000000"
	d="
M546.500000,325.000000 
	C544.018921,326.427155 541.344055,327.234314 538.500000,327.500000 
"/>
<path fill="none" opacity="1.000000" stroke="#000000" stroke-linecap="round" stroke-linejoin="round" stroke-width="5.000000"
	d="
M528.500000,401.000000 
	C525.399902,397.421753 521.885681,398.088501 518.250000,400.000000 
"/>
<path fill="none" opacity="1.000000" stroke="#000000" stroke-linecap="round" stroke-linejoin="round" stroke-width="3.000000"
	d="
M303.500000,553.000000 
	C301.413147,551.340393 299.505371,549.322632 296.500000,549.500000 
"/>
<path fill="none" opacity="1.000000" stroke="#000000" stroke-linecap="round" stroke-linejoin="round" stroke-width="3.000000"
	d="
M691.500000,258.500000 
	C688.967651,258.470093 686.841248,259.860992 684.500000,260.500000 
"/>
<path fill="none" opacity="1.000000" stroke="#000000" stroke-linecap="round" stroke-linejoin="round" stroke-width="3.000000"
	d="
M501.000000,634.000000 
	C501.166687,636.166687 501.333344,638.333313 501.500000,640.500000 
"/>
<path fill="none" opacity="1.000000" stroke="#000000" stroke-linecap="round" stroke-linejoin="round" stroke-width="3.000000"
	d="
M592.500000,347.500000 
	C595.894592,348.456421 599.069885,349.807556 601.500000,352.500000 
"/>
<path fill="none" opacity="1.000000" stroke="#000000" stroke-linecap="round" stroke-linejoin="round" stroke-width="3.000000"
	d="
M626.500000,606.500000 
	C626.346069,608.501038 626.900940,610.561218 626.000000,612.500000 
"/>
</svg>