<svg version="1.1" id="Layer_1" xmlns="http://www.w3.org/2000/svg" xmlns:xlink="http://www.w3.org/1999/xlink" x="0px" y="0px"
	 width="100%" viewBox="0 0 1024 1024" enable-background="new 0 0 1024 1024" xml:space="preserve">
<path fill="#000000" opacity="1.000000" stroke="none" 
	d="
M510.002838,385.994690 
	C505.793457,383.251678 505.972107,378.267120 504.114990,374.335449 
	C498.850372,363.189606 493.760284,351.936554 490.761505,339.935303 
	C489.685211,335.627869 487.913269,334.854034 483.737793,335.890930 
	C465.872955,340.327179 449.034912,347.476532 432.197540,354.685028 
	C422.071655,359.020203 412.438477,364.310486 402.786926,369.568298 
	C397.985748,372.183746 392.653992,373.449738 387.637482,375.517273 
	C380.771973,378.346954 374.704132,375.146545 370.199829,368.992035 
	C368.000854,365.987488 364.551910,363.918152 361.773743,361.313538 
	C350.823334,351.047058 339.033020,341.780975 327.375488,332.357666 
	C325.218872,330.614349 323.023041,328.849030 319.714325,328.049713 
	C328.457214,344.778229 336.078186,361.540070 342.256287,378.936371 
	C342.772980,380.391266 343.201202,381.973236 345.546844,382.033112 
	C355.847687,382.296204 355.845581,382.379120 356.492096,392.241364 
	C357.264160,393.387177 358.587372,393.033600 359.664642,393.306183 
	C364.687317,394.577087 366.382843,396.918030 365.233429,401.988983 
	C364.671967,404.466156 364.557526,406.133698 367.438019,406.948151 
	C368.712555,407.308502 370.509705,408.657104 370.118958,409.572723 
	C367.631683,415.401062 374.597504,420.678009 370.904541,426.459839 
	C370.046326,427.803497 370.700073,429.086914 371.621002,430.107483 
	C373.177612,431.832489 374.617340,433.807281 376.515076,435.055237 
	C384.879578,440.555511 393.005798,446.344055 400.430756,453.082245 
	C400.874573,453.484985 401.523102,453.662201 402.960510,454.395233 
	C392.988342,427.939606 380.140076,403.544159 371.765747,376.783447 
	C376.750854,376.561951 376.986053,379.775635 377.876251,381.950928 
	C385.696075,401.059570 393.375519,420.225647 401.140167,439.356995 
	C403.831818,445.988953 406.569946,452.604248 409.426025,459.166626 
	C412.107086,465.326721 418.466034,464.288269 423.407440,465.922363 
	C424.690033,466.346527 426.293304,465.800903 427.961395,465.686127 
	C426.968445,464.576324 425.122437,464.505219 425.664581,462.355896 
	C426.559387,460.979004 428.176453,461.495758 429.509705,461.897644 
	C430.886383,462.312561 432.079559,462.510040 433.272461,461.617249 
	C440.574127,456.152679 449.203827,453.438141 458.410858,449.712372 
	C453.219666,446.669342 452.363220,440.929169 448.178864,437.540497 
	C444.135620,434.266144 443.501373,428.689972 440.179504,424.730042 
	C438.461975,422.682495 440.436371,420.305969 443.048492,419.518433 
	C445.569092,418.758514 448.156952,418.221466 451.308960,417.439148 
	C449.676849,414.917023 448.229248,412.755859 446.862213,410.544861 
	C445.657379,408.596191 445.020721,406.483307 446.665680,404.521484 
	C448.226532,402.659912 450.400269,402.289673 452.587585,403.217651 
	C458.100708,405.556671 463.545227,408.057159 469.051147,410.413788 
	C470.574066,411.065613 472.205719,411.474854 473.804871,411.935120 
	C479.022675,413.436920 479.602631,413.063324 479.674927,407.653717 
	C479.718048,404.425293 480.222931,401.339142 481.732605,398.486847 
	C483.889038,394.412445 487.980988,393.689209 489.776825,397.699799 
	C493.299438,405.566833 500.192688,410.071259 505.647034,416.017609 
	C507.373901,417.900299 508.990295,418.814789 511.607635,418.757568 
	C518.223145,418.612946 524.581299,418.522003 531.059692,415.904541 
	C538.714600,412.811768 547.590942,414.695343 555.503479,411.683014 
	C557.520081,410.915344 559.664368,410.484924 561.685425,409.727112 
	C568.962097,406.998779 580.771851,410.149292 585.743958,416.219147 
	C586.290222,416.885986 586.617004,417.621796 586.189819,418.623657 
	C584.398926,419.830200 583.021118,418.400391 581.878784,417.452820 
	C575.296997,411.993530 568.624878,410.553040 560.328125,414.315308 
	C553.087097,417.598846 544.870300,418.067017 536.967102,419.239838 
	C533.419128,419.766388 530.204102,420.598450 527.498962,423.810211 
	C524.759338,427.062866 520.316467,424.821625 515.844238,424.782715 
	C519.938904,436.248383 517.678711,447.034332 512.716064,457.364807 
	C513.056946,457.783936 513.231384,458.221741 513.469971,458.259979 
	C535.398560,461.775574 557.311035,463.881653 579.169250,457.704346 
	C585.945374,455.789337 592.335754,453.029297 598.458557,449.591522 
	C604.348633,446.284424 606.660217,441.460419 607.193237,434.535400 
	C608.566833,416.689148 605.288391,399.853790 598.955017,383.307495 
	C589.728516,359.202881 582.518005,334.400940 574.116089,310.007904 
	C572.430420,305.113922 569.487000,301.744385 565.003113,299.324249 
	C555.184387,294.024719 545.413269,288.632111 535.722168,283.102966 
	C531.255737,280.554688 526.781799,277.916321 523.616272,273.629822 
	C523.169800,273.025360 522.334351,272.448639 521.611816,272.349884 
	C516.945740,271.712311 513.261597,269.292511 510.034393,265.971619 
	C506.579620,269.140533 503.426239,272.295593 499.998810,275.117889 
	C494.253326,279.849060 487.701843,283.018188 480.338440,284.408539 
	C479.031006,284.655426 477.695129,284.888672 476.461517,285.361023 
	C473.851868,286.360260 471.228943,290.410156 468.613922,285.818787 
	C465.878998,281.016846 459.075073,277.327179 463.695282,270.150787 
	C463.915649,269.808441 463.775452,269.234009 463.804016,268.753479 
	C458.102997,269.096283 454.162476,276.705597 451.778412,292.369812 
	C453.720123,290.780182 455.203522,289.603271 456.646118,288.378265 
	C463.084137,282.911469 466.349274,283.859467 469.084320,292.508606 
	C468.971527,292.977722 468.729858,293.174072 468.729858,293.174072 
	C466.430695,293.506134 465.255737,291.419922 463.302124,290.625397 
	C460.426086,291.602783 458.874786,294.421631 456.386108,296.041382 
	C449.803528,300.325714 447.341064,299.286041 446.231445,290.840942 
	C443.247650,293.055328 440.554321,295.127014 437.784332,297.090576 
	C434.661774,299.304077 431.720551,302.028809 428.257172,303.453461 
	C420.800018,306.520813 416.451660,311.961060 413.087524,319.056519 
	C409.030334,327.613770 404.687653,336.097076 399.238647,343.906830 
	C396.423645,347.941406 392.942474,351.174042 387.856445,351.988678 
	C386.013214,350.226959 387.215149,348.726105 388.053253,347.415588 
	C395.862732,335.204407 401.894745,321.942657 410.297729,310.073334 
	C413.928314,304.945129 418.166168,300.713928 423.638641,297.544281 
	C430.265961,293.705719 436.652405,289.452972 443.173981,285.429596 
	C447.183807,282.955811 449.472992,279.295471 451.330688,274.602753 
	C448.355804,274.412109 446.296478,275.541443 444.190399,276.331604 
	C432.756195,280.621429 431.977753,280.289825 427.716614,268.401215 
	C426.684601,271.864502 428.589111,275.568817 425.145416,277.989929 
	C422.007751,274.644379 417.905701,275.447693 413.976501,275.337616 
	C398.545349,274.905396 391.587219,262.951050 399.001984,249.618790 
	C399.811279,248.163635 400.637512,246.708237 401.580078,245.338394 
	C409.971436,233.143387 411.154724,219.692276 403.252655,207.776871 
	C397.559357,199.191971 397.944702,189.387466 393.632904,180.860382 
	C392.916351,179.443268 392.824219,177.643402 392.706848,176.001587 
	C392.122925,167.834946 395.934479,161.686859 402.503418,157.559280 
	C407.786865,154.239426 410.201202,150.016907 410.903809,143.904480 
	C411.752411,136.521912 415.458649,130.548004 421.755341,126.135773 
	C429.329895,120.828079 437.358490,116.604942 446.216827,113.913818 
	C455.056641,111.228317 463.371857,112.020607 470.895142,117.592133 
	C473.204956,119.302719 475.077637,119.351349 477.690033,118.187050 
	C496.921692,109.615761 517.784851,115.689629 531.080872,130.836563 
	C538.247314,139.000580 543.506226,148.200699 545.650452,158.893295 
	C547.070068,165.972366 551.169189,169.859406 557.959717,171.657715 
	C562.797424,172.938873 567.477722,174.812271 571.245300,178.308319 
	C578.843628,185.359085 579.297852,194.365845 577.847168,203.731735 
	C577.341492,206.995941 576.416443,210.280106 575.122498,213.316315 
	C573.396362,217.366211 574.707642,220.011459 578.055542,222.206787 
	C580.423828,223.759796 582.724915,225.416565 585.111511,226.940094 
	C588.523987,229.118500 589.380676,232.084488 587.371643,235.487701 
	C584.158142,240.931320 581.077942,246.534027 577.195557,251.484619 
	C570.506775,260.013672 564.529297,261.021362 554.452209,255.760834 
	C552.770508,266.773468 545.141846,267.371307 536.211060,266.620453 
	C533.678101,266.407501 530.919067,268.883240 527.384155,270.537567 
	C534.999695,274.870636 541.853882,278.806580 548.743042,282.680237 
	C555.859436,286.681641 563.000793,290.628479 569.684204,295.353943 
	C574.547913,298.792816 578.762512,302.762817 580.703613,308.552490 
	C590.911560,339.000275 601.192627,369.424683 611.156921,399.952362 
	C614.534424,410.300140 613.765076,421.004730 611.989136,431.615997 
	C611.769653,432.927216 611.330933,434.248962 611.381287,435.550842 
	C611.863220,448.001160 605.281738,455.287231 594.325500,459.800629 
	C586.454407,463.043091 578.491516,465.943634 570.248108,468.009949 
	C566.801453,468.873871 565.088806,470.075562 565.978027,474.168243 
	C567.245300,480.001587 567.721497,486.003357 568.663940,491.912720 
	C568.959534,493.766266 569.476624,495.799072 568.416504,497.279755 
	C563.249023,504.497467 564.323181,512.711792 564.243896,520.783020 
	C564.210083,524.223450 562.885498,526.638062 558.343872,525.770752 
	C558.121826,533.313049 560.452393,540.125732 561.637939,547.066467 
	C565.334351,568.708862 568.209290,590.438721 570.519714,612.282288 
	C573.218628,637.799316 575.020935,663.319092 575.510071,688.974976 
	C575.637878,695.677734 577.963806,702.347778 579.364319,709.015198 
	C582.514160,724.010864 583.572266,739.299194 585.784668,754.425598 
	C588.508789,773.050598 593.547729,791.172119 597.665466,809.495361 
	C598.755737,814.346924 599.265869,819.329712 600.018799,824.255920 
	C600.463623,827.166565 598.955322,829.028625 596.563599,830.300293 
	C591.565552,832.957886 586.614807,835.723877 581.492126,838.119202 
	C578.911621,839.325806 577.893188,840.730042 578.682495,843.530457 
	C579.128418,845.112488 579.184998,846.808594 579.372375,848.458374 
	C579.816833,852.370728 580.558594,855.396912 585.929260,854.900879 
	C589.661926,854.556091 593.529846,856.816528 594.886780,860.296570 
	C599.782654,872.852905 610.479187,878.297119 621.668640,883.299622 
	C627.443481,885.881348 633.422241,888.047791 639.045837,890.917419 
	C648.528381,895.756042 652.887390,906.096802 650.091675,916.288696 
	C648.981140,920.336975 645.450928,921.758911 641.993408,923.047913 
	C632.764526,926.488586 623.082886,926.876221 613.429626,926.579651 
	C589.001160,925.829346 567.757629,915.398926 547.079224,903.734985 
	C543.774109,901.870850 538.547485,898.936951 543.449585,893.356323 
	C543.700195,893.070984 543.592773,892.377686 543.504517,891.901733 
	C541.739258,882.386719 542.712463,872.875244 544.975952,863.706238 
	C546.135315,859.009827 545.907593,854.715027 545.604187,850.160889 
	C545.293152,845.490784 543.090271,843.383911 538.355042,843.399170 
	C533.714050,843.414185 529.045959,843.619324 524.456909,842.313538 
	C519.377502,840.868347 515.851685,838.412537 515.377563,832.561646 
	C513.679016,811.598816 507.126434,791.509583 504.015381,770.818298 
	C501.644135,755.047302 500.379486,739.106323 498.762146,723.226746 
	C497.730804,713.100708 495.564911,703.210510 493.152466,693.352722 
	C491.251282,685.583923 489.739990,677.727295 489.690460,669.707275 
	C489.547485,646.563171 484.058594,624.275146 479.028778,601.849976 
	C476.826599,611.725586 476.702576,621.781555 476.428711,631.742737 
	C475.801453,654.557617 475.151733,677.477539 477.568390,700.163818 
	C480.809692,730.591858 480.042664,761.041504 480.383514,791.503479 
	C480.490051,801.022766 482.704071,810.319519 483.634888,819.750427 
	C484.302612,826.515930 482.508942,833.315613 483.780579,840.148132 
	C484.159302,842.183105 482.020111,843.181335 480.114960,843.570312 
	C476.534637,844.301331 472.948212,845.011230 469.346863,845.627869 
	C466.140839,846.176636 464.324615,847.674133 464.277710,851.227783 
	C464.231781,854.709595 463.728668,858.187378 463.384949,861.662781 
	C463.117859,864.363342 463.374481,866.732300 465.093292,869.168579 
	C468.013916,873.308411 469.205200,878.082947 469.408630,883.271362 
	C469.781586,892.782349 468.499542,902.114563 467.297638,911.480591 
	C466.737244,915.847473 463.098083,916.446533 459.992096,917.129150 
	C451.870544,918.914185 443.710754,920.688843 435.473663,921.747681 
	C421.468658,923.548035 407.586792,926.500549 393.356323,926.404846 
	C384.781433,926.347107 376.492126,924.963928 368.342651,922.340820 
	C366.029724,921.596436 364.748444,920.359192 363.904938,918.141418 
	C360.211456,908.430664 364.329681,896.876038 373.840393,891.499390 
	C377.292908,889.547546 381.044220,887.929810 384.854309,886.844482 
	C393.377502,884.416504 400.339661,879.199280 407.745636,874.757080 
	C409.853516,873.492737 410.951324,871.404724 411.777222,869.190979 
	C413.932648,863.413391 418.069794,859.800049 424.000916,858.472900 
	C429.518280,857.238281 427.511993,852.971008 427.926331,849.643066 
	C428.352020,846.223572 426.915070,844.250793 423.431061,843.827209 
	C422.444031,843.707153 421.455719,843.513367 420.498505,843.244751 
	C407.141510,839.497375 406.375702,840.340820 407.029480,824.833374 
	C407.219360,820.329102 407.577576,815.933655 406.794434,811.448975 
	C405.586700,804.532654 405.688446,797.519714 405.655365,790.518677 
	C405.505096,758.698975 404.550262,726.891113 402.510101,695.146912 
	C400.716461,667.238159 399.443542,639.297485 397.481140,611.408386 
	C395.753143,586.849976 398.089294,562.522705 399.506012,538.113647 
	C399.727081,534.304749 399.536926,530.471985 399.536926,526.682495 
	C392.461823,524.034729 391.802338,523.126282 393.713654,515.725281 
	C394.953156,510.925629 394.924011,506.778870 391.785339,502.558594 
	C388.105865,497.611176 387.881805,492.210907 391.020813,486.626221 
	C394.872375,479.773743 397.064087,472.206482 399.838470,464.890320 
	C400.826660,462.284393 400.382568,460.651062 398.120453,458.930176 
	C394.150055,455.909729 390.446655,452.537109 386.647522,449.293121 
	C384.387909,447.363739 382.212280,446.912262 379.433441,448.625671 
	C374.573364,451.622437 369.081665,452.752167 362.211548,452.340851 
	C371.287018,461.062408 380.470276,466.001984 392.241791,464.679321 
	C392.201324,468.621460 389.558807,468.821381 387.463074,469.312103 
	C376.004364,471.995392 366.894135,467.071381 358.916687,459.717194 
	C351.521820,452.900055 348.123932,444.118744 348.325195,434.002075 
	C348.337433,433.386353 348.165619,432.303223 347.855408,432.213684 
	C342.230804,430.590240 341.780670,424.242004 337.731476,421.235291 
	C334.805817,419.062866 334.217926,416.255981 334.946991,412.825226 
	C335.953186,408.090210 336.575409,403.601685 332.810577,399.273071 
	C330.093262,396.148895 331.794189,392.350525 334.624573,389.951569 
	C338.907410,386.321533 338.522552,382.937164 336.177979,378.235382 
	C327.409912,360.652374 319.085083,342.848083 310.621124,325.113831 
	C309.282532,322.309113 311.692017,318.471619 315.294006,319.024475 
	C321.060333,319.909485 323.797607,316.281036 326.825745,312.930084 
	C328.694427,310.862183 330.346313,310.965881 332.519073,312.098663 
	C347.521942,319.920166 361.470276,329.205627 373.614502,341.094971 
	C378.660431,346.034973 382.839966,351.555115 386.194000,358.105499 
	C389.188568,357.847443 390.926453,355.315094 393.129913,353.779938 
	C412.653503,340.177155 434.598145,331.982727 457.028534,324.814178 
	C463.387634,322.781799 469.838898,321.230591 476.412750,320.087463 
	C479.371552,319.572937 481.342133,320.136017 481.855164,323.394653 
	C482.349182,326.532532 485.451721,328.099121 486.318451,331.418365 
	C490.668732,329.444550 493.042236,331.143372 494.148560,335.311829 
	C498.438934,351.477020 505.654358,366.544830 511.751373,382.032196 
	C513.092834,385.439667 513.100037,385.436829 510.273529,386.070129 
	C509.981781,385.984039 510.002838,385.994690 510.002838,385.994690 
M445.766541,513.723083 
	C447.258392,520.835388 448.610870,522.261841 455.865082,521.669678 
	C466.792511,520.777710 477.754181,520.368164 488.653839,518.966736 
	C499.028564,517.632812 509.577057,515.579529 519.937134,517.192444 
	C530.621826,518.855774 541.356079,519.975891 552.050049,521.465759 
	C557.477905,522.221924 558.464050,521.303101 557.364075,515.898804 
	C556.192261,510.142090 556.404724,504.700165 559.268677,499.441681 
	C560.757141,496.708710 560.922668,493.840149 560.031067,490.747375 
	C559.255127,488.056244 558.933594,485.203247 558.680664,482.397461 
	C557.598755,470.395447 557.635132,470.370178 545.765930,470.367706 
	C539.901672,470.366486 533.307861,470.861816 528.966064,467.078094 
	C524.574524,463.251068 520.085022,462.915314 515.049927,462.270142 
	C511.202271,461.777039 506.403961,461.652710 504.282288,458.184021 
	C502.484619,455.245148 500.678833,455.486084 498.192993,455.551239 
	C488.881042,455.795349 479.501404,456.040680 470.515472,453.198792 
	C463.145294,450.867889 458.321289,456.055908 452.544617,458.454681 
	C451.320648,458.962952 451.611084,460.430969 451.798523,461.611603 
	C452.870331,468.363098 451.721649,474.884979 449.620117,481.275574 
	C446.234589,491.570679 440.630585,501.566803 445.766541,513.723083 
M455.876770,258.664337 
	C466.276398,260.038269 474.906708,254.371277 484.886658,250.524170 
	C484.339722,255.427017 481.509369,257.457642 478.691132,258.763519 
	C472.940155,261.428345 469.865356,264.988892 469.646637,271.851624 
	C469.426910,278.745117 471.600769,281.338684 478.158264,278.949036 
	C485.533936,276.261200 492.316742,272.430969 499.023468,268.326508 
	C503.936401,265.319794 504.942810,262.510315 502.560516,257.110748 
	C500.047089,251.413910 497.433899,245.022385 497.695038,239.058304 
	C497.932312,233.638733 502.339447,228.576889 505.502991,223.687546 
	C507.301605,220.907684 510.595673,221.577866 513.209045,220.804169 
	C522.128418,218.163605 528.375061,210.307022 527.670349,202.217728 
	C527.090271,195.560074 520.450378,191.951080 514.698730,195.146088 
	C510.456299,197.502701 507.729309,201.102417 505.491791,205.350403 
	C504.047424,208.092560 503.637848,213.107300 499.752716,212.427658 
	C496.406616,211.842316 496.188477,207.108429 495.846436,203.916336 
	C495.318207,198.986572 492.660431,195.262787 490.063019,191.404419 
	C488.701202,189.381516 487.127441,189.100983 484.951355,190.263626 
	C478.096008,193.926270 474.489441,193.407333 468.474518,188.521271 
	C466.210663,186.682236 464.840240,183.819397 462.166199,182.590546 
	C460.233643,183.829880 459.383850,185.490036 458.629059,187.128571 
	C454.920410,195.179459 448.166046,198.385468 439.826477,198.994553 
	C432.735046,199.512497 430.863892,197.916077 429.482391,190.785522 
	C429.286346,189.773529 429.350555,188.510254 428.032501,187.690750 
	C427.526245,188.625122 426.908447,189.433975 426.623779,190.346741 
	C425.181122,194.972321 424.049255,199.674454 418.516876,201.452194 
	C416.839233,201.991257 416.847656,203.708572 418.214355,205.088074 
	C420.358887,204.665909 422.451874,204.024963 424.575867,203.896698 
	C426.954926,203.753036 430.410583,203.096542 430.721771,206.331604 
	C430.990967,209.130203 427.404297,208.203033 425.595459,209.044983 
	C424.884979,209.375702 423.954468,209.339508 423.131317,209.304184 
	C419.531982,209.149658 418.886963,210.948593 419.720062,214.053986 
	C421.140411,219.348389 422.175598,224.756424 423.800568,229.983658 
	C428.630981,245.521896 438.284332,255.959671 455.876770,258.664337 
M448.497284,878.637756 
	C443.910797,878.583679 439.652100,877.265320 435.545654,875.321777 
	C433.108215,874.168152 431.344482,872.618103 431.716187,869.590942 
	C431.961639,867.592041 431.443817,866.034973 429.383240,865.149780 
	C427.139984,864.186157 425.048401,864.488892 423.277710,865.927124 
	C421.240448,867.581787 419.572418,869.620605 418.657318,872.376953 
	C421.261230,873.911682 423.750061,875.228455 426.065765,876.800232 
	C427.443787,877.735413 428.769592,879.131226 427.752350,880.996948 
	C426.625488,883.063599 424.911530,882.116882 423.420715,881.363037 
	C421.491669,880.387573 419.614075,879.310547 417.711700,878.282043 
	C416.628326,877.696289 415.551666,877.191650 414.817078,878.748230 
	C414.789307,879.980774 415.807648,880.322021 416.543121,880.969421 
	C418.496613,882.688904 423.231964,883.616638 421.394897,886.640442 
	C419.141693,890.349121 416.440430,885.831055 413.924072,884.989563 
	C412.150757,884.396545 410.573212,881.757629 408.639709,883.452271 
	C405.281921,886.394958 401.098663,888.116760 397.510437,891.079102 
	C402.313629,896.682190 408.425079,901.439819 406.677460,910.155151 
	C403.333679,909.391113 403.065308,907.104675 402.003754,905.516052 
	C392.063965,890.641296 391.233398,890.913818 375.511230,899.973511 
	C371.914917,902.045837 369.105011,905.146606 368.462769,910.058411 
	C373.908783,911.825317 379.300751,912.357361 384.746918,912.682678 
	C409.851135,914.182190 433.551300,904.444275 458.351044,903.489441 
	C459.868866,903.431030 461.516022,902.697632 461.537628,900.883606 
	C461.635712,892.646484 461.580597,884.407593 461.580597,875.790039 
	C456.951050,876.590088 453.361328,878.711548 448.497284,878.637756 
M445.643860,468.330719 
	C445.851685,466.229767 446.059479,464.128845 446.350464,461.187378 
	C442.656952,463.054413 439.717499,464.957367 436.504822,466.074463 
	C430.443115,468.182190 425.040588,473.251923 417.759430,470.383270 
	C413.738403,468.799103 409.812958,467.167603 406.501465,463.021057 
	C406.541595,473.013275 403.249908,481.328583 399.306152,489.348877 
	C397.490265,493.041718 397.417419,496.153320 399.409302,499.637939 
	C402.089539,504.326691 402.759277,509.157074 400.757233,514.458740 
	C399.902618,516.721863 398.380157,519.331055 400.136597,522.469849 
	C413.315247,517.539490 427.208923,519.023926 440.912018,518.444641 
	C441.330750,515.149231 440.484314,512.447937 439.990784,509.686584 
	C438.835602,503.223724 436.381470,496.839661 439.489990,490.174622 
	C442.597443,483.511810 444.277069,476.377716 445.643860,468.330719 
M455.945465,437.014923 
	C463.234650,440.603973 464.168213,441.951050 461.619110,445.297516 
	C462.074371,445.507385 462.505157,445.748779 462.963898,445.911224 
	C476.506500,450.705261 490.796722,450.008118 504.777863,451.578156 
	C506.531891,451.775116 507.618988,450.685242 508.140625,449.154938 
	C510.512054,442.197968 512.286255,435.125824 511.712311,427.681702 
	C511.596252,426.176178 511.366791,424.432068 509.200104,424.818420 
	C505.956970,425.396698 504.034576,423.306274 502.608826,421.192993 
	C497.808838,414.078247 489.451447,409.923004 486.417664,400.194580 
	C484.755585,404.140411 484.773712,407.167786 485.237000,409.971619 
	C486.378876,416.881897 482.790863,418.739807 475.731201,417.949097 
	C469.561188,417.258026 464.013641,414.352234 458.541412,411.496979 
	C456.762909,410.568970 454.937958,409.729889 452.528137,408.554535 
	C456.309906,417.097168 464.172729,420.579926 470.353424,427.116455 
	C461.340790,429.011780 454.763916,421.571350 446.440887,424.080078 
	C451.705444,430.241669 459.883911,430.631683 465.686462,435.123535 
	C462.378754,439.014679 458.981659,436.213379 455.945465,437.014923 
M336.102448,319.519867 
	C334.368164,318.571960 332.633881,317.624084 330.800964,316.622314 
	C328.753082,318.560150 326.872009,320.340118 324.600220,322.489838 
	C333.832703,328.223694 341.521210,335.353973 349.861359,341.668823 
	C358.787018,348.427063 368.536163,354.630768 372.743988,365.859070 
	C379.536224,363.232147 385.461792,366.263824 391.315704,368.131927 
	C393.868561,368.946594 395.332489,368.959595 397.524933,367.587738 
	C422.114014,352.202118 448.786957,341.651031 476.626617,333.872375 
	C478.797028,333.265930 481.222992,333.469788 483.051208,331.821716 
	C479.180206,324.180389 477.356781,323.383240 469.803650,325.683014 
	C446.344604,332.825745 423.661163,341.747131 402.280945,353.929016 
	C396.561035,357.188110 391.403381,361.420105 385.224030,364.341492 
	C379.835144,356.104279 374.788574,348.158142 367.615234,341.750671 
	C358.120300,333.269409 347.829041,326.025604 336.102448,319.519867 
M563.305359,896.067383 
	C576.096252,901.446106 588.480286,907.894714 602.419678,911.427979 
	C603.305969,905.637512 605.416321,900.825500 608.774597,896.246704 
	C605.656982,894.636414 602.985779,893.356812 600.414307,891.901123 
	C597.662231,890.343201 594.945251,888.707642 592.315491,886.952393 
	C582.269470,880.247437 582.411011,877.814453 593.040771,872.580444 
	C593.294983,872.455261 593.432007,872.092102 593.845337,871.548279 
	C591.646362,869.371399 590.010498,866.694092 588.486023,863.950623 
	C587.483093,862.145691 586.234863,861.079956 584.047974,861.967651 
	C582.172913,862.728943 579.451721,862.440063 579.592590,865.641235 
	C579.656189,867.087097 579.135254,868.301697 577.900818,869.047974 
	C573.137817,871.927002 568.294006,874.579651 562.413086,872.675964 
	C558.868713,871.528625 555.342224,870.325928 551.652954,869.096558 
	C550.858154,876.815918 550.100037,884.178955 549.339966,891.560974 
	C554.331665,892.295959 558.398010,894.239563 563.305359,896.067383 
M341.505219,412.520294 
	C340.505402,415.053528 340.380157,417.243317 343.089783,419.014740 
	C344.262909,419.781616 345.206512,421.171814 345.815674,422.482758 
	C348.665100,428.615021 354.130585,431.453339 359.877350,433.983948 
	C361.276093,434.599915 363.307373,434.158112 363.832184,436.349274 
	C360.860229,439.876465 357.267273,436.743378 354.019348,437.246582 
	C358.268616,446.806396 365.754669,448.729462 375.578186,442.327850 
	C373.427063,440.339172 371.056335,438.684845 369.403198,436.490051 
	C367.068756,433.390717 364.106476,430.315216 365.616486,425.735687 
	C366.163330,424.077332 367.558990,422.195587 365.776733,420.644226 
	C364.055420,419.145996 362.360718,420.877991 360.676971,421.310028 
	C360.036835,421.474274 359.453766,421.912109 358.812042,422.009003 
	C356.981049,422.285492 354.610718,424.064423 353.498688,421.512268 
	C352.370911,418.923859 355.080597,418.351257 356.764526,417.439667 
	C359.255676,416.091064 362.246063,415.290741 363.180389,412.023773 
	C357.918518,409.607452 353.013672,415.704163 347.097870,412.027313 
	C351.703918,407.228607 359.539154,405.868073 359.000671,397.673126 
	C354.606598,397.246033 351.650757,400.508911 347.977417,401.662811 
	C346.434875,402.147369 344.686249,403.360870 343.483429,401.509644 
	C342.327759,399.731079 343.787933,398.418488 345.059723,397.288605 
	C347.287567,395.309265 349.834747,393.648285 350.924377,390.626831 
	C351.462921,389.133606 351.946625,387.710938 350.608643,386.483704 
	C349.346497,385.326080 348.006348,386.128876 346.958221,386.838501 
	C344.483185,388.514221 342.148956,390.396606 339.735657,392.165192 
	C337.131317,394.073792 336.933929,396.172974 338.408539,399.080322 
	C340.405640,403.017670 342.596863,407.042938 341.505219,412.520294 
M621.129822,894.589417 
	C614.178955,896.807617 610.315979,901.864014 608.085632,908.540405 
	C607.226135,911.113342 607.986084,912.437378 610.593994,912.611023 
	C620.895325,913.296936 631.183411,913.527283 641.216187,910.487183 
	C643.230652,909.876770 645.688538,909.219116 645.613098,906.461182 
	C645.533508,903.557739 645.822144,899.698181 643.137329,898.366150 
	C636.544861,895.095215 630.070801,889.632385 621.129822,894.589417 
M453.821930,846.466003 
	C448.840027,846.406860 443.858154,846.314392 438.876160,846.307373 
	C437.247223,846.305115 435.356903,846.119751 434.633301,848.115295 
	C431.845856,855.802368 436.003876,862.710449 437.223846,869.946167 
	C437.277069,870.261963 437.995270,870.508667 438.439148,870.708923 
	C444.351257,873.376526 450.255249,873.819214 456.176056,870.690613 
	C457.602417,869.936890 458.740356,869.113831 458.306732,867.256592 
	C457.116486,862.158691 457.795502,857.008301 457.877106,851.874817 
	C457.915771,849.442078 457.805176,847.104797 453.821930,846.466003 
M573.994263,849.265503 
	C573.900696,848.440125 573.716919,847.613525 573.728516,846.789612 
	C573.796509,841.954956 571.638245,840.787292 567.096130,842.132751 
	C563.300659,843.257141 559.290955,843.669434 555.366882,844.343384 
	C553.277100,844.702271 551.393921,845.072144 551.754761,847.953003 
	C552.207947,851.571899 552.297852,855.244568 552.897827,858.834961 
	C554.005920,865.465393 561.292480,869.392700 567.734192,866.956726 
	C569.582214,866.257874 572.778381,865.342773 572.587585,864.003540 
	C571.892761,859.125427 576.492004,854.982605 573.994263,849.265503 
M630.843201,916.581543 
	C615.577209,917.573853 600.581482,916.072144 586.232605,910.650085 
	C576.754639,907.068542 567.587402,902.669617 558.242126,898.728882 
	C555.479126,897.563782 552.859680,895.671326 549.516296,896.022278 
	C549.154419,898.572876 550.630676,899.181580 552.251770,899.843872 
	C565.642090,905.314026 578.938293,911.023254 592.410889,916.281006 
	C607.937622,922.340332 623.853394,924.591431 640.214233,919.657104 
	C643.291260,918.729065 646.408020,917.825684 645.332520,913.133667 
	C640.644653,914.251892 636.347717,916.111694 630.843201,916.581543 
M429.669922,912.305237 
	C409.668121,916.809814 389.677643,921.513245 369.051086,915.073914 
	C371.336945,918.132507 371.496826,918.000793 374.828339,918.675598 
	C392.280365,922.210449 409.569122,920.007141 426.843231,917.325989 
	C436.680969,915.799011 446.516083,914.237366 456.310394,912.460022 
	C458.865784,911.996277 462.831299,912.041626 460.954010,906.789551 
	C450.923737,909.707397 440.618439,910.299377 429.669922,912.305237 
M593.727295,879.425171 
	C591.933838,881.975342 594.640503,882.181030 595.733948,882.834778 
	C600.300842,885.565857 605.128174,887.876343 609.599365,890.747131 
	C612.858582,892.839783 615.320435,892.372742 618.248779,889.448242 
	C611.877502,886.279297 605.934204,883.027649 600.467651,878.976379 
	C598.555298,877.559204 596.335571,878.134949 593.727295,879.425171 
z"/>
<path fill="#000000" opacity="1.000000" stroke="none" 
	d="
M478.532654,294.268188 
	C476.694611,292.734863 473.541107,293.861816 473.181122,290.815826 
	C472.986969,289.173248 474.437714,288.606415 475.559631,287.943604 
	C477.940887,286.536804 480.373627,286.437256 482.520111,288.297302 
	C484.272400,289.815704 485.970703,291.459808 487.392883,293.282318 
	C490.229523,296.917633 493.146057,297.033051 496.786591,294.385712 
	C503.689972,289.365692 509.801727,283.496735 515.820251,277.494202 
	C517.423584,275.895081 518.789062,273.843658 521.567322,273.431244 
	C523.156921,275.279205 522.444458,277.090240 521.329468,278.781555 
	C515.889648,287.033630 509.776581,294.701782 501.469055,300.282074 
	C493.254120,305.800110 488.672333,305.152557 481.876129,297.791046 
	C480.859894,296.690308 479.839722,295.593170 478.532654,294.268188 
z"/>
<path fill="#000000" opacity="1.000000" stroke="none" 
	d="
M399.164154,388.977631 
	C406.793823,410.785522 416.417206,431.470551 423.488770,454.174469 
	C416.267151,450.298553 390.545959,384.522064 393.320435,378.575073 
	C396.982056,381.045441 397.218475,385.315826 399.164154,388.977631 
z"/>
<path fill="#000000" opacity="1.000000" stroke="none" 
	d="
M473.028748,364.114349 
	C474.841064,370.329559 478.394104,375.676300 478.153961,382.109131 
	C473.934937,378.378571 472.750427,373.176056 471.270386,368.276733 
	C470.071442,364.307770 469.083435,362.791473 464.502014,364.761566 
	C450.309235,370.864624 435.852020,376.350006 421.960938,383.162201 
	C420.718414,383.771545 419.494690,385.028290 417.613098,384.019409 
	C417.620422,381.768707 419.556061,381.235779 421.033142,380.486938 
	C435.876129,372.962341 451.133362,366.403900 466.806610,360.793243 
	C470.130554,359.603394 471.856262,360.735443 473.028748,364.114349 
z"/>
<path fill="#000000" opacity="1.000000" stroke="none" 
	d="
M558.293579,313.349670 
	C559.650757,311.921936 560.504944,310.334137 562.497986,310.531494 
	C562.756104,312.252106 550.151123,341.387299 546.760986,346.826447 
	C543.986389,344.600677 545.563965,341.850616 546.143311,339.682465 
	C548.636963,330.350281 552.430908,321.552002 558.293579,313.349670 
z"/>
<path fill="#000000" opacity="1.000000" stroke="none" 
	d="
M469.088989,292.875549 
	C471.221588,292.671387 472.350677,293.451263 472.207550,295.647278 
	C471.720154,303.126526 470.706451,310.488678 467.108948,317.214569 
	C466.504425,318.344788 465.532471,319.350250 464.535645,320.179230 
	C463.477722,321.058990 462.164124,321.427307 460.911346,320.377686 
	C459.789337,319.437622 459.973999,318.225189 460.637268,317.234131 
	C465.381958,310.144440 466.216919,301.759583 468.608154,293.512573 
	C468.729858,293.174072 468.971527,292.977722 469.088989,292.875549 
z"/>
<path fill="#000000" opacity="1.000000" stroke="none" 
	d="
M546.583801,381.354126 
	C545.506165,376.760559 542.125671,373.125092 543.054077,368.249207 
	C549.939453,370.412872 557.033020,395.216949 552.164734,402.082581 
	C550.439819,394.799652 549.224731,388.060242 546.583801,381.354126 
z"/>
<path fill="#000000" opacity="1.000000" stroke="none" 
	d="
M470.489075,384.513031 
	C471.926086,384.112488 473.000671,383.379120 474.924530,385.068970 
	C459.068085,392.704407 442.865723,398.279053 426.820740,404.263397 
	C440.454651,395.933716 455.492310,390.712128 470.489075,384.513031 
z"/>
<path fill="#000000" opacity="1.000000" stroke="none" 
	d="
M527.992310,431.894806 
	C527.882080,429.710907 527.198608,427.839996 528.993774,426.155121 
	C531.403687,426.964905 531.801941,429.149353 532.292603,431.153534 
	C533.980408,438.048279 533.416016,445.023499 532.840820,451.983154 
	C532.642212,454.385376 531.530945,456.160095 528.823120,456.149933 
	C527.215393,456.143921 526.021973,455.136475 526.859131,453.594879 
	C530.628723,446.653748 528.134338,439.435760 527.992310,431.894806 
z"/>
<path fill="#000000" opacity="1.000000" stroke="none" 
	d="
M420.805908,319.985840 
	C422.059937,317.260956 423.769257,317.411835 425.196320,319.082947 
	C427.416534,321.682800 428.447357,324.691864 427.276855,328.029083 
	C424.761414,328.501373 425.069183,326.022400 423.452667,325.348022 
	C420.806366,328.855286 420.728058,334.021362 416.339600,337.574951 
	C414.035950,330.230804 420.351227,326.043427 420.805908,319.985840 
z"/>
<path fill="#000000" opacity="1.000000" stroke="none" 
	d="
M509.970428,385.975311 
	C516.278809,393.745941 519.456909,402.889221 522.994934,413.016174 
	C521.007019,412.522552 520.314148,412.561768 520.127258,412.273254 
	C515.307861,404.833588 512.201416,396.584534 509.005859,388.385223 
	C508.823029,387.916138 509.344482,387.172607 509.770508,386.275757 
	C510.002838,385.994690 509.981781,385.984039 509.970428,385.975311 
z"/>
<path fill="#000000" opacity="1.000000" stroke="none" 
	d="
M564.973511,397.466827 
	C563.932129,397.345459 563.442627,396.829102 563.510559,396.135315 
	C563.931335,391.838196 574.421997,381.939697 580.743408,381.014679 
	C576.101685,387.926056 570.554138,392.537201 564.973511,397.466827 
z"/>
<path fill="#000000" opacity="1.000000" stroke="none" 
	d="
M574.574585,400.653198 
	C577.026306,400.630707 579.199097,399.672852 581.098755,401.292572 
	C578.879761,404.867371 566.482849,406.696686 562.608459,403.874756 
	C566.000366,400.756348 570.378540,401.677917 574.574585,400.653198 
z"/>
<path fill="#000000" opacity="1.000000" stroke="none" 
	d="
M421.313019,395.809357 
	C422.421783,398.734863 423.970184,401.141541 423.939331,404.196625 
	C418.923981,402.090302 414.065216,391.137451 416.013275,386.150696 
	C419.218750,388.560577 419.258301,392.570740 421.313019,395.809357 
z"/>
<path fill="#000000" opacity="1.000000" stroke="none" 
	d="
M541.308105,504.161926 
	C530.720093,502.450714 520.476318,503.353760 510.266327,504.601135 
	C501.324341,505.693573 492.369873,505.353424 483.412689,505.302826 
	C482.481903,505.297546 481.363586,505.416870 480.927216,504.160492 
	C480.911255,503.041107 481.736237,502.763672 482.566925,502.799316 
	C498.357880,503.477264 513.955872,499.856049 529.746460,500.687073 
	C533.218140,500.869781 536.679016,501.296387 540.137329,501.678650 
	C541.566101,501.836517 542.898621,502.220215 541.308105,504.161926 
z"/>
<path fill="#000000" opacity="1.000000" stroke="none" 
	d="
M459.352386,199.023346 
	C464.521667,198.255630 469.483734,196.649536 474.194702,201.838440 
	C468.812195,204.342804 463.828064,205.221344 458.881989,203.806534 
	C455.993500,202.980301 456.341919,200.696381 459.352386,199.023346 
z"/>
<path fill="#000000" opacity="1.000000" stroke="none" 
	d="
M515.178223,199.008484 
	C516.957886,198.164078 518.386536,197.034805 520.087952,198.465042 
	C519.979309,201.158112 516.712402,200.953506 515.800232,203.496765 
	C515.752808,205.295990 519.315247,207.085129 516.554932,209.982040 
	C512.816040,207.223541 512.339661,212.490311 508.959686,213.953217 
	C509.058136,207.529739 510.578064,202.848007 515.178223,199.008484 
z"/>
<path fill="#000000" opacity="1.000000" stroke="none" 
	d="
M445.678558,235.294800 
	C442.272034,235.424194 438.648956,235.995407 437.420380,232.664474 
	C436.053711,228.959213 437.630920,225.252716 439.311890,221.273270 
	C442.474823,224.172348 440.318787,227.235107 441.277405,229.885056 
	C443.712494,231.831238 447.101929,229.616730 449.703583,231.528152 
	C450.030640,234.224457 448.053650,234.719849 445.678558,235.294800 
z"/>
<path fill="#000000" opacity="1.000000" stroke="none" 
	d="
M450.569031,245.483521 
	C453.051270,245.110672 455.133026,244.131592 457.184906,245.503265 
	C455.161896,249.852371 449.751282,250.790970 445.121857,247.611313 
	C446.028992,245.038513 448.366211,245.952682 450.569031,245.483521 
z"/>
<path fill="#000000" opacity="1.000000" stroke="none" 
	d="
M464.189392,219.665421 
	C462.637695,217.507492 462.316833,215.641541 464.470276,214.245728 
	C465.968018,213.274948 467.687500,213.362579 469.058289,214.588272 
	C470.512787,215.888794 470.415405,217.514297 469.451324,219.082672 
	C468.134644,221.224701 466.425018,221.409744 464.189392,219.665421 
z"/>
<path fill="#000000" opacity="1.000000" stroke="none" 
	d="
M427.855408,223.989487 
	C426.108856,222.261139 424.848297,220.683594 426.616974,218.673187 
	C427.593719,217.562927 428.998535,217.540833 430.247955,218.119781 
	C431.961548,218.913818 432.561157,220.481277 432.121582,222.220901 
	C431.609711,224.246689 430.409058,225.404282 427.855408,223.989487 
z"/>
<path fill="#000000" opacity="1.000000" stroke="none" 
	d="
M429.144409,507.325378 
	C421.726715,507.348663 414.722107,507.348663 407.719025,507.348663 
	C407.474945,505.910828 408.482727,505.429169 409.392303,505.162354 
	C415.563141,503.352203 421.875977,503.330292 428.173676,504.133759 
	C431.031250,504.498383 431.155090,505.140076 429.144409,507.325378 
z"/>
<path fill="#000000" opacity="1.000000" stroke="none" 
	d="
M418.395264,349.901001 
	C420.517456,350.214783 419.878693,351.284668 419.033051,351.772125 
	C411.463196,356.135406 403.693207,360.117950 395.685364,363.621948 
	C395.535431,363.687561 395.180634,363.285065 394.063263,362.491577 
	C401.793304,357.214264 409.739594,353.244171 418.395264,349.901001 
z"/>
<path fill="#000000" opacity="1.000000" stroke="none" 
	d="
M363.509033,346.484344 
	C362.725433,345.460480 361.782379,344.827454 362.382019,343.665527 
	C368.636688,345.089813 376.904846,355.330139 376.079895,362.640839 
	C371.679382,356.534332 368.160248,351.240997 363.509033,346.484344 
z"/>
<path fill="#000000" opacity="1.000000" stroke="none" 
	d="
M465.285400,332.441742 
	C462.986481,332.075897 463.059296,330.939514 464.580688,330.413147 
	C468.866577,328.930328 473.203735,327.341492 478.021851,328.637268 
	C474.457550,331.679352 469.934326,331.713287 465.285400,332.441742 
z"/>
<path fill="#000000" opacity="1.000000" stroke="none" 
	d="
M340.489441,327.482971 
	C341.582581,328.438782 342.868713,328.825928 342.734680,330.283264 
	C338.982086,330.071991 333.784515,326.631439 330.218506,321.494751 
	C334.803467,322.469177 337.241516,325.378296 340.489441,327.482971 
z"/>
</svg>